<svg width="1440" height="103" viewBox="0 0 1440 103" fill="none" xmlns="http://www.w3.org/2000/svg">
<path d="M0.171875 102.478V21.7742C0.389648 21.6291 0.63147 21.5081 0.824951 21.3388C5.34741 17.8321 9.72485 15.0992 14.2958 17.2516C15.505 17.8321 17.0286 17.1791 18.3345 16.3084C22.5911 13.4789 26.4122 13.7691 30.0157 18.1707C31.3942 19.8636 33.0872 21.4839 34.7317 21.4356C42.2047 21.1937 49.7019 20.9761 57.2233 19.4766C61.0928 18.7027 65.0107 14.156 68.9044 13.3338C76.7161 11.6408 84.5518 8.4243 92.3151 11.9311C96.4747 13.8175 101.239 11.9311 105.713 11.8585C107.672 11.8343 109.583 12.2455 111.518 12.1245C117.54 11.7618 123.295 15.2927 129.632 9.53678C134.783 4.84499 140.152 8.32755 144.892 12.1971C152.268 18.2432 159.887 17.3968 167.795 13.4547C169.875 12.4147 172.148 10.9637 174.107 11.5925C179.645 13.3821 185.208 14.5672 190.819 15.2685C197.856 13.624 204.894 11.3506 211.907 14.5672C213.455 15.2685 215.076 15.462 216.744 15.4136C217.446 15.3653 218.123 15.3169 218.824 15.2201C221.896 14.8816 224.991 13.0435 228.014 12.9952C231.303 12.9468 234.544 14.1077 237.785 14.9541C238.22 15.0509 238.631 15.3169 239.067 15.6071C242.332 15.8731 245.645 15.5829 249.127 12.4389C254.23 7.81969 259.624 11.3264 264.388 15.2201C265.113 15.8006 265.839 16.2843 266.564 16.7438C268.136 15.2443 269.829 14.2286 271.353 14.2044C282.841 13.9384 294.328 14.0109 305.719 15.3894C309.057 15.7764 311.378 16.3568 312.999 18.8962C321.367 19.7668 329.759 19.6459 338.199 18.7511C341.271 18.4367 344.342 16.6229 347.365 16.5987C350.654 16.5745 353.895 17.7595 357.135 18.6302C358.466 18.9688 359.772 20.6859 361.053 20.3473C366.374 18.9204 371.09 21.6532 375.612 26.345C378.249 29.1021 380.474 28.4975 383.134 24.0475C385.141 20.6617 388.14 18.1465 390.631 18.0981C402.095 17.9288 413.582 18.0981 424.973 19.525C429.278 20.0812 431.89 20.8551 433.534 25.8372C435.372 25.3051 437.186 24.5796 439 24.1926C442.434 23.4187 445.869 20.6375 449.327 23.9749C450.609 25.2325 452.422 24.8456 453.97 24.3861C457.719 23.2736 461.322 22.7415 464.926 25.6679C466.256 26.7562 467.997 26.0064 469.545 26.0064C472.278 26.0064 475.035 25.4018 477.695 26.0306C481.033 26.8287 484.153 26.1757 487.514 24.7005C492.472 22.5481 497.599 22.9108 502.654 21.7983C505.145 21.2421 507.684 20.3231 510.03 18.5334C514.383 15.2443 518.64 12.6808 523.259 14.9541C524.468 15.5346 525.968 14.9541 527.225 14.1318C531.361 11.4715 535.182 11.8827 538.882 16.3084C540.309 18.0497 542.05 19.6943 543.671 19.6943C551.095 19.6943 558.52 19.6943 565.92 18.4609C569.766 17.8079 573.514 13.4305 577.336 12.7291C585.05 11.3264 592.717 8.37592 600.529 12.0762C604.737 14.0835 609.404 12.3664 613.854 12.4147C615.789 12.4389 617.7 12.9226 619.634 12.8743C625.584 12.6808 631.412 16.3326 637.531 10.8428C642.513 6.36861 647.954 9.97211 652.791 13.9626C660.313 20.1538 667.882 19.5492 675.622 15.8973C677.653 14.9299 679.878 13.5514 681.837 14.2528C696.589 19.3557 711.487 20.4198 726.457 19.2106C729.48 18.9446 732.503 17.2275 735.527 17.2758C738.791 17.3242 742.081 18.5818 745.321 19.5008C746.651 19.8878 748.006 21.629 749.263 21.3146C754.536 20.0329 759.3 22.8383 763.919 27.6268C766.628 30.408 768.829 29.876 771.368 25.4986C773.303 22.1853 776.229 19.7427 778.72 19.7668C790.159 19.8636 801.623 20.2989 813.038 21.9918C813.473 22.0644 813.884 22.1369 814.296 22.2095C815.142 22.0644 815.964 21.9434 816.811 21.7983C819.132 21.4114 821.43 20.3231 823.752 19.8636C827.162 19.1864 830.523 16.4777 834.054 19.9119C835.36 21.1695 837.174 20.831 838.698 20.4198C842.398 19.3799 846.001 18.9446 849.653 21.9434C851.008 23.0559 852.725 22.3546 854.297 22.3788C857.005 22.4513 859.738 21.8951 862.423 22.5964C865.76 23.4671 868.88 22.8866 872.193 21.5081C877.103 19.4524 882.254 19.9603 887.26 18.9446C889.727 18.4609 892.242 17.6144 894.564 15.8973C898.845 12.6808 903.029 10.2381 907.696 12.6082C908.93 13.237 910.405 12.6808 911.638 11.9069C915.701 9.31912 919.522 9.827 923.344 14.3253C924.819 16.0908 926.584 17.7595 928.205 17.8079C935.629 17.9772 943.054 18.1707 950.43 17.0824C954.251 16.5503 957.903 12.2696 961.724 11.6408C969.391 10.4074 977.009 7.65039 984.917 11.5199C989.174 13.624 993.793 12.0036 998.267 12.1729C1000.18 12.2455 1002.11 12.7533 1004.05 12.7533C1010 12.705 1015.92 16.5019 1021.92 11.1572C1026.83 6.80394 1032.34 10.5042 1037.28 14.6155C1044.97 20.9519 1052.51 20.5649 1060.2 17.0582C1062.21 16.1633 1064.39 14.8332 1066.37 15.5587C1076.48 19.259 1086.59 21.0728 1096.72 21.6049C1098.34 21.2179 1100.16 21.0486 1102.19 20.8793C1104.29 20.71 1106.44 21.2905 1108.55 21.0244C1118.85 19.6459 1129.13 18.1707 1139.41 16.6228C1141.73 16.2601 1144.03 15.2201 1146.35 14.809C1149.76 14.2044 1153.07 11.5683 1156.68 15.0508C1158.03 16.3568 1159.82 16.0424 1161.34 15.6555C1165.04 14.6881 1168.65 14.3253 1172.37 17.3968C1173.75 18.5576 1175.47 17.8804 1177.04 17.953C1179.75 18.0497 1182.5 17.566 1185.19 18.3158C1188.58 19.259 1191.67 18.7269 1194.98 17.3968C1199.87 15.462 1205.04 16.0666 1210.05 15.1476C1212.52 14.7123 1215.03 13.9142 1217.33 12.2213C1221.56 9.10146 1225.72 6.73138 1230.44 9.1982C1231.7 9.85118 1233.17 9.31912 1234.4 8.5694C1238.42 6.05421 1242.26 6.63464 1246.18 11.2539C1247.71 13.0194 1249.5 14.7606 1251.14 14.8332C1258.59 15.1234 1266.06 15.462 1273.46 14.543C1277.28 14.0593 1280.86 9.85118 1284.68 9.31912C1292.38 8.23082 1299.97 5.5947 1308 9.65771C1312.33 11.8343 1316.95 10.3107 1321.42 10.5767C1323.36 10.6735 1325.31 11.2297 1327.25 11.2539C1333.25 11.3506 1339.27 15.2685 1345.19 10.0205C1350.03 5.73981 1355.67 9.60934 1360.7 13.7933C1361.13 14.156 1361.54 14.3979 1361.98 14.7123C1364.61 8.49685 1368.82 7.98898 1375.01 7.60203C1377.14 7.4811 1379.29 8.10989 1381.42 7.84386C1391.73 6.65882 1402.05 5.35286 1412.35 3.95016C1414.68 3.65994 1416.95 2.6442 1419.27 2.25725C1422.71 1.701 1425.99 -0.886742 1429.67 2.69257C1431.05 3.99854 1432.84 3.7325 1434.36 3.36974C1436.2 2.93441 1438.01 2.62001 1439.83 2.81349V102.478H0.171875Z" fill="black"/>
</svg>
