<svg width="133" height="133" viewBox="0 0 133 133" fill="none" xmlns="http://www.w3.org/2000/svg">
<rect width="133" height="133" fill="white"/>
<path d="M66.4508 98.0627C83.4215 98.0627 97.179 84.2941 97.179 67.3097C97.179 50.3252 83.4215 36.5566 66.4508 36.5566C49.4801 36.5566 35.7227 50.3252 35.7227 67.3097C35.7227 84.2941 49.4801 98.0627 66.4508 98.0627Z" fill="#F36527"/>
<path d="M72.4945 57.5162C73.0528 57.7308 73.5989 57.9939 74.1127 58.3016L74.2017 58.3543L78.2834 54.1842C78.4695 53.9939 78.5706 53.7429 78.5665 53.4798C78.5625 53.2166 78.4573 52.9656 78.2672 52.7794C78.0771 52.5931 77.8303 52.4919 77.5633 52.496C77.3004 52.5 77.0496 52.6053 76.8675 52.7956L72.3125 57.4514L72.4945 57.5162Z" fill="white"/>
<path d="M68.7293 56.8238C69.1419 56.8238 69.5666 56.8481 69.9833 56.8967L70.0723 56.9089L72.5197 52.2611C72.7746 51.7753 72.5885 51.1761 72.103 50.921C71.6216 50.666 71.0189 50.8522 70.764 51.338L67.8555 56.8603L68.0861 56.8481C68.3045 56.8319 68.5229 56.8238 68.7293 56.8238Z" fill="white"/>
<path d="M64.7738 60.7267L64.8345 60.7389L64.875 60.7146C66.04 60.0384 67.375 59.6781 68.7261 59.6781C72.2172 59.6781 75.2754 62.0384 76.1694 65.415L76.1897 65.4919L76.2665 65.5081C76.5012 65.5567 76.7237 65.581 76.9421 65.581C77.3305 65.581 77.7026 65.504 78.0788 65.3461L78.18 65.3057L78.1557 65.2004C77.6703 63.1032 76.4728 61.2004 74.786 59.8401C73.0748 58.4595 70.9186 57.6984 68.722 57.6984C66.2868 57.6984 63.9607 58.6093 62.1646 60.2652L61.9219 60.4878H62.2536C63.1112 60.4878 63.9567 60.5688 64.7738 60.7267Z" fill="white"/>
<path d="M68.7282 60.5972C68.0163 60.5972 67.3124 60.7105 66.6328 60.9292L66.2363 61.0587L66.6368 61.1761C69.1368 61.9089 71.1635 63.0223 72.7897 63.913C73.5624 64.3381 74.2299 64.7065 74.8326 64.9858L75.132 65.1275L75.0066 64.8198C73.9548 62.2571 71.4912 60.5972 68.7282 60.5972Z" fill="white"/>
<path d="M74.2961 69.1801L73.8633 69.0829L74.1788 69.3987C74.7775 69.9979 75.2832 70.6537 75.6877 71.3501L75.7201 71.4068L75.7848 71.4149C76.1732 71.4513 76.5575 71.4716 76.9215 71.4716C79.3568 71.4716 81.4523 70.6538 83.5194 68.9007C83.7581 68.6983 83.9968 68.4837 84.2314 68.261L84.3244 68.172L82.9531 66.7388L82.86 66.8278C82.7589 66.925 82.6497 67.0262 82.5324 67.1355C79.6642 69.7145 77.1642 69.8197 74.2961 69.1801Z" fill="white"/>
<path d="M84.8457 68.7226L84.7567 68.8157C84.5909 68.9939 84.4129 69.172 84.2268 69.3461C83.7575 69.7955 83.2842 70.1882 82.7947 70.5364V70.5323H82.6653H82.5358C82.5358 70.5728 82.5318 70.6173 82.5278 70.67L82.5237 70.7267C80.764 71.8967 78.8303 72.4352 76.4841 72.4352C76.4598 72.4352 76.4315 72.4352 76.4072 72.4352H76.2171L76.2858 72.6133C76.4557 73.0586 76.5852 73.5161 76.6701 73.9736C76.6418 73.9817 76.6135 73.9858 76.5892 73.9939C76.5326 74.006 76.4719 74.0222 76.4153 74.0343C76.2939 74.0627 76.1726 74.091 76.0512 74.1153C75.9986 74.1275 75.9501 74.1356 75.9015 74.1477L75.8166 74.1679C75.7074 74.1922 75.5981 74.2125 75.4889 74.2368C75.1653 72.3704 74.1297 70.6862 72.4792 69.3582C70.5294 67.7914 67.9485 66.925 65.2138 66.925C62.4792 66.925 59.8983 67.7874 57.9485 69.3582C56.2171 70.7509 55.1693 72.5242 54.8983 74.4918C54.4897 74.423 54.0852 74.3501 53.6968 74.2732C53.9598 72.5242 54.7972 70.8886 56.1604 69.4878C57.0302 68.5202 58.1265 67.7388 59.332 67.2246C61.1079 66.3623 63.1426 65.9048 65.2138 65.9048C65.9339 65.9048 66.654 65.9615 67.3578 66.0667L68.0011 66.1679L67.4428 65.8319C66.0593 64.9939 64.4088 64.5485 62.6734 64.5485C60.1289 64.5485 57.637 65.4959 55.6548 67.2125C53.6604 68.9372 52.4104 71.2408 52.1394 73.7024C52.1313 73.7793 52.1232 73.8522 52.1192 73.925C51.7066 73.8238 51.3142 73.7145 50.946 73.6052C50.9258 71.9736 51.391 70.3582 52.3336 68.8724C54.8336 64.9291 59.7203 62.7833 64.2146 63.6497C67.1596 64.2165 69.3926 65.4433 71.3627 66.5283C73.264 67.5728 75.0561 68.5566 76.9735 68.5566C78.6807 68.5566 80.3473 67.755 82.0666 66.1072L82.1596 66.0181L81.9816 65.8319L81.476 65.3016L80.7923 64.585L80.6993 64.674C77.5682 67.674 75.7033 66.6457 72.3174 64.7874C70.3231 63.6902 67.8392 62.3258 64.5909 61.7024C59.5787 60.7348 54.154 62.9615 51.1159 67.1437C47.9525 68.0546 46.209 69.257 46.209 70.5323C46.209 70.6173 46.2211 70.7064 46.2373 70.7914C46.2413 70.8157 46.2413 70.8441 46.2454 70.8684C46.6216 74.0222 48.5755 76.8926 51.7511 78.9493C55.048 81.0829 59.3684 82.2084 64.2672 82.2084C64.3481 82.2084 64.429 82.2084 64.5099 82.2084C69.9023 82.1679 74.4735 80.9898 77.7381 78.7995C79.9711 77.3015 81.5366 75.342 82.2972 73.1518C83.5998 72.508 84.8053 71.6133 85.9582 70.4392C86.0431 70.3542 86.124 70.2692 86.209 70.1801L86.298 70.087L84.8457 68.7226ZM64.5019 75.2206C64.2713 75.2206 64.0447 75.2206 63.8182 75.2165C64.0609 75.002 64.5302 74.7874 65.2098 74.7874C65.8287 74.7874 66.302 74.9736 66.569 75.1882C65.8854 75.2084 65.1936 75.2206 64.5019 75.2206ZM68.7373 75.087C68.4663 73.755 67.0059 72.8036 65.2098 72.8036C63.3934 72.8036 61.9007 73.8076 61.6701 75.1598C61.1321 75.1356 60.5981 75.1072 60.0682 75.0748C60.3554 73.2489 62.5723 71.836 65.2098 71.836C67.8109 71.836 69.9752 73.172 70.3311 74.9655C69.8093 75.0101 69.2753 75.0546 68.7373 75.087ZM72.3093 74.7509C72.103 73.4594 71.3708 72.3056 70.1693 71.4028C68.8344 70.3987 67.0706 69.8481 65.2098 69.8481C63.349 69.8481 61.5892 70.3987 60.2502 71.4028C59.0164 72.3299 58.2559 73.5688 58.09 74.9088C57.6734 74.8684 57.2608 74.8198 56.8562 74.7712C57.0706 73.1963 58.0051 71.7388 59.5059 70.6538C61.0633 69.5283 63.0901 68.9048 65.2098 68.9048C69.421 68.9048 72.9646 71.3339 73.535 74.5768C73.1305 74.6416 72.7219 74.6983 72.3093 74.7509Z" fill="white"/>
<path d="M40.3635 25.1234L43.3651 14.0465L36.8279 17.168L35.6992 14.7995L45.7073 10.0222L46.6863 12.0748L43.6847 23.1518L50.4322 19.9331L51.5609 22.3016L41.3424 27.1761L40.3635 25.1234Z" fill="black"/>
<path d="M50.6621 8.71058L53.5666 8.00208L56.7827 21.2207L53.8781 21.9292L50.6621 8.71058Z" fill="black"/>
<path d="M59.0195 6.85628L62.009 6.76721L62.183 12.7105L67.5228 6.60526L71.1271 6.5L65.7671 12.4312L71.7784 20.0911L68.1862 20.1964L63.8051 14.5324L62.28 16.2085L62.4014 20.3664L59.4119 20.4555L59.0195 6.85628Z" fill="black"/>
<path d="M72.879 18.1154L82.2924 11.5567L75.2779 9.74293L75.9332 7.20447L86.6694 9.9818L86.1031 12.1842L76.6897 18.7429L83.9267 20.6134L83.2714 23.1518L72.3086 20.3178L72.879 18.1154Z" fill="black"/>
<path d="M91.3145 12.168L93.9965 13.4959L87.9731 25.6902L85.291 24.3623L91.3145 12.168Z" fill="black"/>
<path d="M98.9105 16.1154L101.257 17.9696L97.5755 22.6376L105.585 21.3866L108.421 23.6255L100.504 24.7267L100.201 34.4635L97.3813 32.2368L97.6564 25.0789L95.4113 25.3866L92.8385 28.6538L90.4922 26.7996L98.9105 16.1154Z" fill="black"/>
<path d="M120.763 41.7625L121.848 44.3009L111.54 55.0418L110.314 52.1633L112.632 49.8232L110.375 44.5317L107.082 44.5843L105.885 41.7786L120.763 41.7625ZM114.639 47.8029L117.984 44.4102L113.219 44.4791L114.639 47.8029Z" fill="black"/>
<path d="M125.237 52.4871L125.432 55.6895L116.415 59.066L125.828 61.5478L125.986 64.1105L116.944 67.7219L126.305 69.9729L126.495 73.0943L112.547 69.2968L112.389 66.6976L121.079 63.0903L112.013 60.568L111.855 57.9688L125.237 52.4871Z" fill="black"/>
<path d="M124.889 78.8919L121.956 88.7259L119.408 87.9648L121.491 80.981L118.85 80.1915L117.017 86.3373L114.469 85.5761L116.301 79.4304L113.566 78.6126L111.455 85.6895L108.906 84.9283L111.867 75.0012L124.889 78.8919Z" fill="black"/>
<path d="M110.217 86.8069L111.103 89.4182C109.594 89.9526 108.388 90.6976 107.579 92.0255C106.932 93.0862 106.973 93.9526 107.652 94.3696L107.685 94.3899C108.332 94.7866 108.922 94.6004 110.585 92.9526C112.604 90.9526 114.194 89.8757 116.479 91.2725L116.511 91.2927C118.615 92.5802 118.987 95.1065 117.527 97.4951C116.483 99.2036 115.096 100.289 113.421 100.904L112.308 98.402C113.66 97.7907 114.687 97.0781 115.294 96.0822C115.901 95.0862 115.775 94.3251 115.193 93.9729L115.16 93.9526C114.38 93.4749 113.862 93.8433 112.106 95.5235C110.039 97.4951 108.401 98.313 106.378 97.0781L106.346 97.0579C104.044 95.649 103.821 93.1024 105.35 90.5964C106.435 88.8231 108.105 87.4304 110.217 86.8069Z" fill="black"/>
<path d="M106.937 101.034L106.961 101.062C109.542 103.941 109.389 108.333 106.266 111.139C103.143 113.945 98.8183 113.629 96.2374 110.75L96.2131 110.722C93.6322 107.843 93.7859 103.447 96.9089 100.645C100.028 97.8393 104.356 98.1551 106.937 101.034ZM98.5149 108.6L98.5391 108.629C100.097 110.366 102.665 110.669 104.457 109.058C106.249 107.447 106.221 104.916 104.664 103.179L104.639 103.151C103.082 101.414 100.513 101.111 98.7212 102.722C96.9291 104.333 96.9574 106.864 98.5149 108.6Z" fill="black"/>
<path d="M95.4686 119.05L92.4953 120.293L86.9815 116.362L85.9014 123.05L82.9281 124.293L77.6895 111.738L80.4322 110.592L83.8545 118.787L85.149 111.949L85.2218 111.92L90.9338 115.766L87.5357 107.625L90.242 106.495L95.4686 119.05Z" fill="black"/>
<path d="M76.5805 125.568L66.3701 126.507L66.1274 123.855L73.3766 123.192L73.1258 120.443L66.7463 121.03L66.5036 118.378L72.8831 117.791L72.6242 114.945L65.2779 115.621L65.0352 112.969L75.3426 112.021L76.5805 125.568Z" fill="black"/>
<path d="M53.6352 125.236L51.0138 124.39L47.5267 114.463L44.9539 122.43L42.1465 121.524L46.3212 108.58L48.7403 109.362L52.3487 119.613L55.0025 111.386L57.8099 112.293L53.6352 125.236Z" fill="black"/>
<path d="M40.7185 113.414L40.6943 113.447C38.4006 116.56 34.0721 117.301 30.6943 114.811C27.3164 112.321 26.7501 108.017 29.0397 104.9L29.064 104.868C31.3577 101.754 35.6862 101.013 39.064 103.503C42.4418 105.997 43.0122 110.301 40.7185 113.414ZM31.6045 106.694L31.5802 106.726C30.1967 108.604 30.4232 111.183 32.3609 112.613C34.2986 114.042 36.7744 113.499 38.1538 111.621L38.1781 111.588C39.5616 109.71 39.335 107.131 37.3973 105.702C35.4596 104.277 32.988 104.815 31.6045 106.694Z" fill="black"/>
<path d="M26.7879 102.455L26.7556 102.475C23.5759 104.673 19.2394 103.961 16.8567 100.507C14.474 97.054 15.3357 92.7989 18.5112 90.6005L18.5436 90.5803C21.7232 88.3819 26.0598 89.0904 28.4425 92.5438C30.8251 95.9973 29.9635 100.256 26.7879 102.455ZM20.3518 93.1349L20.3195 93.1552C18.402 94.4791 17.775 96.9932 19.1463 98.973C20.5137 100.957 23.0298 101.248 24.9473 99.9244L24.9797 99.9042C26.8971 98.5803 27.5242 96.0661 26.1528 94.0864C24.7855 92.1026 22.2693 91.8111 20.3518 93.1349Z" fill="black"/>
<path d="M10.5298 88.9L9.04921 83.8069C7.8518 79.7017 9.84209 76.0458 13.5152 74.9729L13.5516 74.9608C17.2248 73.8879 20.902 75.8919 22.0953 79.9972L23.58 85.0903L10.5298 88.9ZM19.5063 80.7543C18.8267 78.4223 16.7757 77.2806 14.4659 77.9527L14.4295 77.9648C12.1196 78.6409 10.9626 80.7179 11.6423 83.0498L12.2895 85.2685L20.1536 82.9729L19.5063 80.7543Z" fill="black"/>
<path d="M6.52427 71.3252L6.5 68.3333L17.3738 68.2483L17.3212 61.4669L20.0396 61.4467L20.1125 71.2199L6.52427 71.3252Z" fill="black"/>
<path d="M7.08203 56.7057L9.56585 46.7502L12.1468 47.394L10.383 54.4628L13.0569 55.1308L14.6103 48.9081L17.1913 49.5519L15.6379 55.7745L18.4089 56.4668L20.1969 49.3008L22.7778 49.9446L20.2697 59.9932L7.08203 56.7057Z" fill="black"/>
<path d="M21.3829 48.1308L20.3797 45.56C21.8643 44.9567 23.0334 44.1592 23.7818 42.7988C24.3805 41.7098 24.3037 40.8434 23.6038 40.4588L23.5715 40.4385C22.908 40.0741 22.3255 40.2847 20.7357 42.0053C18.8101 44.0944 17.2689 45.2442 14.9226 43.9486L14.8902 43.9284C12.73 42.7381 12.2486 40.232 13.5957 37.7786C14.5585 36.0256 15.9016 34.8798 17.544 34.1875L18.7697 36.6369C17.4469 37.3049 16.4517 38.066 15.8894 39.0903C15.3271 40.1106 15.4889 40.8677 16.0836 41.1956L16.116 41.2158C16.9169 41.6571 17.4185 41.2685 19.0973 39.5073C21.0755 37.4466 22.6734 36.5519 24.7486 37.6976L24.781 37.7179C27.1435 39.0215 27.4792 41.5559 26.0634 44.1268C25.0642 45.9446 23.4622 47.4142 21.3829 48.1308Z" fill="black"/>
<path d="M27.3091 24.988C29.8091 26.2228 30.7436 26.1661 33.0818 24.6439C33.1343 24.6074 33.2031 24.6681 33.1748 24.7248C31.941 27.2268 31.9976 28.1621 33.5187 30.5022C33.5551 30.5548 33.4944 30.6236 33.4377 30.5953C30.9377 29.3604 30.0033 29.4171 27.6651 30.9394C27.6125 30.9758 27.5437 30.9151 27.5721 30.8584C28.8059 28.3564 28.7492 27.4212 27.2282 25.0811C27.1958 25.0285 27.2525 24.9596 27.3091 24.988Z" fill="#171714"/>
<path d="M107.229 29.902C109.729 31.1369 110.663 31.0802 113.001 29.5579C113.054 29.5215 113.123 29.5822 113.094 29.6389C111.861 32.1409 111.917 33.0761 113.438 35.4162C113.475 35.4688 113.414 35.5377 113.357 35.5093C110.857 34.2745 109.923 34.3312 107.585 35.8535C107.532 35.8899 107.463 35.8292 107.492 35.7725C108.725 33.2705 108.669 32.3352 107.148 29.9952C107.111 29.9385 107.172 29.8737 107.229 29.902Z" fill="#171714"/>
</svg>
