<svg width="256" height="110" viewBox="0 0 256 110" fill="none" xmlns="http://www.w3.org/2000/svg">
<g clip-path="url(#clip0_2352_734)">
<path d="M133.456 28.752C129.168 32.0417 125.43 34.9089 121.196 38.1569C124.779 40.6362 128.111 42.9431 131.528 45.3081C130.054 47.2701 130.533 46.8174 129.242 48.3824C120.383 48.835 110.283 49.2169 98.794 49.6454C98.422 49.6593 98.2167 48.9815 98.4148 48.3297C99.6283 44.3326 100.98 40.2495 102.4 35.8415C107.321 34.1289 117.095 30.4337 117.201 30.2504C116.911 30.0501 108.473 24.425 104.256 21.6243C102.91 20.8866 103.021 19.3925 104.225 16.3545C106.065 11.7123 107.656 7.182 109.578 1.99512C117.598 10.9825 125.433 19.7628 133.456 28.752Z" fill="white"/>
<path d="M98.7805 51.6407C98.0624 51.6407 97.3967 51.306 96.9428 50.713C96.3571 49.948 96.194 48.8115 96.5166 47.747C97.4274 44.7466 98.4079 41.7226 99.4457 38.5213C99.796 37.4416 100.151 36.3445 100.511 35.2267C100.703 34.6313 101.161 34.161 101.75 33.9559C104.967 32.8357 109.775 31.0456 112.97 29.8184C110.108 27.9097 105.914 25.1162 103.222 23.3285C102.313 22.8045 101.277 21.7781 101.3 19.8283C101.312 18.7565 101.636 17.4966 102.381 15.6157C103.649 12.418 104.805 9.25358 106.028 5.90277C106.57 4.42071 107.129 2.88843 107.719 1.29805C107.961 0.643864 108.527 0.164572 109.209 0.0344608C109.891 -0.0956501 110.591 0.142786 111.055 0.662019L134.932 27.4195C135.301 27.834 135.482 28.3847 135.43 28.9384C135.378 29.4928 135.099 29.9999 134.659 30.3376L124.574 38.0734L132.653 43.6646C133.099 43.9732 133.4 44.4519 133.487 44.9893C133.573 45.5267 133.437 46.0762 133.111 46.5107C132.495 47.3301 132.243 47.6986 132.04 47.9946C131.721 48.4605 131.519 48.7456 130.769 49.6557C130.414 50.0854 129.897 50.3462 129.342 50.3747C120.146 50.8449 109.328 51.2485 98.8672 51.6389C98.8389 51.6401 98.81 51.6407 98.7805 51.6407ZM103.984 37.3987C103.727 38.1951 103.471 38.9812 103.22 39.7582C102.342 42.4645 101.506 45.0438 100.722 47.5776C110.206 47.223 119.876 46.855 128.261 46.435C128.478 46.1585 128.592 45.9963 128.731 45.7942L120.071 39.8012C119.547 39.4387 119.228 38.8456 119.213 38.2066C119.197 37.5675 119.487 36.9599 119.993 36.572L130.545 28.4773L110.299 5.78899C110.115 6.29068 109.934 6.78691 109.755 7.27771C108.521 10.6545 107.356 13.8444 106.069 17.0929C105.342 18.9254 105.26 19.6522 105.266 19.9069C105.294 19.9239 105.322 19.9414 105.35 19.9596C109.258 22.5551 117.99 28.3738 118.326 28.6068C119.179 29.1975 119.437 30.3479 118.918 31.249C118.566 31.8608 118.053 32.0787 117.509 32.3098C117.214 32.4351 116.794 32.6052 116.263 32.8158C115.262 33.2115 113.893 33.738 112.304 34.339C109.914 35.2431 106.606 36.4697 103.984 37.3987Z" fill="white"/>
<path d="M144.418 51.3573C142.059 50.6674 140.107 50.2021 138.25 49.4886C137.72 49.2852 137.205 48.3956 137.124 47.7632C136.309 41.4501 135.636 35.1183 134.805 28.8082C134.598 27.242 134.966 26.4111 136.445 25.7594C139.902 24.2356 143.278 22.5278 147.187 20.6548C146.244 31.1139 145.341 41.1252 144.418 51.3573Z" fill="white"/>
<path d="M144.418 53.3526C144.233 53.3526 144.046 53.3266 143.865 53.2734C143.201 53.0791 142.567 52.9024 141.954 52.7317C140.411 52.3015 138.954 51.8954 137.541 51.3526C136.204 50.8388 135.315 49.252 135.156 48.0199C134.771 45.0346 134.412 41.9997 134.065 39.0652C133.677 35.7852 133.276 32.3933 132.838 29.0703C132.507 26.5558 133.4 24.9231 135.649 23.9324C138.049 22.8752 140.442 21.7109 142.976 20.4788C144.055 19.9541 145.172 19.4112 146.334 18.8545C146.978 18.5458 147.737 18.6088 148.322 19.0185C148.907 19.4282 149.229 20.1217 149.164 20.8358L146.395 51.5389C146.342 52.1326 146.027 52.6706 145.537 53.0065C145.204 53.234 144.813 53.3526 144.418 53.3526ZM139.191 47.7131C140.261 48.1101 141.388 48.4326 142.658 48.7873L144.895 23.9766C144.831 24.0075 144.767 24.0389 144.703 24.0698C142.135 25.3189 139.709 26.4983 137.241 27.5858C136.913 27.7305 136.788 27.834 136.753 27.8672C136.741 27.9193 136.713 28.102 136.771 28.5462C137.213 31.8958 137.615 35.3011 138.005 38.5944C138.35 41.5138 138.707 44.5317 139.089 47.4916C139.104 47.5485 139.147 47.6405 139.191 47.7131Z" fill="white"/>
<path d="M138.702 11.4382C141.605 11.2615 144.002 13.3439 144.24 16.2493C144.483 19.2146 142.292 21.7381 139.315 21.9239C136.355 22.1085 133.886 19.8603 133.768 16.872C133.654 13.9823 135.804 11.6143 138.702 11.4382Z" fill="white"/>
<path d="M138.97 23.9295C137.176 23.9295 135.479 23.2796 134.151 22.0735C132.704 20.7591 131.863 18.9399 131.785 16.9514C131.629 12.9851 134.614 9.68874 138.582 9.44728C140.506 9.32988 142.348 9.94473 143.768 11.1787C145.19 12.4138 146.06 14.1567 146.217 16.086C146.378 18.0509 145.768 19.9445 144.499 21.4181C143.22 22.9044 141.422 23.7909 139.437 23.915C139.281 23.9247 139.125 23.9295 138.97 23.9295ZM138.822 13.4293C137 13.54 135.679 14.9864 135.75 16.7928C135.786 17.6999 136.162 18.5236 136.81 19.1118C137.454 19.6964 138.3 19.9875 139.191 19.9324C140.103 19.8755 140.921 19.4755 141.497 18.8068C142.063 18.1502 142.334 17.2999 142.261 16.4121C142.114 14.6015 140.636 13.3185 138.822 13.4293Z" fill="white"/>
<path d="M163.655 23.9179C166.277 18.354 174.023 2.3147 174.023 2.3147L162.923 5.46036C162.199 7.11791 160.718 11.279 157.315 18.7541L153.964 3.01124L144.873 6.00561C147.531 18.236 150.189 30.4665 152.852 42.6951C153.616 46.2038 154.412 49.7059 155.222 53.3387C157.919 53.0924 160.444 52.8619 163.169 52.6125C162.081 45.3342 161.036 38.3403 159.902 30.7575C168.326 37.5306 176.238 43.8927 184.306 50.3795C187.607 46.0259 190.794 41.823 194.153 37.3938C183.881 32.8551 173.808 28.4041 163.655 23.9179Z" fill="white"/>
<path d="M155.22 55.3346C154.3 55.3346 153.49 54.6938 153.285 53.7757C153.027 52.6186 152.771 51.4755 152.516 50.3408C151.96 47.8614 151.435 45.5194 150.913 43.1224C148.657 32.7583 146.366 22.2205 144.151 12.0289L142.935 6.43169C142.717 5.43195 143.288 4.42859 144.255 4.11027L153.346 1.1159C153.881 0.939797 154.465 1.00031 154.953 1.28232C155.441 1.56433 155.787 2.0412 155.905 2.59432L157.977 12.3272C159.011 9.89264 159.748 8.03599 160.272 6.7143C160.632 5.80837 160.892 5.15358 161.107 4.65976C161.346 4.11329 161.815 3.70299 162.386 3.5408L173.486 0.395147C174.238 0.182128 175.045 0.432667 175.546 1.03481C176.047 1.63755 176.15 2.47934 175.809 3.18618C175.739 3.33081 169.448 16.3588 166.327 22.9195L194.952 35.5681C195.509 35.8144 195.923 36.3033 196.075 36.8958C196.226 37.4883 196.1 38.1176 195.732 38.6042L185.884 51.5899C185.561 52.0171 185.079 52.2949 184.549 52.3602C184.019 52.4256 183.484 52.2737 183.067 51.9384L162.617 35.496L165.131 52.3179C165.213 52.8613 165.067 53.4138 164.73 53.8459C164.393 54.278 163.892 54.5509 163.348 54.6006L155.401 55.3268C155.34 55.3316 155.28 55.3346 155.22 55.3346ZM147.194 7.34065L148.028 11.1774C150.242 21.3684 152.533 31.9062 154.789 42.2691C155.309 44.654 155.832 46.99 156.387 49.4633C156.516 50.0382 156.645 50.6149 156.775 51.1947L160.894 50.8183L157.94 31.0547C157.818 30.2432 158.204 29.4395 158.911 29.0298C159.619 28.6201 160.504 28.6879 161.141 29.2005L183.959 47.5467L191.046 38.2005L162.857 25.7438C162.366 25.5271 161.983 25.1199 161.796 24.6145C161.609 24.1098 161.632 23.55 161.862 23.0629C163.645 19.2806 167.835 10.5759 170.311 5.43921L164.385 7.11855C164.259 7.43203 164.116 7.7921 163.957 8.19212C163.073 10.4209 161.593 14.1518 159.12 19.5844C158.764 20.3663 157.948 20.831 157.099 20.7372C156.248 20.6434 155.554 20.0128 155.375 19.1717L152.485 5.59777L147.194 7.34065Z" fill="white"/>
<path d="M133.456 28.752C129.168 32.0417 125.43 34.9089 121.196 38.1569C124.779 40.6362 128.111 42.9431 131.528 45.3081C130.054 47.2701 130.533 46.8174 129.242 48.3824C120.383 48.835 110.283 49.2169 98.794 49.6454C98.422 49.6593 98.2167 48.9815 98.4148 48.3297C99.6283 44.3326 100.98 40.2495 102.4 35.8415C107.321 34.1289 117.095 30.4337 117.201 30.2504C116.911 30.0501 108.473 24.425 104.256 21.6243C102.91 20.8866 103.021 19.3925 104.225 16.3545C106.065 11.7123 107.656 7.182 109.578 1.99512C117.598 10.9825 125.433 19.7628 133.456 28.752Z" fill="black"/>
<path d="M144.418 51.3576C142.059 50.6677 140.107 50.2023 138.25 49.4888C137.72 49.2855 137.205 48.3959 137.124 47.7635C136.309 41.4504 135.636 35.1185 134.805 28.8084C134.598 27.2423 134.966 26.4114 136.445 25.7596C139.902 24.2358 143.278 22.528 147.187 20.655C146.244 31.1141 145.341 41.1254 144.418 51.3576Z" fill="black"/>
<path d="M138.702 11.4382C141.605 11.2615 144.002 13.3439 144.24 16.2493C144.483 19.2146 142.292 21.7381 139.315 21.9239C136.355 22.1085 133.886 19.8603 133.768 16.872C133.654 13.9823 135.804 11.6143 138.702 11.4382Z" fill="black"/>
<path d="M163.655 23.9179C166.277 18.354 174.023 2.3147 174.023 2.3147L162.923 5.46036C162.199 7.11791 160.718 11.279 157.315 18.7541L153.964 3.01124L144.873 6.00561C147.531 18.236 150.189 30.4665 152.852 42.6951C153.616 46.2038 154.412 49.7059 155.222 53.3387C157.919 53.0924 160.444 52.8619 163.169 52.6125C162.081 45.3342 161.036 38.3403 159.902 30.7575C168.326 37.5306 176.238 43.8927 184.306 50.3795C187.607 46.0259 190.794 41.823 194.153 37.3938C183.881 32.8551 173.808 28.4041 163.655 23.9179Z" fill="black"/>
<path d="M142.613 51.4883C145.429 51.4617 147.645 53.5955 147.732 56.4168C147.82 59.2968 145.577 61.6279 142.689 61.6599C139.816 61.6914 137.54 59.3936 137.573 56.4979C137.605 53.6978 139.802 51.5143 142.613 51.4883Z" fill="white"/>
<path d="M142.629 63.5921C140.752 63.5921 138.999 62.8678 137.687 61.5473C136.352 60.2044 135.629 58.4028 135.651 56.4754C135.695 52.632 138.745 49.5922 142.594 49.5565C142.618 49.5565 142.641 49.5559 142.664 49.5559C144.505 49.5559 146.228 50.241 147.524 51.4888C148.838 52.7542 149.594 54.4832 149.651 56.3568C149.71 58.2649 149.027 60.0658 147.727 61.4281C146.417 62.8018 144.634 63.5698 142.709 63.5909C142.682 63.5915 142.656 63.5921 142.629 63.5921ZM142.663 53.4199C142.653 53.4199 142.642 53.4199 142.63 53.4199C140.862 53.4362 139.514 54.7694 139.494 56.5202C139.484 57.3995 139.808 58.2146 140.406 58.8162C140.991 59.405 141.78 59.7282 142.631 59.7282C142.643 59.7282 142.656 59.7282 142.668 59.7282C143.553 59.7185 144.364 59.3729 144.954 58.7544C145.533 58.1475 145.837 57.3384 145.81 56.4766C145.757 54.7283 144.406 53.4199 142.663 53.4199Z" fill="white"/>
<path d="M142.611 51.4883C145.427 51.4617 147.643 53.5955 147.73 56.4168C147.818 59.2968 145.575 61.6279 142.687 61.6599C139.814 61.6914 137.538 59.3936 137.571 56.4979C137.603 53.6978 139.8 51.5143 142.611 51.4883Z" fill="black"/>
<path d="M170.671 71.9108C174.843 66.1975 187.077 49.769 187.077 49.769L173.849 50.8897C172.672 52.6048 170.095 56.982 164.627 64.6845L164.254 46.1567L153.33 47.5474C153.681 61.9528 154.031 76.3582 154.387 90.7636C154.489 94.8969 154.629 99.029 154.756 103.313C157.858 103.626 160.762 103.919 163.896 104.235C164.246 95.7708 164.582 87.6373 164.946 78.8182C172.998 88.3205 180.559 97.2456 188.27 106.347C192.946 102.15 197.46 98.0988 202.217 93.8294C191.592 86.4475 181.173 79.2079 170.671 71.9108Z" fill="white"/>
<path d="M188.271 108.643C188.219 108.643 188.167 108.641 188.115 108.638C187.502 108.595 186.931 108.307 186.532 107.836L166.987 84.7675L166.179 104.331C166.153 104.963 165.869 105.556 165.394 105.97C164.919 106.385 164.294 106.584 163.668 106.52L154.529 105.598C153.387 105.483 152.508 104.534 152.474 103.382C152.433 102.017 152.391 100.668 152.35 99.3296C152.26 96.4055 152.174 93.6441 152.105 90.821C151.796 78.3527 151.488 65.6751 151.189 53.4156L151.048 47.6036C151.019 46.4259 151.881 45.4171 153.044 45.2694L163.968 43.8788C164.611 43.7971 165.258 43.9931 165.748 44.4192C166.238 44.8446 166.526 45.4595 166.539 46.1106L166.77 57.5652C168.467 55.0399 169.702 53.1027 170.582 51.7248C171.184 50.7795 171.62 50.0969 171.971 49.5861C172.359 49.0209 172.978 48.6596 173.659 48.6021L186.887 47.4813C187.785 47.4057 188.641 47.8656 189.077 48.6566C189.513 49.4475 189.447 50.4218 188.908 51.1462C188.798 51.2945 178.861 64.639 173.909 71.3691L203.518 91.9424C204.094 92.3424 204.455 92.9863 204.499 93.6889C204.542 94.3915 204.263 95.0753 203.74 95.5443L189.794 108.062C189.372 108.437 188.83 108.643 188.271 108.643ZM164.946 76.5221C165.604 76.5221 166.244 76.8077 166.685 77.3294L188.493 103.068L198.53 94.0592L169.372 73.7988C168.865 73.446 168.521 72.902 168.418 72.2902C168.316 71.6783 168.465 71.0508 168.83 70.5509C171.665 66.6669 178.29 57.748 182.202 52.4855L175.141 53.084C174.93 53.4108 174.691 53.786 174.425 54.2029C172.942 56.5286 170.46 60.4204 166.486 66.0182C165.914 66.8237 164.893 67.1704 163.952 66.8781C163.011 66.5858 162.363 65.7205 162.343 64.731L162.022 48.7558L155.663 49.5655L155.754 53.3036C156.053 65.5631 156.361 78.2396 156.67 90.7072C156.739 93.5158 156.824 96.2705 156.915 99.1874C156.936 99.8652 156.957 100.546 156.978 101.23L161.714 101.709L162.664 78.7243C162.703 77.7802 163.313 76.9566 164.201 76.6486C164.446 76.5632 164.698 76.5221 164.946 76.5221Z" fill="white"/>
<path d="M170.671 71.9108C174.843 66.1975 187.077 49.769 187.077 49.769L173.849 50.8897C172.672 52.6048 170.095 56.982 164.627 64.6845L164.254 46.1567L153.33 47.5474C153.681 61.9528 154.031 76.3582 154.387 90.7636C154.489 94.8969 154.629 99.029 154.756 103.313C157.858 103.626 160.762 103.919 163.896 104.235C164.246 95.7708 164.582 87.6373 164.946 78.8182C172.998 88.3205 180.559 97.2455 188.27 106.347C192.946 102.15 197.46 98.0988 202.217 93.8294C191.592 86.4475 181.173 79.2079 170.671 71.9108Z" fill="black"/>
<path d="M133.463 70.4559C128.948 75.621 125.013 80.1234 120.555 85.2238C125.625 87.4078 130.341 89.4388 135.176 91.5224C133.831 94.3309 134.313 93.6483 133.097 95.9177C122.195 98.7027 109.734 101.711 95.5569 105.126C95.0982 105.237 94.6744 104.445 94.7587 103.585C95.2752 98.3117 95.9421 92.8961 96.6133 87.0599C102.306 83.6957 113.541 76.6504 113.627 76.3962C113.217 76.2195 101.331 71.3437 95.3925 68.9194C93.5361 68.3402 93.3032 66.4545 94.0466 62.3751C95.1825 56.1419 96.0354 50.1108 97.1376 43.1804C109.339 52.342 121.259 61.2925 133.463 70.4559Z" fill="white"/>
<path d="M95.4647 107.666C94.7628 107.666 94.079 107.407 93.5192 106.917C92.6013 106.113 92.1167 104.741 92.2539 103.337C92.6416 99.3769 93.1105 95.3689 93.6065 91.1261C93.772 89.71 93.943 88.2461 94.1133 86.7695C94.2036 85.9809 94.6575 85.2814 95.3377 84.8789C99.0595 82.6797 104.593 79.2478 108.26 76.921C104.228 75.2664 98.3215 72.8458 94.5299 71.2978C93.2694 70.8741 91.7266 69.8587 91.2716 67.4283C91.0212 66.0927 91.1109 64.4449 91.5707 61.9195C92.3527 57.627 93.004 53.4036 93.6932 48.932C93.9984 46.9531 94.3138 44.907 94.6521 42.7811C94.7911 41.9066 95.3744 41.1695 96.1906 40.8367C97.0069 40.5038 97.9363 40.6243 98.6417 41.1538L134.967 68.4293C135.529 68.8517 135.891 69.4907 135.964 70.1927C136.037 70.8947 135.815 71.5955 135.352 72.1256L124.735 84.2732L136.165 89.1974C136.796 89.4691 137.29 89.9883 137.531 90.6347C137.771 91.281 137.74 91.9981 137.442 92.6202C136.88 93.793 136.657 94.3147 136.479 94.7341C136.197 95.3931 136.018 95.7986 135.311 97.1178C134.977 97.7411 134.398 98.195 133.716 98.3693C122.406 101.259 109.054 104.475 96.1425 107.586C95.9174 107.64 95.6898 107.666 95.4647 107.666ZM98.968 88.5983C98.8458 89.6549 98.7236 90.6982 98.6044 91.7173C98.1849 95.3047 97.7852 98.7227 97.4397 102.071C109.144 99.251 121.077 96.3668 131.393 93.7422C131.594 93.3434 131.695 93.1134 131.817 92.8278L119.564 87.5495C118.823 87.23 118.279 86.5734 118.101 85.7824C117.922 84.9921 118.133 84.1636 118.665 83.5542L129.773 70.8439L98.974 47.7168C98.8705 48.388 98.7681 49.0506 98.667 49.7066C97.9724 54.2133 97.3157 58.4706 96.5211 62.8309C96.0727 65.2909 96.1503 66.2156 96.2213 66.5309C96.2611 66.5448 96.3002 66.5599 96.3393 66.5756C101.842 68.822 114.142 73.8655 114.617 74.0706C115.825 74.5905 116.431 75.9569 116.01 77.2072C115.724 78.0563 115.139 78.4563 114.52 78.8793C114.184 79.1093 113.706 79.4258 113.097 79.8209C111.951 80.5641 110.38 81.562 108.554 82.7076C105.805 84.4311 101.998 86.7858 98.968 88.5983Z" fill="white"/>
<path d="M133.463 70.4559C128.948 75.621 125.013 80.1234 120.555 85.2238C125.625 87.4078 130.341 89.4388 135.176 91.5224C133.831 94.3309 134.313 93.6483 133.097 95.9177C122.195 98.7027 109.734 101.711 95.5569 105.126C95.0982 105.237 94.6744 104.445 94.7587 103.585C95.2752 98.3117 95.9421 92.8961 96.6133 87.0599C102.306 83.6957 113.541 76.6504 113.627 76.3962C113.217 76.2195 101.331 71.3437 95.3925 68.9194C93.5361 68.3402 93.3032 66.4545 94.0466 62.3751C95.1825 56.1419 96.0354 50.1108 97.1376 43.1804C109.339 52.342 121.259 61.2925 133.463 70.4559Z" fill="black"/>
<path d="M146.783 96.1198C144.074 95.3023 141.833 94.7461 139.702 93.9061C139.095 93.6665 138.511 92.6371 138.423 91.9085C137.55 84.6338 136.838 77.3391 135.944 70.0674C135.723 68.2628 136.153 67.3097 137.862 66.5744C141.857 64.8557 145.76 62.924 150.278 60.8083C149.088 72.8379 147.948 84.3524 146.783 96.1198Z" fill="white"/>
<path d="M146.784 98.4165C146.564 98.4165 146.343 98.3845 146.128 98.3197C145.366 98.0897 144.638 97.8798 143.934 97.677C142.163 97.1663 140.49 96.6839 138.869 96.0443C137.336 95.4397 136.327 93.6043 136.156 92.1845C135.743 88.7454 135.361 85.2499 134.991 81.8701C134.578 78.0896 134.15 74.1802 133.679 70.3495C133.323 67.452 134.367 65.5814 136.965 64.4642C139.737 63.2715 142.504 61.9558 145.433 60.5633C146.681 59.9703 147.971 59.3566 149.315 58.7273C150.059 58.3787 150.932 58.4586 151.601 58.936C152.27 59.4135 152.633 60.2154 152.552 61.036L149.057 96.3475C148.99 97.0301 148.622 97.6468 148.055 98.028C147.675 98.284 147.232 98.4165 146.784 98.4165ZM140.804 91.8723C142.031 92.3395 143.325 92.7225 144.783 93.1437L147.608 64.6089C147.534 64.644 147.46 64.6791 147.386 64.7142C144.417 66.1254 141.613 67.4586 138.762 68.6853C138.382 68.8487 138.238 68.9661 138.197 69.0042C138.183 69.0635 138.149 69.2741 138.211 69.7861C138.686 73.6471 139.116 77.5722 139.531 81.3672C139.899 84.7295 140.279 88.2062 140.688 91.6151C140.705 91.6816 140.755 91.7881 140.804 91.8723Z" fill="white"/>
<path d="M146.783 96.1198C144.074 95.3023 141.833 94.7461 139.702 93.9061C139.095 93.6665 138.511 92.6371 138.423 91.9085C137.55 84.6338 136.838 77.3391 135.944 70.0674C135.723 68.2628 136.153 67.3097 137.862 66.5744C141.857 64.8557 145.76 62.924 150.278 60.8083C149.088 72.8379 147.948 84.3524 146.783 96.1198Z" fill="black"/>
<path d="M75.1764 61.7591C86.8278 59.8045 95.895 55.9418 95.4285 53.1316C94.9621 50.3214 85.1387 49.6279 73.4873 51.5826C61.8359 53.5372 52.7687 57.3999 53.2352 60.2101C53.7016 63.0203 63.525 63.7138 75.1764 61.7591Z" fill="white"/>
<path d="M63.0043 64.5925C61.9087 64.5925 60.8674 64.5586 59.891 64.4896C57.7156 64.3359 55.9465 64.0133 54.6325 63.5304C52.8056 62.8587 51.766 61.8365 51.5427 60.4925C51.3194 59.1478 51.9725 57.8418 53.4834 56.6103C54.5699 55.7243 56.1391 54.8414 58.1472 53.9863C62.0929 52.3058 67.44 50.8473 73.2035 49.8802C78.9677 48.9132 84.4959 48.5471 88.7703 48.8484C90.9457 49.0021 92.7148 49.3247 94.0289 49.8076C95.8558 50.4794 96.8953 51.5015 97.1186 52.8456C97.3419 54.1896 96.6888 55.4962 95.178 56.7277C94.0915 57.6137 92.5222 58.4966 90.5141 59.3517C86.569 61.0323 81.2214 62.4907 75.4578 63.4578C71.0113 64.2039 66.7038 64.5925 63.0043 64.5925ZM55.0249 59.9079C55.223 60.0477 55.6552 60.2825 56.5316 60.5148C57.6663 60.8162 59.2181 61.0183 61.0191 61.1C64.904 61.2761 69.8315 60.9052 74.8944 60.0555C79.9573 59.2059 84.7373 57.9483 88.355 56.5135C90.032 55.8484 91.4339 55.1506 92.4103 54.4952C93.1639 53.9893 93.4968 53.6262 93.6388 53.4296C93.4408 53.2898 93.0086 53.055 92.1322 52.8226C90.9975 52.5212 89.4457 52.3191 87.6447 52.2374C83.7598 52.0613 78.8323 52.4322 73.77 53.2819C68.707 54.1315 63.927 55.3891 60.3094 56.8239C58.6324 57.489 57.2305 58.1868 56.2541 58.8422C55.4999 59.3475 55.167 59.7112 55.0249 59.9079Z" fill="white"/>
<path d="M69.6893 68.8631C69.5779 71.3958 66.9011 73.3341 63.7102 73.1925C60.5193 73.0509 58.0231 70.8826 58.1344 68.3493C58.2458 65.8167 60.9226 63.8784 64.1135 64.02C67.3044 64.1622 69.8006 66.3305 69.6893 68.8631Z" fill="white"/>
<path d="M64.0399 74.9246C63.9051 74.9246 63.7702 74.9215 63.6348 74.9155C61.708 74.8296 59.9064 74.1397 58.5629 72.9729C57.1254 71.7244 56.3447 70.0112 56.4211 68.2738C56.4976 66.5358 57.4258 64.8988 58.9674 63.7828C60.4084 62.7395 62.263 62.2124 64.1898 62.2978C66.1166 62.3837 67.9176 63.0736 69.2617 64.2404C70.6992 65.4888 71.4799 67.202 71.4034 68.9395C71.327 70.6775 70.3988 72.3145 68.8572 73.4304C67.5179 74.4005 65.8204 74.9246 64.0399 74.9246ZM63.7925 65.7381C62.7367 65.7381 61.7206 66.0401 60.9724 66.5817C60.5703 66.8728 59.8895 67.4998 59.8492 68.4263C59.8083 69.3528 60.4313 70.0372 60.8063 70.3628C61.5575 71.0152 62.644 71.4188 63.7865 71.4697C63.869 71.4733 63.9514 71.4751 64.0327 71.4751C66.1304 71.4751 67.9104 70.2811 67.976 68.787C68.0169 67.8605 67.3939 67.176 67.0189 66.8504C66.2677 66.1981 65.1812 65.7944 64.0387 65.7436C63.9562 65.74 63.8744 65.7381 63.7925 65.7381Z" fill="white"/>
<path d="M65.2175 73.3062C65.3247 75.2494 63.6073 76.9257 61.3808 77.0498C59.1542 77.1744 57.2623 75.6997 57.1551 73.7565C57.048 71.8133 58.7653 70.137 60.9919 70.0129C63.2185 69.8888 65.1104 71.363 65.2175 73.3062Z" fill="white"/>
<path d="M61.1216 78.7824C58.1095 78.7824 55.597 76.6341 55.4429 73.8527C55.2834 70.963 57.7303 68.4679 60.8977 68.2912C64.0651 68.1139 66.772 70.321 66.9316 73.2106C67.0116 74.657 66.4572 76.0374 65.3701 77.0982C64.3486 78.0949 62.966 78.6892 61.4768 78.7721C61.3576 78.7788 61.239 78.7824 61.1216 78.7824ZM61.2486 71.731C61.1957 71.731 61.1421 71.7322 61.0879 71.7352C59.8311 71.8054 58.815 72.6872 58.8686 73.6615C58.9227 74.6352 60.0291 75.3983 61.2866 75.3281C61.9415 75.2918 62.5585 75.0346 62.9804 74.6225C63.1905 74.4173 63.5378 73.9865 63.5053 73.4019C63.4541 72.4699 62.4375 71.731 61.2486 71.731Z" fill="white"/>
<path d="M62.0581 77.4263C62.1321 78.768 60.9685 79.9245 59.4589 80.0086C57.9492 80.0927 56.6653 79.0736 56.5912 77.7319C56.5172 76.3903 57.6807 75.2338 59.1904 75.1497C60.7001 75.065 61.984 76.0841 62.0581 77.4263Z" fill="white"/>
<path d="M59.284 81.7381C58.233 81.7381 57.226 81.3949 56.4242 80.7583C55.5051 80.0285 54.9416 78.9597 54.879 77.8269C54.7526 75.5375 56.6439 73.5635 59.0956 73.4267C61.5467 73.2899 63.6445 75.0407 63.7715 77.33C63.8979 79.6194 62.006 81.5934 59.5549 81.7302C59.4646 81.7356 59.3743 81.7381 59.284 81.7381ZM59.3665 76.8689C59.34 76.8689 59.3135 76.8695 59.2864 76.8713C58.6851 76.9046 58.2866 77.301 58.3053 77.6362C58.3155 77.8269 58.4449 77.9673 58.5515 78.0514C58.7615 78.2178 59.0577 78.3037 59.3653 78.2862C59.9666 78.2529 60.3651 77.8565 60.3471 77.5213C60.3284 77.2023 59.9263 76.8689 59.3665 76.8689Z" fill="white"/>
<path d="M58.6488 79.4519C59.8219 79.156 60.9488 79.7424 61.2943 81.3116C61.6025 82.7113 60.7989 84.5601 61.4105 84.9741C60.2337 84.9964 57.7392 84.5728 57.115 82.3525C56.7268 80.9727 57.4756 79.7478 58.6488 79.4519Z" fill="white"/>
<path d="M61.331 86.6993C60.7742 86.6993 59.5757 86.6255 58.3574 86.0791C56.8778 85.4152 55.8774 84.289 55.4651 82.8214C55.1502 81.7007 55.2803 80.5563 55.831 79.5989C56.3583 78.6827 57.2113 78.0364 58.2316 77.7792C59.2645 77.519 60.3022 77.6666 61.154 78.1961C61.7945 78.5943 62.63 79.3932 62.97 80.9394C63.1765 81.878 63.0573 82.8154 62.9616 83.5682C62.94 83.7401 62.9129 83.9525 62.899 84.1147C63.1272 84.5141 63.1928 84.9988 63.0573 85.4618C62.846 86.1837 62.1929 86.6848 61.4441 86.6987C61.4098 86.6987 61.3719 86.6993 61.331 86.6993ZM62.3681 83.5422C62.3687 83.5428 62.3687 83.5428 62.3693 83.5428C62.3693 83.5428 62.3687 83.5428 62.3681 83.5422ZM59.0665 81.1245C58.9214 81.1615 58.8413 81.2547 58.7998 81.3267C58.7161 81.4719 58.7047 81.6644 58.7661 81.8828C58.8943 82.3391 59.217 82.6429 59.5932 82.8456C59.6449 82.4135 59.6829 81.9718 59.6196 81.6837C59.5468 81.3533 59.4288 81.1784 59.35 81.1294C59.2705 81.0804 59.1255 81.1094 59.0665 81.1245Z" fill="white"/>
<path d="M80.5549 67.6686L73.1777 68.0808L73.63 76.2613L81.0071 75.849L80.5549 67.6686Z" fill="white"/>
<path d="M73.627 77.9832C72.7228 77.9832 71.9662 77.2727 71.9156 76.3541L71.4636 68.174C71.4383 67.7171 71.5948 67.2693 71.8982 66.9286C72.2016 66.5879 72.6271 66.3821 73.0816 66.3567L80.4584 65.9446C81.4052 65.8919 82.2136 66.62 82.2666 67.5707L82.7187 75.7507C82.771 76.702 82.0469 77.5154 81.1007 77.5686L73.7239 77.9807C73.6914 77.9826 73.6589 77.9832 73.627 77.9832ZM74.9843 69.7045L75.2462 74.4405L79.1973 74.2196L78.9355 69.4836L74.9843 69.7045Z" fill="white"/>
<path d="M88.0033 56.8942C88.0033 56.8942 87.7999 60.5028 87.5242 63.1576C87.1925 66.3475 84.0414 69.8544 77.3682 70.1746C69.3125 70.5606 66.2522 68.6247 64.8714 60.8792C63.4399 52.8498 75.3505 52.8226 75.3505 52.8226L86.9469 52.3342L88.0033 56.8942Z" fill="white"/>
<path d="M75.5857 71.9447C71.9319 71.9447 69.4911 71.3311 67.616 69.9773C65.3413 68.3349 63.9743 65.6231 63.1827 61.1836C62.7638 58.8332 63.2652 56.7199 64.6328 55.0727C66.0365 53.3818 68.2926 52.1999 71.339 51.5597C73.3411 51.1385 75.0241 51.1016 75.3076 51.0985L86.8757 50.6114C87.6968 50.5769 88.4311 51.1361 88.6183 51.9433L89.6747 56.5033C89.7121 56.6636 89.7259 56.8283 89.7169 56.9923C89.7084 57.1411 89.508 60.6723 89.2311 63.3374C89.0036 65.5263 87.8153 67.5724 85.8855 69.0986C83.7763 70.7665 80.8599 71.7347 77.4505 71.8981C76.7956 71.929 76.1744 71.9447 75.5857 71.9447ZM85.5984 54.1171L75.422 54.5456C75.3991 54.5468 75.3768 54.5468 75.354 54.5468C73.7293 54.5552 69.1034 55.0636 67.2627 57.287C66.5488 58.1493 66.3188 59.2247 66.559 60.5748C67.7515 67.2619 69.8564 68.8075 77.2862 68.4517C82.8138 68.1866 85.5538 65.5118 85.8175 62.978C86.045 60.7885 86.225 57.894 86.2762 57.0419L85.5984 54.1171Z" fill="white"/>
<path d="M73.0926 62.1651C73.1395 63.0148 72.4924 63.7416 71.6473 63.7894C70.8022 63.8366 70.0793 63.1861 70.0317 62.3364C69.9847 61.4867 70.6318 60.7599 71.477 60.7121C72.3227 60.6649 73.0462 61.3155 73.0926 62.1651Z" fill="white"/>
<path d="M71.561 65.5166C69.8515 65.5166 68.4158 64.1689 68.3195 62.432C68.2202 60.6341 69.5944 59.0903 71.3822 58.9904C73.1699 58.8906 74.7061 60.2722 74.8054 62.0701C74.8536 62.941 74.5616 63.7785 73.9832 64.4285C73.4047 65.0784 72.6089 65.4633 71.7427 65.5117C71.682 65.5147 71.6212 65.5166 71.561 65.5166ZM71.3798 62.2608C71.3852 62.3618 71.4737 62.4399 71.5724 62.4344C71.6735 62.429 71.7506 62.3419 71.7452 62.2408C71.7397 62.1397 71.6519 62.0617 71.5525 62.0671C71.5345 62.0683 71.4731 62.0756 71.4261 62.1282C71.3792 62.1809 71.3786 62.2432 71.3798 62.2608Z" fill="white"/>
<path d="M83.866 61.3507C83.913 62.2004 83.2659 62.9272 82.4207 62.9744C81.5756 63.0216 80.8527 62.3711 80.8051 61.5214C80.7582 60.6717 81.4053 59.9449 82.2504 59.8971C83.0961 59.8505 83.8191 60.5011 83.866 61.3507Z" fill="white"/>
<path d="M82.3321 64.7016C81.5327 64.7016 80.7712 64.4099 80.1705 63.8695C79.524 63.2879 79.1412 62.4879 79.093 61.617C79.0449 60.7462 79.3368 59.9086 79.9153 59.2581C80.4937 58.6081 81.2895 58.2233 82.1557 58.1748C83.0225 58.1264 83.855 58.4199 84.5021 59.0015C85.1485 59.5831 85.5314 60.3831 85.5795 61.2539C85.6277 62.1248 85.3357 62.9623 84.7573 63.6123C84.1788 64.2622 83.3831 64.6471 82.5169 64.6955C82.4549 64.7004 82.3935 64.7016 82.3321 64.7016ZM82.1533 61.4464C82.1545 61.4645 82.1617 61.5263 82.2141 61.5735C82.2665 61.6207 82.3285 61.6213 82.3465 61.6201C82.3646 61.6188 82.426 61.6116 82.4723 61.5589C82.5193 61.5063 82.5199 61.444 82.5187 61.4258C82.5175 61.4082 82.5102 61.3459 82.4579 61.2987C82.4055 61.2515 82.3435 61.2509 82.3254 61.2521C82.308 61.2533 82.246 61.2606 82.1996 61.3132C82.1527 61.3665 82.1527 61.4288 82.1533 61.4464Z" fill="white"/>
<path d="M75.4199 65.1821C75.4199 65.1821 76.2163 66.0402 77.5213 65.9519C78.8504 65.8617 79.2043 64.8953 79.2043 64.8953" fill="white"/>
<path d="M77.3304 67.6832C75.4518 67.6832 74.2978 66.5007 74.166 66.3591L76.6749 64.0062C76.6749 64.0062 76.6635 63.9923 76.64 63.9699C76.6719 63.9995 76.9626 64.2616 77.4063 64.2313C77.5471 64.2216 77.6212 64.1908 77.6482 64.1696C78.0196 63.3617 78.9526 62.9641 79.7978 63.277C80.6868 63.6062 81.1419 64.598 80.8144 65.4919C80.54 66.2405 79.5624 67.5428 77.6374 67.6729C77.5333 67.6795 77.4309 67.6832 77.3304 67.6832ZM77.5959 64.2967C77.5959 64.2973 77.5953 64.2979 77.5953 64.2985C77.5959 64.2979 77.5959 64.2973 77.5959 64.2967ZM77.5971 64.2948C77.5971 64.2955 77.5965 64.2961 77.5965 64.2967C77.5965 64.2961 77.5965 64.2955 77.5971 64.2948ZM77.5977 64.293C77.5977 64.2936 77.5971 64.2942 77.5971 64.2942C77.5971 64.2936 77.5971 64.293 77.5977 64.293Z" fill="white"/>
<path d="M86.8439 57.3946C85.451 57.61 82.5033 57.7298 81.7575 57.7577C81.6792 57.7607 81.6239 57.6808 81.6546 57.6082C82.2625 56.1588 81.3861 54.5769 81.3861 54.5769C81.3861 54.5769 81.5209 56.7246 79.6934 57.8484C77.8611 58.9753 72.0765 59.057 70.9954 59.0624C70.9159 59.063 70.8642 58.9789 70.8991 58.9069C71.752 57.141 71.238 55.7884 71.238 55.7884C71.238 55.7884 69.7783 59.3293 66.284 60.4143C65.8229 60.5578 65.5147 60.9935 65.5195 61.4788C65.5394 63.2974 66.0715 67.4942 70.3008 69.8574C70.3008 69.8574 59.2943 69.717 57.8484 61.943C56.4026 54.1696 62.3865 53.2607 62.3865 53.2607C62.3865 53.2607 86.6645 47.3052 89.8349 51.706C92.9307 56.0027 88.0177 60.1941 88.0177 60.1941L87.4711 57.823C87.4037 57.5368 87.131 57.3504 86.8439 57.3946Z" fill="white"/>
<path d="M70.3 71.5809C70.2927 71.5809 70.2855 71.5809 70.2777 71.5809C70.1543 71.5791 67.2162 71.5301 64.0609 70.4462C59.6041 68.9158 56.8719 66.0848 56.1604 62.2589C55.5789 59.1339 55.9888 56.5528 57.3781 54.5878C59.0389 52.2392 61.4749 51.6715 62.0365 51.5693C62.7179 51.4035 68.4659 50.0261 74.6743 49.1244C78.5219 48.5658 81.7416 48.3104 84.2439 48.3661C87.92 48.4478 90.1375 49.1867 91.2216 50.6924C92.8745 52.9872 93.0082 55.7141 91.5978 58.3713C90.6305 60.1941 89.2761 61.3778 89.1244 61.5073C88.6682 61.8964 88.0434 62.0187 87.4751 61.8293C86.9069 61.6405 86.4783 61.1672 86.3429 60.5814L86.0305 59.2264C84.5021 59.3729 82.5067 59.4546 81.8187 59.48C81.4413 59.4933 81.0801 59.3923 80.7743 59.1968C80.7129 59.2379 80.6503 59.2785 80.5859 59.3184C79.9376 59.7172 78.6754 60.2825 75.2124 60.5923C73.3723 60.7569 71.6543 60.7823 71.0012 60.7854C70.9976 60.7854 70.994 60.7854 70.9904 60.7854C70.5654 60.7854 70.1651 60.6395 69.8461 60.3793C69.1268 60.9778 68.2648 61.5218 67.2475 61.9025C67.3529 63.7319 68.0475 66.624 71.1312 68.3475C71.8181 68.7312 72.1576 69.5349 71.9553 70.2986C71.7573 71.0563 71.0765 71.5809 70.3 71.5809ZM62.6511 54.9637C62.5241 54.9885 61.0602 55.3044 60.15 56.623C59.3416 57.7946 59.134 59.4776 59.5337 61.6253C60.1133 64.7425 62.7528 66.368 65.2762 67.2147C64.0338 64.9786 63.8165 62.7056 63.8032 61.4964C63.7894 60.2534 64.6008 59.1302 65.777 58.7653C68.384 57.9562 69.6023 55.2408 69.6541 55.1222C69.9165 54.471 70.5419 54.0541 71.2402 54.0541C71.245 54.0541 71.2498 54.0541 71.2546 54.0541C71.9607 54.0601 72.5873 54.5086 72.8389 55.1712C72.8889 55.3032 73.1724 56.1092 73.0894 57.2796C73.6516 57.253 74.2764 57.2143 74.9096 57.1574C77.8254 56.8966 78.6597 56.4614 78.797 56.3767C79.6541 55.8496 79.6728 54.8105 79.6716 54.6732C79.6011 53.8659 80.1026 53.1439 80.8736 52.9031C81.6489 52.661 82.4887 53.0247 82.8835 53.7376C82.9654 53.8858 83.4349 54.7754 83.5559 55.9489C84.7532 55.8823 85.9137 55.7939 86.5819 55.6905C87.3999 55.5634 88.1975 55.9017 88.6929 56.5141C89.2069 55.4091 89.4013 54.0462 88.4436 52.7167C88.3877 52.6392 86.937 50.8328 75.1871 52.5357C68.8752 53.4507 62.8516 54.9207 62.7914 54.9352C62.733 54.9497 62.7071 54.9558 62.6511 54.9637Z" fill="white"/>
<path d="M94.3281 51.832C90.2253 48.9847 78.7559 42.8398 71.083 40.0022C65.4608 45.4009 56.8976 54.358 53.791 58.6777C56.0615 56.1462 63.9566 53.1791 73.4853 51.5803C83.061 49.9741 91.4015 50.1563 94.3281 51.832Z" fill="white"/>
<path d="M53.7914 60.4023C53.4115 60.4023 53.0305 60.2764 52.7133 60.0186C52.0042 59.4425 51.8676 58.4094 52.4015 57.6669C55.7459 53.0168 64.8195 43.6325 69.8987 38.7548C70.3718 38.3004 71.0616 38.1563 71.6762 38.3833C79.7747 41.3782 91.2604 47.6072 95.303 50.4122C96.059 50.9368 96.2697 51.9668 95.7809 52.7493C95.2921 53.5312 94.2773 53.7878 93.4791 53.3303C92.9265 53.0138 91.1279 52.27 86.375 52.1992C82.6731 52.1442 78.3138 52.5181 73.768 53.2813C63.9618 54.9267 56.8131 57.8848 55.0657 59.8328C54.728 60.2092 54.2609 60.4023 53.7914 60.4023ZM71.4908 42.001C68.1133 45.2804 64.1453 49.3592 60.8527 52.9714C64.4608 51.6981 68.7171 50.6318 73.2039 49.8796C77.6421 49.1353 81.9279 48.7455 85.6575 48.7455C85.6774 48.7455 85.6972 48.7455 85.7171 48.7455C81.2332 46.3285 75.8579 43.7039 71.4908 42.001Z" fill="white"/>
<path d="M92.7917 71.2209C92.7917 71.2209 92.4076 70.0826 92.5455 68.885C92.6833 67.6873 92.9891 66.5986 92.9891 66.5986L102.281 66.9018C102.281 66.9018 102.406 68.8135 100.772 69.9034C99.1379 70.9934 95.622 72.5601 95.622 72.5601L92.7917 71.2209Z" fill="white"/>
<path d="M95.6219 74.2854C95.3721 74.2854 95.1223 74.2304 94.8912 74.1208L92.0615 72.781C91.6401 72.5813 91.3175 72.2182 91.1676 71.7746C91.1158 71.6203 90.6644 70.2241 90.8419 68.6858C90.9942 67.3672 91.3241 66.181 91.3379 66.1308C91.5516 65.3671 92.2553 64.8484 93.045 64.8745L102.337 65.1777C103.219 65.2067 103.935 65.9033 103.993 66.788C104.064 67.8688 103.665 70.0438 101.721 71.3401C99.986 72.4972 96.4659 74.07 96.3172 74.1366C96.0957 74.2358 95.8585 74.2854 95.6219 74.2854ZM94.2766 70.0172L95.6352 70.6605C96.8035 70.1176 98.6726 69.2075 99.7061 68.5436L94.3549 68.3687C94.3151 68.5956 94.2784 68.8377 94.2501 69.084C94.2134 69.3987 94.2357 69.7321 94.2766 70.0172Z" fill="white"/>
<path d="M83.689 76.9891C83.7552 78.1891 79.5591 80.6201 76.7529 80.7768C73.9466 80.9336 70.4692 78.2763 70.403 77.0768C70.3368 75.8774 71.525 72.7172 74.3313 72.5605C77.1381 72.4031 83.6228 75.789 83.689 76.9891Z" fill="white"/>
<path d="M76.504 82.5089C74.449 82.5089 72.5817 81.5068 71.6229 80.8865C70.567 80.2032 68.7817 78.8126 68.6908 77.1732C68.6306 76.0833 69.0917 74.629 69.8652 73.4677C70.93 71.8701 72.4824 70.9363 74.2365 70.8389C76.4625 70.7142 79.5642 72.1115 80.7934 72.7185C81.8877 73.2583 82.8593 73.8314 83.6027 74.3755C84.4081 74.9643 85.3399 75.7831 85.4019 76.8942C85.4753 78.2207 84.375 79.5291 82.1315 80.7824C80.3606 81.7718 78.3857 82.4139 76.8483 82.4998C76.7333 82.5053 76.6184 82.5089 76.504 82.5089ZM72.1309 76.8258C72.3289 77.0951 72.8767 77.6428 73.7898 78.1771C74.8198 78.7793 75.8647 79.0994 76.6575 79.0552C77.5484 79.0056 78.7938 78.6177 79.9892 78.0186C80.6538 77.6851 81.154 77.3632 81.4995 77.1018C80.9391 76.703 80.0259 76.1492 78.7528 75.5616C76.5822 74.5601 75.0659 74.2466 74.4267 74.2823C72.8857 74.3682 72.2344 76.2001 72.1309 76.8258Z" fill="white"/>
<path d="M85.095 78.2995C85.095 78.2995 86.7684 79.6587 89.6727 79.2411C93.2537 78.7261 96.9598 72.3204 96.9598 72.3204L92.1238 70.1479C92.1238 70.1479 90.2458 73.3286 89.1123 73.4981C87.6418 73.7183 82.1485 71.2263 82.1485 71.2263L81.3768 69.5239C78.6115 70.445 77.9295 72.6539 77.9295 72.6539C76.7135 70.5721 73.0351 70.0964 73.0351 70.0964L72.6715 71.964C72.6498 72.0747 71.3262 73.4702 71.3262 73.4702" fill="white"/>
<path d="M88.5677 81.0468C85.8379 81.0468 84.2169 79.8038 84.0171 79.6416L86.1732 76.9583C86.1732 76.9583 86.1648 76.951 86.1485 76.9389C86.1973 76.9753 87.3675 77.831 89.4297 77.5344C90.4283 77.391 91.8429 76.2932 93.3098 74.5225C93.7276 74.0184 94.1032 73.5167 94.4204 73.0695L92.7579 72.3227C92.6495 72.477 92.5345 72.6368 92.4141 72.7978C91.2765 74.3174 90.3362 75.0599 89.3653 75.2051C88.6917 75.3062 87.583 75.2487 84.4691 74.0577C82.8818 73.4508 81.501 72.8256 81.4426 72.7996C81.0634 72.6277 80.7594 72.3233 80.5872 71.9427L80.5637 71.89C79.8637 72.4565 79.6067 73.0695 79.5639 73.1809C79.3803 73.8441 78.8302 74.3034 78.15 74.396C77.465 74.4892 76.8004 74.1279 76.4501 73.5282C76.1034 72.9346 75.2269 72.4867 74.3752 72.1938L74.3553 72.2961C74.2488 72.845 73.9767 73.1409 73.2508 73.9301C72.9119 74.298 72.582 74.6466 72.5682 74.6611C71.9145 75.3504 70.8286 75.3764 70.143 74.7192C69.4573 74.062 69.4315 72.9703 70.0852 72.281C70.4271 71.9209 70.8286 71.487 71.0693 71.2165L71.3517 69.7665C71.525 68.8745 72.3575 68.2711 73.2544 68.3873C73.5873 68.4303 75.8078 68.7553 77.6203 69.9565C78.3582 69.1492 79.4098 68.3637 80.8382 67.8887C81.6701 67.6115 82.5754 68.0091 82.939 68.811L83.4404 69.9166C85.6495 70.8818 87.9321 71.6837 88.7483 71.7799C89.1835 71.4247 90.0359 70.3069 90.6505 69.2685C91.0953 68.5168 92.0301 68.2179 92.8247 68.5749L97.6607 70.7475C98.1049 70.9472 98.4444 71.3272 98.5937 71.7932C98.7429 72.2592 98.6888 72.7663 98.4438 73.1899C98.4029 73.2601 97.4289 74.9352 95.9806 76.6908C93.8769 79.241 91.8363 80.6746 89.9167 80.9506C89.4406 81.0166 88.9909 81.0468 88.5677 81.0468Z" fill="white"/>
<path d="M70.538 103.381C70.538 103.381 69.3973 105.868 68.9609 106.878C68.4191 108.133 72.1987 109.001 73.7469 107.421C75.2951 105.841 76.0541 103.194 76.0541 103.194L70.538 103.381Z" fill="white"/>
<path d="M71.3424 110C70.221 110 69.126 109.706 68.3814 109.201C67.304 108.47 66.9145 107.289 67.3882 106.192C67.827 105.176 68.934 102.761 68.981 102.659C69.2524 102.067 69.8327 101.679 70.481 101.658L75.9966 101.471C76.5455 101.452 77.0698 101.699 77.4075 102.135C77.7452 102.571 77.8548 103.142 77.7025 103.673C77.6122 103.987 76.7707 106.794 74.9691 108.632C74.1468 109.471 72.9261 109.956 71.5314 109.997C71.4688 109.999 71.4056 110 71.3424 110ZM70.9932 106.531C71.5422 106.587 72.2272 106.515 72.5252 106.21C72.855 105.874 73.1512 105.45 73.4064 105.009L71.6554 105.068C71.4543 105.511 71.2124 106.044 70.9932 106.531Z" fill="white"/>
<path d="M70.6386 102.878C70.6386 102.878 69.6099 105.522 69.1241 106.504C68.6383 107.487 72.2987 108.497 73.8469 106.918C75.3951 105.338 76.1542 102.691 76.1542 102.691L70.6386 102.878Z" fill="white"/>
<path d="M71.5341 109.465C70.3164 109.465 69.1498 109.117 68.4251 108.597C67.2772 107.774 67.1772 106.567 67.5878 105.737C67.958 104.989 68.7622 102.966 69.0409 102.25C69.2907 101.608 69.8962 101.177 70.5806 101.154L76.0962 100.968C76.6446 100.949 77.1695 101.196 77.5072 101.632C77.8448 102.067 77.9544 102.639 77.8021 103.169C77.7118 103.483 76.8703 106.29 75.0687 108.129C74.1303 109.086 72.8042 109.465 71.5341 109.465ZM71.2277 106.001C71.3312 106.011 71.4426 106.017 71.5588 106.015C72.0343 106.011 72.4424 105.893 72.6248 105.707C72.9547 105.371 73.2508 104.947 73.5061 104.506L71.817 104.563C71.6424 104.999 71.4324 105.515 71.2277 106.001Z" fill="white"/>
<path d="M86.2275 102.167C86.2275 102.167 87.6463 104.466 88.4192 105.998C88.9128 106.976 84.5415 108.058 82.7062 106.828C81.5848 106.077 80.8359 102.298 80.8359 102.298L86.2275 102.167Z" fill="white"/>
<path d="M85.0098 109.101C84.0334 109.101 82.7657 108.94 81.7551 108.263C80.9232 107.705 80.2948 106.638 79.7157 104.802C79.3636 103.685 79.1625 102.677 79.1541 102.635C79.0554 102.135 79.1806 101.617 79.4972 101.22C79.8138 100.822 80.2887 100.585 80.795 100.573L86.1866 100.443C86.7939 100.428 87.3652 100.738 87.686 101.258C87.7456 101.354 89.1529 103.639 89.9499 105.218C90.3935 106.097 90.1708 107.12 89.3829 107.823C88.3319 108.761 86.4346 109.007 85.8784 109.06C85.6358 109.083 85.339 109.101 85.0098 109.101ZM83.703 105.42C83.9817 105.576 84.6053 105.699 85.4359 105.636C85.7213 105.614 85.9849 105.574 86.2155 105.527C85.8886 104.946 85.5467 104.365 85.2782 103.915L83.0535 103.969C83.2822 104.655 83.5224 105.207 83.703 105.42Z" fill="white"/>
<path d="M86.1377 101.677C86.1377 101.677 87.1881 104.012 88.1686 105.479C88.7772 106.39 84.4516 107.568 82.6163 106.338C81.4949 105.586 80.7461 101.807 80.7461 101.807L86.1377 101.677Z" fill="white"/>
<path d="M84.814 108.591C83.8515 108.591 82.6422 108.428 81.6652 107.773C80.8333 107.216 80.2043 106.148 79.6259 104.312C79.2737 103.195 79.0727 102.187 79.0642 102.144C78.9655 101.645 79.0907 101.127 79.4074 100.729C79.724 100.332 80.1989 100.095 80.7051 100.083L86.0967 99.9524C86.7859 99.936 87.4174 100.335 87.7015 100.966C87.7177 101.002 88.7085 103.194 89.5928 104.517C90.1568 105.361 90.0322 106.436 89.2822 107.193C88.3263 108.158 86.5416 108.452 85.818 108.534C85.5435 108.565 85.1986 108.591 84.814 108.591ZM83.6131 104.93C83.8798 105.078 84.4751 105.19 85.2697 105.122C85.496 105.103 85.7085 105.072 85.9005 105.035C85.5839 104.461 85.2949 103.891 85.0674 103.428L82.9636 103.479C83.1924 104.164 83.4325 104.717 83.6131 104.93Z" fill="white"/>
<path d="M85.2488 79.7905L72.7092 81.4632C72.5762 81.4807 72.4817 81.6012 72.4931 81.7349C73.378 91.7462 69.1367 101.693 68.5986 103.345C68.5546 103.479 68.6293 103.624 68.7635 103.664C71.9784 104.631 77.0606 104.3 78.1279 104.216C78.2452 104.207 78.3398 104.117 78.356 104L78.6473 101.882C78.6889 101.578 79.1325 101.6 79.1452 101.906L79.2258 103.891C79.2312 104.029 79.3468 104.138 79.484 104.132C82.398 104.025 85.1465 103.641 87.0986 102.733C87.1829 102.694 87.24 102.611 87.2449 102.518C87.9533 89.9488 86.0368 81.2859 85.5143 79.9466C85.4721 79.8401 85.3626 79.7754 85.2488 79.7905Z" fill="white"/>
<path d="M74.8646 106.066C72.7921 106.066 70.2543 105.914 68.2709 105.316C67.7671 105.165 67.3379 104.809 67.0941 104.34C66.8497 103.871 66.804 103.313 66.9677 102.809C67.0376 102.594 67.1447 102.304 67.2934 101.902C68.3426 99.0578 71.5365 90.4021 70.784 81.8886C70.6907 80.8308 71.4371 79.8934 72.4833 79.7542L85.0211 78.0815C85.9204 77.9611 86.7794 78.4694 87.1111 79.3185C87.8484 81.2084 89.6549 90.2405 88.9572 102.617C88.9163 103.347 88.4799 103.992 87.8183 104.3C85.8488 105.216 83.1431 105.726 79.5459 105.857C79.322 105.866 79.1053 105.836 78.9018 105.773C78.7026 105.862 78.4865 105.919 78.2607 105.937C77.6383 105.985 76.3749 106.066 74.8646 106.066ZM70.7876 102.345C72.6278 102.63 74.9073 102.66 76.8203 102.57L76.9473 101.646C77.0876 100.625 77.9658 99.8936 78.9891 99.9432C80.013 99.9928 80.8166 100.807 80.8581 101.836L80.878 102.33C82.7988 102.187 84.3722 101.905 85.5791 101.489C85.8662 95.3324 85.5033 90.364 85.1361 87.2238C84.8417 84.7014 84.4818 82.8 84.2175 81.6684L74.2939 82.9925C74.6551 91.1126 72.0264 98.9338 70.7876 102.345ZM85.4744 81.5001H85.472C85.4732 81.5007 85.4738 81.5001 85.4744 81.5001ZM85.4756 81.5001H85.475C85.475 81.5001 85.475 81.5001 85.4756 81.5001Z" fill="white"/>
<path d="M62.9338 87.7007L62.8538 87.7219C62.8538 87.7219 60.0222 88.6514 59.5497 88.9116C58.3157 89.5918 56.5268 91.1029 56.3763 91.3504C56.2571 91.5465 56.7603 92.6485 58.1406 91.9544C59.2204 91.411 59.9753 90.9607 60.437 90.8312C60.5802 90.7913 60.7072 90.9335 60.6537 91.0727C60.5465 91.3523 60.4364 91.69 60.3401 91.9586C60.0156 92.8646 60.4315 93.4704 61.122 93.2295C61.8455 92.9771 62.4198 91.8158 63.065 91.6095C63.7097 91.4031 65.1171 90.8137 65.0153 89.351C64.9136 87.8883 62.9338 87.7007 62.9338 87.7007Z" fill="white"/>
<path d="M60.8264 95.0087C60.2154 95.0087 59.6436 94.7763 59.2072 94.3321C58.9947 94.1161 58.8297 93.8649 58.7142 93.5884C57.1961 94.2619 55.9657 93.7584 55.306 93.0365C54.6005 92.2649 54.4428 91.2264 54.9129 90.4512C55.0092 90.292 55.2103 89.9604 56.493 88.9401C56.9673 88.5625 57.8877 87.8605 58.7262 87.3987C59.0055 87.2444 59.8566 86.891 62.3228 86.0819C62.3559 86.071 62.389 86.0613 62.4227 86.0522L62.5028 86.0311C62.696 85.9802 62.897 85.9639 63.0963 85.9832C64.7474 86.1394 66.5881 87.2226 66.7284 89.23C66.8542 91.0364 65.7364 92.513 63.7301 93.2053C63.6447 93.2858 63.508 93.4365 63.4123 93.5424C62.9915 94.0072 62.4679 94.5863 61.6859 94.8586C61.397 94.9597 61.1075 95.0087 60.8264 95.0087ZM61.9815 89.8345C62.0525 89.9259 62.1139 90.0221 62.1669 90.1226C62.2861 90.0621 62.4119 90.0094 62.5455 89.9665C62.932 89.843 63.1306 89.705 63.2143 89.6336C63.245 89.6076 63.266 89.5882 63.2799 89.5719C63.2143 89.5386 63.127 89.5053 63.0349 89.4775C62.6846 89.5943 62.3228 89.7165 61.9815 89.8345Z" fill="white"/>
<path d="M72.7923 72.0269C72.7923 72.0269 69.8928 73.9822 69.2162 75.1217C66.6302 79.4752 64.5415 83.056 61.6504 87.6238L65.1561 90.1419C67.4699 87.9724 70.0625 84.3922 72.3667 80.6874" fill="white"/>
<path d="M65.1545 91.8661C64.8066 91.8661 64.4575 91.7602 64.1577 91.5448L60.652 89.0267C59.9104 88.4935 59.7124 87.4708 60.2018 86.6974C62.6402 82.8455 64.4713 79.7555 66.5914 76.1772C66.9664 75.5442 67.3486 74.8997 67.7417 74.237C68.5525 72.8717 71.08 71.1035 71.8355 70.5939C72.6222 70.0632 73.6882 70.2744 74.2155 71.0653C74.7434 71.8563 74.5334 72.928 73.7466 73.4582C72.3712 74.3871 70.9416 75.5768 70.6876 76.0047C70.2945 76.6661 69.9135 77.31 69.5391 77.9418C67.6634 81.1075 66.0117 83.8943 63.9657 87.167L64.9673 87.8865C66.7316 85.9851 68.8017 83.1632 70.9109 79.7719C71.4135 78.964 72.4717 78.7189 73.2753 79.2236C74.0789 79.7283 74.3227 80.7928 73.8201 81.6001C71.9318 84.6362 69.099 88.801 66.3253 91.4014C65.9979 91.71 65.5771 91.8661 65.1545 91.8661Z" fill="white"/>
<path d="M71.5822 78.8949C72.6375 89.9471 68.584 100.486 68.584 100.486C69.6916 100.732 70.772 100.918 71.8206 101.054C72.4135 99.2001 74.2982 94.7775 75.0055 88.3936C75.0055 88.3936 75.1963 94.3944 74.6828 101.314C82.348 101.712 87.6541 99.6122 87.6541 99.6122C88.4956 85.8198 85.5485 77.0286 85.5485 77.0286" fill="white"/>
<path d="M76.6262 103.089C75.9689 103.089 75.2911 103.073 74.5941 103.037C74.133 103.013 73.7008 102.803 73.3956 102.455C73.3059 102.352 73.2295 102.241 73.1675 102.123C72.8027 102.588 72.2128 102.845 71.6006 102.765C70.4666 102.617 69.3277 102.418 68.2147 102.171C67.726 102.062 67.3094 101.745 67.0728 101.302C66.8363 100.859 66.8044 100.333 66.9844 99.8645C66.994 99.8397 67.9764 97.2562 68.8191 93.3977C69.589 89.8708 70.3968 84.5205 69.8755 79.0601C69.7852 78.1118 70.4762 77.2694 71.4195 77.1786C72.3627 77.0878 73.2006 77.7825 73.2909 78.7308C73.8573 84.6639 72.9857 90.4221 72.155 94.2074C72.0623 94.628 71.969 95.034 71.8751 95.4244C72.4385 93.4491 72.9881 91.0327 73.3011 88.2035C73.401 87.3042 74.1715 86.6349 75.0738 86.6712C75.9731 86.7069 76.6919 87.435 76.7207 88.3397C76.728 88.5666 76.8785 93.5133 76.5143 99.64C76.5432 99.64 76.5715 99.64 76.5998 99.64C80.9957 99.64 84.3937 98.8218 86.0045 98.3437C86.2994 91.9628 85.7619 86.8013 85.24 83.5256C84.6399 79.7578 83.9296 77.5998 83.9224 77.5786C83.622 76.6757 84.106 75.6984 85.0034 75.3958C85.9009 75.0932 86.8725 75.5773 87.1746 76.479C87.2992 76.8512 90.2193 85.7508 89.3669 99.7186C89.326 100.388 88.9034 100.973 88.2828 101.218C88.0715 101.301 83.4649 103.089 76.6262 103.089Z" fill="white"/>
<path d="M101.876 57.0618L97.7559 61.4698L98.6178 61.6429L104.993 57.1023" fill="white"/>
<path d="M98.6171 63.3675C98.5052 63.3675 98.3926 63.3566 98.2813 63.3342L97.4193 63.1612C96.8083 63.0383 96.3111 62.5923 96.1209 61.9956C95.9307 61.3989 96.0776 60.7453 96.5043 60.289L100.624 55.881C101.273 55.1869 102.358 55.153 103.049 55.8054C103.165 55.9143 103.262 56.0359 103.341 56.1654L104.001 55.6952C104.774 55.1445 105.845 55.3285 106.392 56.1055C106.94 56.8825 106.757 57.9591 105.984 58.5098L99.6085 63.0504C99.3166 63.258 98.9699 63.3675 98.6171 63.3675Z" fill="white"/>
<path d="M105.908 65.0336C105.971 66.1937 102.537 67.329 98.2364 67.5693C93.9355 67.8095 90.3967 67.0639 90.3329 65.9038C90.2685 64.7437 93.7032 63.6084 98.0041 63.3682C102.305 63.1273 105.844 63.8735 105.908 65.0336Z" fill="white"/>
<path d="M96.6486 69.3387C95.0492 69.3387 93.5613 69.2062 92.3441 68.9496C91.4478 68.7608 90.7111 68.506 90.1531 68.1925C88.8854 67.4803 88.6488 66.5126 88.6205 65.9994C88.5922 65.4862 88.7211 64.4986 89.9021 63.649C90.4221 63.275 91.1264 62.9397 91.9962 62.6522C93.5835 62.1276 95.6837 61.7699 97.9097 61.6458C100.135 61.5212 102.262 61.6428 103.897 61.9878C104.793 62.1766 105.53 62.4314 106.088 62.7448C107.356 63.4571 107.592 64.4248 107.621 64.938C107.649 65.4511 107.52 66.4388 106.339 67.2884C105.819 67.6624 105.115 67.9977 104.245 68.2851C102.658 68.8098 100.558 69.1675 98.3322 69.2915C97.7622 69.323 97.1988 69.3387 96.6486 69.3387ZM93.8243 65.7083C94.906 65.8614 96.3681 65.9462 98.1414 65.8469C99.9141 65.7477 101.358 65.5008 102.417 65.2284C101.335 65.0753 99.8726 64.9906 98.0999 65.0899C96.3266 65.1891 94.8825 65.436 93.8243 65.7083Z" fill="white"/>
<path d="M102.774 60.4705C102.917 63.0636 100.854 65.287 98.1658 65.4377C95.4775 65.5878 93.1823 63.6076 93.0391 61.0145L102.774 60.4705Z" fill="white"/>
<path d="M97.8772 67.1703C96.2718 67.1703 94.7417 66.6069 93.5318 65.5636C92.2057 64.4192 91.4226 62.8379 91.3269 61.1101C91.3016 60.6532 91.4581 60.2054 91.7615 59.8647C92.0648 59.524 92.4904 59.3182 92.9449 59.2928L102.679 58.7488C103.626 58.6961 104.435 59.4241 104.488 60.3755C104.683 63.9139 101.89 66.9573 98.2624 67.16C98.1336 67.1667 98.0048 67.1703 97.8772 67.1703ZM95.4315 62.6085C95.5326 62.7284 95.6446 62.8409 95.7668 62.9462C96.3976 63.4903 97.2163 63.7638 98.0722 63.716C99.131 63.6567 100.042 63.1102 100.573 62.3217L95.4315 62.6085Z" fill="white"/>
<path d="M88.6513 50.1101C85.4598 48.4265 82.2635 46.7478 79.0792 45.0569C76.3898 43.6293 73.5944 42.3119 71.0078 40.776C71.3377 40.4534 71.626 40.6913 71.8915 40.8165C79.943 43.8188 85.2696 47.1333 91.9126 50.4478C90.8261 50.3358 89.7384 50.2226 88.6513 50.1101Z" fill="white"/>
<path d="M91.9151 52.1731C91.8561 52.1731 91.7971 52.1701 91.7375 52.1641L88.4762 51.8258C88.2589 51.8034 88.0482 51.7392 87.855 51.6376C86.9027 51.1353 85.9505 50.6336 84.9976 50.1313C82.7939 48.97 80.5156 47.7699 78.2787 46.5826C77.3879 46.1094 76.4639 45.6379 75.57 45.1822C73.766 44.2618 71.9012 43.3099 70.1363 42.2617C69.6758 41.9882 69.3688 41.5149 69.305 40.9812C69.2418 40.4474 69.4296 39.9143 69.8131 39.5397C70.3079 39.0567 70.9417 38.8304 71.5978 38.9036C72.0469 38.9533 72.3876 39.1336 72.5711 39.2298C72.5736 39.231 72.576 39.2322 72.5784 39.2341C78.4033 41.4127 82.9137 43.7976 87.2766 46.1045C89.0125 47.0226 90.8075 47.9715 92.6766 48.904C93.42 49.275 93.7926 50.1271 93.562 50.9283C93.3477 51.6715 92.6705 52.1731 91.9151 52.1731Z" fill="white"/>
<path d="M85.277 99.5973C85.8856 96.0516 86.021 92.3523 86.0668 88.7624C86.1167 84.8197 85.2752 81.0453 84.0346 77.1595C83.9221 76.8073 83.7168 76.7238 84.3031 76.4648C84.6227 76.3238 85.2295 78.0703 85.6785 79.4549C86.818 82.6551 87.001 85.8195 87.2761 88.484C87.302 88.7358 87.2725 89.5509 87.2899 89.8033C87.55 93.568 87.5578 95.3932 87.1406 98.3016C87.0305 99.0738 86.5194 99.8963 85.277 99.5973Z" fill="white"/>
<path d="M85.7733 101.385C85.5 101.385 85.2015 101.352 84.8776 101.275C83.9976 101.063 83.433 100.201 83.5865 99.3043C84.1854 95.8161 84.3082 92.1658 84.3509 88.7411C84.3925 85.4538 83.7923 82.0492 82.4054 77.7023C82.4012 77.692 82.397 77.6823 82.3928 77.6732C82.1286 77.0662 82.1243 76.4919 82.3802 75.9654C82.7106 75.2846 83.3433 75.0056 83.6135 74.8864C84.0819 74.6801 84.6206 74.6831 85.0919 74.8955C85.9473 75.2804 86.3825 76.0677 87.3016 78.8981C88.3598 81.8815 88.6361 84.7446 88.8799 87.2718C88.9142 87.6246 88.9473 87.9695 88.9822 88.3072C89.0045 88.5245 89.0045 88.801 89.0009 89.2307C88.9997 89.385 88.9979 89.6168 89.0015 89.6894C89.2555 93.364 89.2886 95.4082 88.8384 98.5497C88.6951 99.547 88.2112 100.373 87.4744 100.875C87.1018 101.128 86.536 101.385 85.7733 101.385Z" fill="white"/>
<path d="M100.002 64.3872C101.373 62.6207 101.474 61.0781 101.474 61.0781C101.474 61.0781 101.977 61.0388 102.229 61.0376C102.149 62.2982 101.289 63.8952 100.002 64.3872Z" fill="white"/>
<path d="M100.003 66.1125C99.4702 66.1125 98.9537 65.862 98.6226 65.4117C98.1651 64.789 98.1766 63.9364 98.6503 63.3263C99.5911 62.1142 99.7458 61.0939 99.7633 60.9523C99.797 60.0796 100.473 59.4272 101.341 59.3589C101.435 59.3516 101.923 59.3141 102.225 59.3135C102.226 59.3135 102.228 59.3135 102.23 59.3135C102.703 59.3135 103.155 59.5096 103.479 59.8563C103.805 60.2043 103.972 60.6721 103.942 61.1483C103.826 62.9705 102.645 65.2217 100.613 65.9994C100.414 66.0756 100.208 66.1125 100.003 66.1125Z" fill="white"/>
<path d="M75.1764 61.7594C86.8278 59.8047 95.895 55.942 95.4285 53.1318C94.9621 50.3217 85.1387 49.6281 73.4873 51.5828C61.8359 53.5375 52.7687 57.4002 53.2352 60.2104C53.7016 63.0205 63.525 63.7141 75.1764 61.7594Z" fill="#805622"/>
<path d="M63.0094 63.4058C61.941 63.4058 60.9249 63.3725 59.9732 63.3053C57.908 63.1595 56.2478 62.8599 55.0373 62.4151C53.639 61.9007 52.8547 61.1878 52.7066 60.2958C52.5585 59.4038 53.0702 58.4737 54.2265 57.5308C55.2275 56.715 56.7011 55.8896 58.6074 55.0775C62.4701 53.432 67.7226 52.0014 73.3977 51.0495C79.0728 50.0975 84.5029 49.7356 88.6876 50.031C90.7528 50.1768 92.413 50.4764 93.6235 50.9212C95.0218 51.4356 95.8061 52.1484 95.9542 53.0405C96.1023 53.9325 95.5906 54.8626 94.4343 55.8055C93.4333 56.6212 91.9597 57.4467 90.0534 58.2588C86.1907 59.9043 80.9382 61.3349 75.2631 62.2868C70.8792 63.0227 66.6403 63.4058 63.0094 63.4058ZM85.6472 51.0065C82.0783 51.0065 77.9026 51.3847 73.5741 52.1109C67.9796 53.0495 62.8126 54.4553 59.0252 56.0687C54.9386 57.8098 53.627 59.3027 53.7624 60.1191C53.8978 60.9355 55.6206 61.9195 60.0479 62.2323C64.1513 62.5222 69.4923 62.1646 75.0867 61.226C80.6812 60.2873 85.8482 58.8815 89.6356 57.2682C93.7222 55.5271 95.0338 54.0341 94.8984 53.2178C94.763 52.4014 93.0402 51.4174 88.6129 51.1051C87.6841 51.0392 86.6915 51.0065 85.6472 51.0065Z" fill="black"/>
<path d="M69.6912 68.8631C69.5799 71.3958 66.9031 73.3341 63.7122 73.1925C60.5213 73.0509 58.025 70.8826 58.1364 68.3493C58.2478 65.8167 60.9246 63.8784 64.1155 64.02C67.3064 64.1622 69.8026 66.3305 69.6912 68.8631Z" fill="black"/>
<path d="M65.2195 73.3062C65.3266 75.2494 63.6093 76.9257 61.3827 77.0498C59.1561 77.1744 57.2642 75.6997 57.1571 73.7565C57.05 71.8133 58.7673 70.137 60.9939 70.0129C63.2204 69.8888 65.1123 71.363 65.2195 73.3062Z" fill="black"/>
<path d="M62.06 77.4263C62.1341 78.768 60.9705 79.9245 59.4608 80.0086C57.9512 80.0927 56.6672 79.0736 56.5932 77.7319C56.5192 76.3903 57.6827 75.2338 59.1924 75.1497C60.702 75.065 61.986 76.0841 62.06 77.4263Z" fill="black"/>
<path d="M58.6507 79.4517C59.8239 79.1557 60.9507 79.7421 61.2962 81.3113C61.6044 82.7111 60.8008 84.5599 61.4124 84.9738C60.2356 84.9962 57.7412 84.5726 57.117 82.3522C56.7287 80.9724 57.4775 79.7476 58.6507 79.4517Z" fill="black"/>
<path d="M80.5568 67.6686L73.1797 68.0808L73.632 76.2613L81.0091 75.849L80.5568 67.6686Z" fill="#F2C598"/>
<path d="M73.1532 76.7951L72.6445 67.5978L81.0326 67.1294L81.5412 76.3261L73.1532 76.7951ZM73.7124 68.5582L74.1084 75.7216L80.474 75.3657L80.0779 68.2024L73.7124 68.5582Z" fill="black"/>
<path d="M88.0053 56.8944C88.0053 56.8944 87.8018 60.503 87.5261 63.1579C87.1945 66.3477 84.0433 69.8547 77.3702 70.1748C69.3144 70.5609 66.2542 68.625 64.8733 60.8794C63.4419 52.8501 75.3525 52.8228 75.3525 52.8228L86.9489 52.3345L88.0053 56.8944Z" fill="#F2C598"/>
<path d="M75.5756 70.7296C72.2017 70.7296 69.9788 70.1862 68.3222 68.9898C66.3232 67.5464 65.1055 65.0731 64.3735 60.9689C64.0148 58.9555 64.4144 57.2332 65.5617 55.8516C68.424 52.4039 74.937 52.3156 75.3397 52.3132L87.346 51.8079L88.5143 56.8501L88.5101 56.9233C88.5083 56.9596 88.3031 60.5743 88.0286 63.211C87.8353 65.0701 86.8084 66.8221 85.138 68.1431C83.2281 69.6536 80.5495 70.5323 77.3929 70.6836C76.7524 70.7139 76.1475 70.7296 75.5756 70.7296ZM86.5496 52.8608L75.3625 53.3317H75.3523C75.2885 53.3317 68.9248 53.3873 66.3376 56.5058C65.392 57.6453 65.0663 59.0868 65.3703 60.7891C66.0517 64.612 67.1442 66.8856 68.9127 68.1625C70.6493 69.4164 73.1715 69.866 77.3447 69.6657C80.2894 69.5247 82.7676 68.7211 84.5114 67.3419C85.9651 66.1921 86.856 64.6876 87.0209 63.1045C87.2713 60.6978 87.4639 57.4619 87.494 56.9379L86.5496 52.8608Z" fill="black"/>
<path d="M73.0945 62.1654C73.1415 63.015 72.4944 63.7418 71.6493 63.7896C70.8041 63.8369 70.0812 63.1863 70.0337 62.3366C69.9867 61.487 70.6338 60.7602 71.4789 60.7124C72.3246 60.6652 73.0482 61.3157 73.0945 62.1654Z" fill="black"/>
<path d="M83.868 61.3507C83.9149 62.2004 83.2678 62.9272 82.4227 62.9744C81.5776 63.0216 80.8546 62.3711 80.8071 61.5214C80.7601 60.6717 81.4072 59.9449 82.2523 59.8971C83.0981 59.8505 83.821 60.5011 83.868 61.3507Z" fill="black"/>
<path d="M77.3329 66.4674C75.937 66.4674 75.087 65.57 75.0503 65.5294C74.8595 65.3237 74.8703 65.0017 75.075 64.8099C75.2791 64.6186 75.5975 64.6289 75.7889 64.8323C75.8196 64.8643 76.4547 65.5137 77.4882 65.4435C78.4519 65.3781 78.7222 64.7385 78.733 64.7112L78.73 64.7191L79.6805 65.0713C79.6612 65.1234 79.1941 66.3488 77.5562 66.4602C77.4804 66.465 77.4057 66.4674 77.3329 66.4674Z" fill="black"/>
<path d="M86.8439 57.3948C85.451 57.6102 82.5033 57.7301 81.7575 57.7579C81.6792 57.7609 81.6239 57.681 81.6546 57.6084C82.2625 56.1591 81.3861 54.5771 81.3861 54.5771C81.3861 54.5771 81.5209 56.7249 79.6934 57.8487C77.8611 58.9755 72.0765 59.0572 70.9954 59.0626C70.9159 59.0632 70.8642 58.9791 70.8991 58.9071C71.752 57.1412 71.238 55.7887 71.238 55.7887C71.238 55.7887 69.7783 59.3295 66.284 60.4146C65.8229 60.558 65.5147 60.9937 65.5195 61.4791C65.5394 63.2976 66.0715 67.4944 70.3008 69.8576C70.3008 69.8576 59.2943 69.7172 57.8484 61.9432C56.4026 54.1699 62.3865 53.2609 62.3865 53.2609C62.3865 53.2609 86.6645 47.3055 89.8349 51.7062C92.9307 56.0029 88.0177 60.1943 88.0177 60.1943L87.4711 57.8233C87.4037 57.537 87.131 57.3506 86.8439 57.3948Z" fill="black"/>
<path d="M94.33 51.832C90.2272 48.9847 78.7578 42.8398 71.0849 40.0022C65.4628 45.4009 56.8996 54.358 53.793 58.6777C56.0635 56.1462 63.9585 53.1791 73.4873 51.5803C83.0629 49.9741 91.4034 50.1563 94.33 51.832Z" fill="#C88C45"/>
<path d="M53.7929 59.2156C53.6744 59.2156 53.5558 59.1763 53.4565 59.0958C53.2355 58.9161 53.1928 58.5941 53.3589 58.3623C56.3476 54.2061 64.6953 45.3936 70.7153 39.6131C70.8628 39.4714 71.0783 39.4261 71.2697 39.4975C79.0034 42.3575 90.5938 48.5859 94.634 51.3896C94.8699 51.553 94.9356 51.8743 94.7833 52.1188C94.631 52.3627 94.3144 52.4426 94.0652 52.3004C92.7096 51.5246 89.9858 51.0677 86.394 51.0144C82.6223 50.9581 78.1902 51.3382 73.5751 52.1122C69.004 52.8789 64.6905 53.9767 61.1005 55.2863C57.7031 56.5257 55.249 57.8582 54.1902 59.0395C54.0855 59.1557 53.9398 59.2156 53.7929 59.2156ZM71.2131 40.6237C66.4361 45.2284 60.2849 51.6407 56.5276 56.0936C57.9018 55.3722 59.4271 54.7513 60.7363 54.2738C64.3865 52.9425 68.765 51.8277 73.3993 51.0501C80.2885 49.8942 86.6402 49.6383 90.8195 50.2567C85.6807 47.2212 77.3162 42.9215 71.2131 40.6237Z" fill="black"/>
<path d="M92.7917 71.2209C92.7917 71.2209 92.4076 70.0826 92.5455 68.885C92.6833 67.6873 92.9891 66.5986 92.9891 66.5986L102.281 66.9018C102.281 66.9018 102.406 68.8135 100.772 69.9034C99.1379 70.9934 95.622 72.5601 95.622 72.5601L92.7917 71.2209Z" fill="#F2C598"/>
<path d="M95.6155 73.1204L92.3819 71.5894L92.3126 71.3842C92.2952 71.3334 91.8937 70.1224 92.043 68.8262C92.1844 67.6025 92.489 66.5066 92.5016 66.4606L92.6094 66.0769L102.756 66.4079L102.786 66.8685C102.792 66.9586 102.909 69.0888 101.052 70.3282C99.4011 71.429 95.9718 72.9619 95.8268 73.026L95.6155 73.1204ZM93.2143 70.8577L95.6269 71.9997C96.4046 71.6463 99.1392 70.3815 100.492 69.4792C101.41 68.8667 101.675 67.9432 101.749 67.3937L93.3793 67.1208C93.2812 67.5311 93.1325 68.2204 93.0488 68.9436C92.9585 69.7291 93.1216 70.5037 93.2143 70.8577Z" fill="black"/>
<path d="M83.689 76.9893C83.7552 78.1894 79.5591 80.6203 76.7529 80.7771C73.9466 80.9338 70.4692 78.2765 70.403 77.0771C70.3368 75.8776 71.525 72.7175 74.3313 72.5607C77.1381 72.4034 83.6228 75.7893 83.689 76.9893Z" fill="#F36527"/>
<path d="M76.5185 81.2928C75.2219 81.2928 73.6924 80.7802 72.2766 79.864C71.1606 79.142 69.9489 78.0376 69.8977 77.105C69.8604 76.4369 70.1487 75.2248 70.8692 74.144C71.4694 73.2435 72.5523 72.1499 74.3033 72.0519C76.3018 71.9399 79.368 73.3687 80.2607 73.8087C81.2792 74.311 82.2134 74.8611 82.8912 75.3573C84.0259 76.187 84.1782 76.6699 84.1944 76.961C84.254 78.0394 82.5595 79.1523 81.5441 79.7194C79.9248 80.6241 78.1443 81.2093 76.7809 81.2855C76.6942 81.2904 76.6069 81.2928 76.5185 81.2928ZM74.5266 73.0643C74.4689 73.0643 74.4129 73.0655 74.3593 73.0686C73.0248 73.143 72.1821 74.0029 71.7102 74.711C71.1516 75.5491 70.8801 76.541 70.9084 77.0488C70.9252 77.3495 71.5452 78.1804 72.8244 79.0077C74.1619 79.8731 75.5836 80.3324 76.7243 80.2688C77.9198 80.2023 79.5727 79.6534 81.0384 78.837C82.654 77.9365 83.1663 77.2127 83.1825 77.0288C83.0808 76.7401 81.969 75.7682 79.6732 74.6541C77.629 73.6628 75.6848 73.0643 74.5266 73.0643Z" fill="black"/>
<path d="M85.095 78.2997C85.095 78.2997 86.7684 79.6589 89.6727 79.2413C93.2537 78.7263 96.9598 72.3207 96.9598 72.3207L92.1238 70.1481C92.1238 70.1481 90.2458 73.3289 89.1123 73.4983C87.6418 73.7186 82.1485 71.2265 82.1485 71.2265L81.3768 69.5242C78.6115 70.4452 77.9295 72.6541 77.9295 72.6541C76.7135 70.5723 73.0351 70.0967 73.0351 70.0967L72.6715 71.9642C72.6498 72.075 71.3262 73.4705 71.3262 73.4705" fill="#F36527"/>
<path d="M88.5742 79.8307C86.2043 79.8307 84.8409 78.7492 84.7759 78.696C84.558 78.5193 84.5243 78.1985 84.7001 77.9801C84.8752 77.7622 85.1931 77.7277 85.4104 77.9026C85.473 77.9522 86.9718 79.116 89.5999 78.7377C90.935 78.5459 92.5464 77.3483 94.2595 75.2744C95.1468 74.2002 95.8504 73.1424 96.2248 72.5493L92.32 70.7955C92.1196 71.1114 91.8084 71.5835 91.4466 72.067C90.2391 73.6798 89.5776 73.9448 89.1857 74.0035C88.9263 74.0423 88.136 74.1609 84.8975 72.9227C83.3439 72.3284 81.9528 71.699 81.9384 71.6924C81.8264 71.6416 81.7367 71.552 81.6856 71.4394L81.1095 70.1686C78.9955 71.0521 78.4345 72.7339 78.4104 72.8095C78.349 73.0008 78.1817 73.1387 77.9836 73.1611C77.785 73.1829 77.5924 73.0873 77.4912 72.9142C76.6569 71.486 74.4135 70.8857 73.4354 70.6866L73.1669 72.064C73.1356 72.2237 73.1169 72.3206 71.6915 73.8238C71.4983 74.0271 71.1781 74.035 70.9752 73.8407C70.773 73.6465 70.7652 73.3245 70.9584 73.1206C71.4502 72.6026 72.0232 71.978 72.1924 71.768L72.5361 70.0009C72.5872 69.7377 72.8328 69.5598 73.0977 69.5937C73.2397 69.6118 76.2266 70.0173 77.8271 71.6918C78.3057 70.8839 79.3043 69.6796 81.216 69.043C81.4616 68.9613 81.7289 69.0787 81.836 69.3153L82.5283 70.8427C84.6242 71.7813 88.0998 73.1369 89.0365 72.9965C89.5722 72.916 90.8399 71.3251 91.6874 69.8896C91.8186 69.6675 92.0949 69.5791 92.3297 69.6844L97.1657 71.857C97.2969 71.9157 97.3968 72.0283 97.4413 72.1656C97.4853 72.303 97.4696 72.4531 97.3974 72.5778C97.2409 72.8483 93.5245 79.2025 89.7443 79.7466C89.3308 79.8047 88.9401 79.8307 88.5742 79.8307Z" fill="black"/>
<path d="M70.538 103.381C70.538 103.381 69.3973 105.869 68.9609 106.879C68.4191 108.133 72.1987 109.002 73.7469 107.421C75.2951 105.841 76.0541 103.194 76.0541 103.194L70.538 103.381Z" fill="#F2C598"/>
<path d="M71.3425 108.784C70.4654 108.784 69.6017 108.563 69.0575 108.194C68.4682 107.794 68.2587 107.227 68.4965 106.676C68.9299 105.672 70.067 103.193 70.0784 103.168L70.209 102.883L76.7335 102.662L76.5402 103.336C76.5077 103.449 75.727 106.126 74.1072 107.779C73.5046 108.394 72.5771 108.75 71.4954 108.782C71.4448 108.784 71.3936 108.784 71.3425 108.784ZM70.8675 103.879C70.5557 104.562 69.7672 106.29 69.4253 107.081C69.3886 107.167 69.5132 107.274 69.6239 107.349C70.4498 107.91 72.4633 108.005 73.3855 107.064C74.3624 106.068 75.0155 104.584 75.3363 103.729L70.8675 103.879Z" fill="black"/>
<path d="M70.6366 102.878C70.6366 102.878 69.6079 105.522 69.1222 106.504C68.6364 107.487 72.2968 108.497 73.845 106.918C75.3932 105.338 76.1522 102.691 76.1522 102.691L70.6366 102.878Z" fill="#F2C598"/>
<path d="M71.5122 108.252C70.5762 108.252 69.6733 108 69.1261 107.607C68.5194 107.172 68.4923 106.635 68.6693 106.278C69.1394 105.327 70.1554 102.718 70.1657 102.692L70.2873 102.38L76.8328 102.158L76.6396 102.832C76.607 102.945 75.8263 105.622 74.2065 107.275C73.5251 107.971 72.5 108.252 71.5122 108.252ZM69.6011 106.681C69.6956 106.793 70.0573 107.037 70.7754 107.165C71.6477 107.32 72.8172 107.242 73.4854 106.561C74.4623 105.564 75.1154 104.081 75.4363 103.225L70.9873 103.376C70.7032 104.095 70.0008 105.858 69.6011 106.681Z" fill="black"/>
<path d="M86.2295 102.167C86.2295 102.167 87.6482 104.466 88.4211 105.998C88.9147 106.976 84.5434 108.058 82.7081 106.828C81.5867 106.077 80.8379 102.298 80.8379 102.298L86.2295 102.167Z" fill="white"/>
<path d="M85.0238 107.886C84.0529 107.886 83.0976 107.7 82.4276 107.251C81.8564 106.868 81.3472 105.947 80.8704 104.434C80.5388 103.381 80.3497 102.436 80.3419 102.397C80.3124 102.249 80.3497 102.097 80.443 101.979C80.5363 101.862 80.6766 101.792 80.8265 101.789L86.2181 101.658C86.3968 101.654 86.566 101.745 86.6605 101.899C86.7189 101.993 88.0997 104.235 88.8732 105.768C89.0664 106.151 88.9575 106.58 88.5819 106.915C87.9541 107.475 86.4715 107.886 85.0238 107.886ZM81.4651 102.792C81.807 104.229 82.4198 106.023 82.9892 106.405C83.8669 106.993 85.5252 106.952 86.6948 106.665C87.4165 106.488 87.7994 106.263 87.9252 106.141C87.3136 104.944 86.3264 103.301 85.9508 102.683L81.4651 102.792Z" fill="black"/>
<path d="M86.1377 101.677C86.1377 101.677 87.1881 104.012 88.1686 105.479C88.7772 106.39 84.4516 107.568 82.6163 106.338C81.4949 105.586 80.7461 101.807 80.7461 101.807L86.1377 101.677Z" fill="#F2C598"/>
<path d="M84.7991 107.377C84.0189 107.377 83.0679 107.252 82.3365 106.762C81.7653 106.379 81.256 105.458 80.7793 103.945C80.4476 102.892 80.2586 101.947 80.2508 101.908L80.1328 101.314L86.4622 101.16L86.6007 101.468C86.6109 101.491 87.645 103.783 88.5907 105.196C88.7785 105.478 88.8345 105.925 88.4269 106.336C87.8665 106.901 86.5989 107.223 85.6839 107.326C85.4419 107.354 85.1361 107.377 84.7991 107.377ZM81.374 102.302C81.7159 103.738 82.3287 105.533 82.8981 105.915C83.7113 106.46 85.2198 106.441 86.3539 106.181C87.0949 106.011 87.518 105.781 87.6745 105.651C86.9077 104.476 86.1305 102.863 85.8187 102.195L81.374 102.302Z" fill="black"/>
<path d="M85.2488 79.7908L72.7092 81.4634C72.5762 81.481 72.4817 81.6014 72.4931 81.7352C73.378 91.7464 69.1367 101.694 68.5986 103.346C68.5546 103.479 68.6293 103.624 68.7635 103.664C71.9784 104.632 77.0606 104.3 78.1279 104.217C78.2452 104.207 78.3398 104.117 78.356 104L78.6473 101.882C78.6889 101.578 79.1325 101.6 79.1451 101.906L79.2258 103.892C79.2312 104.03 79.3468 104.138 79.484 104.132C82.398 104.025 85.1465 103.641 87.0986 102.733C87.1829 102.694 87.24 102.612 87.2449 102.518C87.9533 89.9491 86.0368 81.2861 85.5143 79.9469C85.4721 79.8404 85.3626 79.7756 85.2488 79.7908Z" fill="black"/>
<path d="M62.9338 87.7007L62.8538 87.7219C62.8538 87.7219 60.0222 88.6514 59.5497 88.9116C58.3157 89.5918 56.5268 91.1029 56.3763 91.3504C56.2571 91.5465 56.7603 92.6485 58.1406 91.9544C59.2204 91.411 59.9753 90.9607 60.437 90.8312C60.5802 90.7913 60.7072 90.9335 60.6537 91.0727C60.5465 91.3523 60.4364 91.69 60.3401 91.9586C60.0156 92.8646 60.4315 93.4704 61.122 93.2295C61.8455 92.9771 62.4198 91.8158 63.065 91.6095C63.7097 91.4031 65.1171 90.8137 65.0153 89.351C64.9136 87.8883 62.9338 87.7007 62.9338 87.7007Z" fill="#F2C598"/>
<path d="M60.8297 93.7924C60.536 93.7924 60.2705 93.6853 60.0671 93.4777C59.6963 93.1001 59.6204 92.4677 59.8648 91.7863C59.8859 91.727 59.9082 91.6646 59.9304 91.5999C59.7463 91.6925 59.5386 91.802 59.311 91.9212C59.0324 92.0677 58.7169 92.2341 58.3684 92.409C57.1013 93.0462 56.3856 92.4205 56.196 92.2135C55.9251 91.917 55.7307 91.4371 55.945 91.0843C56.1822 90.6939 58.0813 89.1399 59.3068 88.4639C59.7962 88.194 62.2166 87.394 62.697 87.2366L62.7265 87.2281L62.8932 87.1846L62.9823 87.193C63.0804 87.2021 65.3906 87.4424 65.5213 89.3148C65.6098 90.585 64.7706 91.5981 63.2194 92.0943C63.0328 92.1542 62.759 92.4568 62.517 92.7243C62.1546 93.1249 61.7796 93.5388 61.289 93.7101C61.1313 93.7658 60.9772 93.7924 60.8297 93.7924ZM60.4872 90.3151C60.6775 90.3151 60.861 90.395 60.9935 90.5414C61.1698 90.7363 61.221 91.0098 61.1271 91.2555C61.0627 91.4244 60.9953 91.6186 60.9303 91.8068C60.8911 91.9206 60.8532 92.0308 60.8171 92.1318C60.6859 92.4979 60.7401 92.7146 60.787 92.7624C60.8033 92.7787 60.8683 92.7793 60.9568 92.7485C61.2035 92.6625 61.5033 92.3315 61.7676 92.0392C62.1113 91.6598 62.4664 91.267 62.9125 91.1242C63.6799 90.8785 64.5798 90.378 64.5106 89.3862C64.4498 88.5141 63.2959 88.2702 62.9702 88.2188C61.888 88.5746 60.1038 89.1865 59.7938 89.3577C58.7928 89.9096 57.3758 91.0655 56.9225 91.5024C56.9557 91.5442 57.005 91.5902 57.0742 91.6229C57.2735 91.7179 57.5642 91.6749 57.9145 91.4982C58.2546 91.3269 58.5658 91.1629 58.8409 91.0183C59.4766 90.6836 59.9353 90.4422 60.3018 90.3399C60.3632 90.3236 60.4258 90.3151 60.4872 90.3151Z" fill="black"/>
<path d="M72.7923 72.0269C72.7923 72.0269 69.8928 73.9822 69.2162 75.1217C66.6302 79.4752 64.5415 83.056 61.6504 87.6238L65.1561 90.1419C67.47 87.9724 70.0625 84.3922 72.3667 80.6874" fill="#F36527"/>
<path d="M65.1548 90.6509C65.0519 90.6509 64.949 90.6195 64.8605 90.5559L61.3548 88.0378C61.1357 87.8805 61.0773 87.5785 61.2218 87.3503C63.6698 83.4833 65.5052 80.3861 67.63 76.7999C68.005 76.1675 68.3867 75.523 68.7797 74.8609C69.4942 73.6584 72.2024 71.8109 72.5087 71.6045C72.7411 71.4478 73.0553 71.5101 73.2112 71.7437C73.3671 71.9773 73.3051 72.2938 73.0728 72.4499C72.292 72.9764 70.1558 74.5299 69.6489 75.3826C69.2559 76.0446 68.8742 76.6885 68.4998 77.3209C66.4454 80.7879 64.6618 83.798 62.3329 87.4901L65.1073 89.483C67.612 87.0296 70.1871 83.2279 71.9345 80.4175C72.0826 80.1791 72.395 80.1065 72.6321 80.256C72.8693 80.4048 72.9415 80.7189 72.7929 80.9574C70.9431 83.9311 68.176 88.0039 65.4985 90.5141C65.4034 90.6043 65.2794 90.6509 65.1548 90.6509Z" fill="black"/>
<path d="M71.5822 78.8951C72.6375 89.9473 68.584 100.486 68.584 100.486C69.6916 100.732 70.772 100.918 71.8206 101.055C72.4135 99.2003 74.2982 94.7778 75.0055 88.3939C75.0055 88.3939 75.1963 94.3947 74.6828 101.314C82.348 101.712 87.6541 99.6124 87.6541 99.6124C88.4956 85.8201 85.5485 77.0288 85.5485 77.0288" fill="#F36527"/>
<path d="M76.6413 101.875C75.9996 101.875 75.3387 101.858 74.6573 101.823C74.5213 101.816 74.3937 101.754 74.3034 101.651C74.2131 101.548 74.1679 101.413 74.1782 101.277C74.3702 98.6902 74.4629 96.2223 74.5044 94.152C73.882 96.7264 73.1681 98.7416 72.6986 100.065C72.5391 100.515 72.4012 100.904 72.3031 101.21C72.2285 101.444 71.9979 101.591 71.756 101.559C70.6574 101.416 69.5535 101.223 68.4754 100.983C68.3315 100.951 68.2081 100.857 68.1383 100.727C68.0685 100.596 68.0588 100.441 68.1124 100.302C68.1226 100.276 69.1267 97.6426 69.9899 93.7054C70.7838 90.0817 71.6175 84.5789 71.0794 78.9436C71.0529 78.6634 71.257 78.4146 71.535 78.388C71.8131 78.3614 72.0611 78.5665 72.0876 78.8461C72.639 84.6212 71.7867 90.2444 70.9746 93.9444C70.3209 96.9231 69.6028 99.1283 69.2603 100.109C69.9923 100.259 70.7333 100.388 71.4743 100.493C71.5537 100.262 71.6452 100.004 71.7445 99.7226C72.5589 97.4254 73.9217 93.5807 74.5032 88.337C74.5327 88.0713 74.7614 87.874 75.0263 87.8843C75.2918 87.8946 75.5042 88.11 75.5127 88.3769C75.5145 88.4356 75.689 94.1804 75.2261 100.828C81.4201 101.062 85.987 99.6548 87.1686 99.2463C87.5611 92.3371 86.9826 86.7502 86.4222 83.259C85.8052 79.4144 85.0763 77.2122 85.0691 77.1904C84.98 76.9241 85.1226 76.6354 85.3875 76.5453C85.6524 76.4557 85.9395 76.5985 86.0292 76.8654C86.0599 76.9568 86.7864 79.1481 87.4178 83.0666C87.9981 86.6703 88.5983 92.4715 88.1606 99.6427C88.1486 99.84 88.024 100.013 87.8404 100.085C87.6388 100.166 83.238 101.874 76.6413 101.875Z" fill="black"/>
<path d="M98.6153 62.0061C98.5919 62.0061 98.5684 62.0037 98.5449 61.9989L97.6829 61.8258C97.5541 61.7998 97.4494 61.706 97.4097 61.5807C97.3699 61.4548 97.4006 61.3175 97.4903 61.2212L101.61 56.8132C101.747 56.6667 101.975 56.6601 102.12 56.7975C102.266 56.9348 102.273 57.1648 102.136 57.3106L98.4618 61.2418L98.5335 61.2563L104.782 56.8065C104.945 56.6903 105.17 56.7291 105.285 56.8931C105.401 57.0565 105.362 57.2834 105.199 57.399L98.8236 61.9396C98.7628 61.9831 98.6894 62.0061 98.6153 62.0061Z" fill="black"/>
<path d="M105.906 65.0338C105.969 66.1939 102.535 67.3292 98.2344 67.5695C93.9336 67.8097 90.3948 67.0642 90.331 65.9041C90.2666 64.744 93.7012 63.6087 98.0021 63.3684C102.303 63.1276 105.842 63.8737 105.906 65.0338Z" fill="#BAAF95"/>
<path d="M96.6406 68.1238C95.1279 68.1238 93.7278 67.9998 92.5907 67.7601C90.8024 67.3831 89.8724 66.7682 89.826 65.9319C89.7797 65.0956 90.6362 64.3809 92.3722 63.8072C93.862 63.3146 95.852 62.9781 97.9751 62.8595C100.098 62.7409 102.113 62.8534 103.648 63.1772C105.436 63.5542 106.366 64.1691 106.412 65.0054C106.459 65.8417 105.602 66.5564 103.866 67.1301C102.376 67.6227 100.387 67.9592 98.264 68.0778C97.7132 68.1087 97.1697 68.1238 96.6406 68.1238ZM99.6039 63.832C99.0917 63.832 98.5656 63.8465 98.0311 63.8768C95.9941 63.9905 94.0968 64.3094 92.6888 64.7748C91.1298 65.2904 90.8318 65.7746 90.8379 65.8756C90.8433 65.9773 91.193 66.4251 92.799 66.7634C94.2497 67.069 96.1705 67.1749 98.2074 67.0611C100.244 66.9474 102.142 66.6285 103.55 66.1631C105.109 65.6475 105.407 65.1633 105.401 65.0623C105.395 64.9606 105.045 64.5128 103.439 64.1745C102.369 63.9482 101.043 63.832 99.6039 63.832Z" fill="black"/>
<path d="M102.774 60.4709C102.917 63.0641 100.854 65.2875 98.1658 65.4382C95.4775 65.5882 93.1823 63.6081 93.0391 61.015L102.774 60.4709Z" fill="#C88C45"/>
<path d="M97.877 65.9839C96.5534 65.9839 95.2935 65.521 94.2997 64.6634C93.2198 63.7315 92.5824 62.4467 92.5047 61.0445C92.4969 60.9023 92.5457 60.7625 92.6402 60.656C92.7347 60.5495 92.8677 60.4854 93.0091 60.4775L102.744 59.9334C103.039 59.9171 103.291 60.144 103.308 60.4406C103.467 63.3254 101.174 65.8084 98.1955 65.9742C98.0889 65.9809 97.9824 65.9839 97.877 65.9839ZM93.6382 61.5202C93.8091 62.4164 94.2798 63.2286 94.9962 63.8471C95.8593 64.5914 96.9735 64.966 98.1359 64.9013C100.335 64.7784 102.07 63.0954 102.233 61.0403L93.6382 61.5202Z" fill="black"/>
<path d="M88.6532 50.1103C85.4618 48.4268 82.2654 46.748 79.0812 45.0572C76.3917 43.6296 73.5963 42.3121 71.0098 40.7762C71.3396 40.4537 71.628 40.6915 71.8934 40.8168C79.945 43.819 85.2715 47.1335 91.9146 50.448C90.8281 50.3361 89.7403 50.2229 88.6532 50.1103Z" fill="white"/>
<path d="M85.279 99.5973C85.8876 96.0516 86.023 92.3523 86.0687 88.7624C86.1187 84.8197 85.2772 81.0453 84.0366 77.1595C83.924 76.8073 83.7188 76.7238 84.3051 76.4648C84.6247 76.3238 85.2314 78.0703 85.6805 79.4549C86.82 82.6551 87.0029 85.8195 87.278 88.484C87.3039 88.7358 87.2744 89.5509 87.2919 89.8033C87.5519 93.568 87.5597 95.3932 87.1426 98.3016C87.0324 99.0738 86.5214 99.8963 85.279 99.5973Z" fill="white"/>
<path d="M100.002 64.3874C101.373 62.621 101.474 61.0784 101.474 61.0784C101.474 61.0784 101.977 61.0391 102.229 61.0378C102.149 62.2984 101.289 63.8954 100.002 64.3874Z" fill="white"/>
</g>
<defs>
<clipPath id="clip0_2352_734">
<rect width="153" height="110" fill="white" transform="translate(51.5)"/>
</clipPath>
</defs>
</svg>
