<svg width="313" height="405" viewBox="0 0 313 405" fill="none" xmlns="http://www.w3.org/2000/svg">
<path d="M131.384 131.497C199.994 123.903 254.142 104.351 252.327 87.828C250.512 71.3048 193.422 64.0668 124.813 71.6615C56.203 79.2561 2.05514 98.8076 3.86989 115.331C5.68465 131.854 62.7748 139.092 131.384 131.497Z" fill="#805522"/>
<path d="M79.2091 137.642C65.6925 137.642 53.1679 136.947 42.168 135.552C30.1666 134.031 20.5755 131.744 13.6574 128.759C5.66435 125.308 1.31979 120.899 0.7421 115.655C0.166773 110.41 3.45063 105.157 10.5013 100.042C16.605 95.6134 25.4693 91.2851 36.8527 87.1755C59.9203 78.8469 91.0281 72.2201 124.444 68.5217C157.863 64.8208 189.662 64.481 213.982 67.5638C225.984 69.085 235.575 71.3716 242.493 74.3569C250.486 77.8082 254.831 82.2173 255.408 87.4607C255.984 92.7065 252.702 97.9594 245.649 103.074C239.545 107.503 230.681 111.831 219.298 115.941C196.23 124.269 165.122 130.896 131.706 134.594C113.402 136.622 95.5787 137.642 79.2091 137.642ZM176.946 71.7495C160.813 71.7495 143.224 72.7573 125.133 74.7586C92.1883 78.4071 61.5894 84.9127 38.9717 93.0797C14.5665 101.893 6.43381 110.165 6.96179 114.966C7.48976 119.767 17.2206 126.061 42.954 129.322C66.8005 132.346 98.0789 132.001 131.022 128.353C163.967 124.704 194.566 118.199 217.183 110.032C241.589 101.218 249.721 92.9465 249.193 88.1452C248.665 83.3439 238.934 77.0499 213.201 73.7888C202.45 72.4293 190.188 71.7495 176.946 71.7495Z" fill="black"/>
<path d="M97.0217 171.112C98.4879 156.392 84.6227 142.947 66.0528 141.083C47.4829 139.219 31.2404 149.641 29.7741 164.361C28.3078 179.081 42.173 192.526 60.7429 194.39C79.3128 196.254 95.5554 185.833 97.0217 171.112Z" fill="black"/>
<path d="M45.9564 216.089C58.9866 216.089 69.5496 206.883 69.5496 195.526C69.5496 184.17 58.9866 174.964 45.9564 174.964C32.9263 174.964 22.3633 184.17 22.3633 195.526C22.3633 206.883 32.9263 216.089 45.9564 216.089Z" fill="black"/>
<path d="M33.7909 232.698C42.6262 232.698 49.7887 226.341 49.7887 218.499C49.7887 210.657 42.6262 204.299 33.7909 204.299C24.9555 204.299 17.793 210.657 17.793 218.499C17.793 226.341 24.9555 232.698 33.7909 232.698Z" fill="black"/>
<path d="M29.2412 229.19C36.1807 227.847 42.5684 231.631 44.0766 240.887C45.4214 249.142 40.1369 259.652 43.5747 262.262C36.7016 262.01 22.2829 258.728 19.3589 245.591C17.5382 237.426 22.3018 230.533 29.2412 229.19Z" fill="black"/>
<path d="M160.843 167.655H117.67V215.461H160.843V167.655Z" fill="white"/>
<path d="M207.772 107.324C207.772 107.324 205.421 128.281 202.954 143.66C199.989 162.138 180.473 181.543 141.436 181.236C94.3116 180.863 77.0779 168.586 71.5212 123.012C65.7584 75.7666 135.262 79.484 135.262 79.484L203.077 80.4134L207.772 107.324Z" fill="#F2C699"/>
<path d="M142.331 184.209C142.025 184.209 141.72 184.209 141.412 184.205C115.551 184 99.8867 180.166 89.0337 171.386C77.8349 162.328 71.5276 147.517 68.5823 123.371C67.1381 111.522 70.0242 101.622 77.1649 93.9424C84.7885 85.7446 96.9532 80.3229 113.32 77.8295C124.945 76.0588 134.421 76.4652 135.353 76.5127L205.567 77.4754L210.757 107.232L210.709 107.657C210.686 107.866 208.323 128.861 205.872 144.133C204.144 154.902 197.59 164.774 187.417 171.926C175.981 179.969 160.405 184.209 142.331 184.209ZM131.956 82.3932C122.604 82.3932 94.8224 83.6577 81.4857 98.0093C75.6022 104.341 73.237 112.632 74.4587 122.65C77.2028 145.143 82.8424 158.748 92.7484 166.761C102.477 174.631 117.045 178.072 141.462 178.265C158.688 178.4 173.408 174.526 184.026 167.06C192.877 160.835 198.564 152.359 200.034 143.189C202.271 129.251 204.438 110.459 204.783 107.417L200.585 83.3534L135.162 82.4573L135.102 82.455C135.038 82.4454 133.893 82.3932 131.956 82.3932Z" fill="black"/>
<path d="M110.13 142.172C115.077 142.172 119.087 138.146 119.087 133.18C119.087 128.214 115.077 124.188 110.13 124.188C105.184 124.188 101.174 128.214 101.174 133.18C101.174 138.146 105.184 142.172 110.13 142.172Z" fill="black"/>
<path d="M173.248 140.931C178.194 140.931 182.204 136.906 182.204 131.94C182.204 126.974 178.194 122.948 173.248 122.948C168.301 122.948 164.291 126.974 164.291 131.94C164.291 136.906 168.301 140.931 173.248 140.931Z" fill="black"/>
<path d="M143.493 159.652C134.688 159.652 129.619 153.671 129.406 153.415C128.359 152.155 128.527 150.282 129.782 149.229C131.032 148.181 132.888 148.345 133.937 149.593C134.103 149.785 137.55 153.707 143.493 153.707C143.547 153.707 143.599 153.707 143.654 153.707C149.357 153.638 151.116 149.925 151.133 149.89C151.782 148.383 153.524 147.691 155.025 148.342C156.526 148.994 157.215 150.743 156.567 152.25C156.439 152.547 153.316 159.535 143.725 159.649C143.649 159.652 143.569 159.652 143.493 159.652Z" fill="black"/>
<path d="M200.861 109.863C192.664 110.666 175.428 110.405 171.067 110.321C170.61 110.312 170.312 109.832 170.513 109.418C174.528 101.173 169.923 91.6676 169.923 91.6676C169.923 91.6676 170.016 104.225 158.992 110.176C147.938 116.145 114.164 114.738 107.854 114.417C107.388 114.393 107.116 113.887 107.341 113.478C112.888 103.466 110.322 95.4183 110.322 95.4183C110.322 95.4183 100.664 115.572 79.9263 120.756C77.1894 121.441 75.2503 123.879 75.1248 126.708C74.6536 137.311 76.4056 161.933 100.318 177.079C100.318 177.079 36.147 172.677 30.2162 126.917C24.2854 81.157 59.4915 77.808 59.4915 77.808C59.4915 77.808 203.06 51.0133 220.138 77.6844C236.813 103.728 206.796 126.546 206.796 126.546L204.372 112.556C204.083 110.873 202.554 109.696 200.861 109.863Z" fill="black"/>
<path d="M246.308 79.8881C223.286 61.964 158.354 22.4293 114.502 3.3999C79.9583 33.023 27.1087 82.4195 7.58789 106.578C21.6514 92.5688 68.672 77.8511 124.782 71.638C181.168 65.3962 229.773 69.1731 246.308 79.8881Z" fill="#CA8D46"/>
<path d="M7.5996 109.718C6.84908 109.718 6.09852 109.449 5.50189 108.907C4.27073 107.788 4.12397 105.898 5.17044 104.603C23.9502 81.3592 75.4953 32.7353 112.48 1.0157C113.386 0.238462 114.655 0.0459345 115.752 0.521312C135.788 9.21596 162.09 23.009 189.808 39.3549C214.083 53.6709 236.471 68.2531 248.233 77.4088C249.556 78.438 249.836 80.3324 248.867 81.7039C247.899 83.0753 246.026 83.439 244.62 82.5263C236.963 77.5633 221.216 74.0146 200.277 72.5362C178.292 70.9817 152.307 71.7518 125.132 74.761C98.2147 77.7416 72.692 82.7307 51.3268 89.1934C31.1075 95.3068 16.3597 102.273 9.79669 108.81C9.19295 109.414 8.39749 109.718 7.5996 109.718ZM115.058 7.06488C85.6996 32.3359 47.7422 67.6921 24.3835 92.4118C32.6346 88.6539 41.7356 85.5354 49.5274 83.1799C71.2525 76.6102 97.1587 71.5403 124.45 68.5193C165.017 64.027 202.162 64.6022 226.342 69.5675C197.337 50.2101 149.923 22.4362 115.058 7.06488Z" fill="black"/>
<path d="M231.099 192.35C231.099 192.35 229.224 185.591 230.417 178.662C231.61 171.733 233.741 165.487 233.741 165.487L287.857 170.279C287.857 170.279 287.971 181.457 278.086 187.276C268.201 193.094 247.179 201.078 247.179 201.078L231.099 192.35Z" fill="#F2C699"/>
<path d="M246.957 204.335L228.582 194.361L228.246 193.145C228.163 192.843 226.207 185.655 227.498 178.153C228.717 171.073 230.848 164.786 230.938 164.522L231.688 162.321L290.786 167.553L290.815 170.246C290.819 170.773 290.817 183.223 279.58 189.836C269.594 195.714 249.093 203.524 248.224 203.855L246.957 204.335ZM233.677 190.373L247.383 197.813C252.033 196.006 268.398 189.527 276.583 184.709C282.156 181.429 283.991 176.152 284.595 172.969L235.841 168.653C235.136 171.011 234.047 174.98 233.327 179.166C232.548 183.715 233.251 188.279 233.677 190.373Z" fill="black"/>
<path d="M176.128 222.996C176.128 230.008 150.861 242.807 134.437 242.807C118.013 242.807 98.584 226.195 98.584 219.183C98.584 212.171 107.73 199.465 124.154 199.465C140.578 199.465 176.128 215.984 176.128 222.996Z" fill="#F36527"/>
<path d="M183.907 231.086C183.907 231.086 193.233 239.55 210.31 238.062C231.37 236.228 255.058 200.115 255.058 200.115L227.542 185.885C227.542 185.885 215.559 203.804 208.89 204.425C200.241 205.228 168.991 188.923 168.991 188.923L165.037 178.754C148.608 183.218 143.913 195.868 143.913 195.868C137.49 183.342 116.182 179.375 116.182 179.375L113.459 190.137C113.298 190.774 105.125 198.473 105.125 198.473" fill="#F36527"/>
<path d="M206.301 241.21C190.836 241.21 182.303 233.642 181.917 233.29C180.705 232.189 180.61 230.312 181.707 229.095C182.8 227.88 184.664 227.783 185.876 228.874C186.243 229.199 194.612 236.449 210.049 235.103C217.917 234.419 227.723 227.944 238.406 216.381C243.913 210.422 248.331 204.522 250.696 201.204L228.481 189.714C227.209 191.49 225.242 194.14 222.976 196.838C215.409 205.842 211.467 207.168 209.159 207.382C207.632 207.524 202.982 207.957 184.488 199.688C175.617 195.721 167.7 191.599 167.622 191.556C166.985 191.224 166.49 190.672 166.23 190L163.277 182.405C150.658 186.864 146.844 196.481 146.678 196.914C146.268 198.017 145.253 198.766 144.083 198.834C142.911 198.903 141.815 198.269 141.28 197.221C136.874 188.63 123.977 184.402 118.333 182.921L116.325 190.86C116.093 191.782 115.951 192.338 107.148 200.631C105.955 201.756 104.082 201.694 102.965 200.498C101.847 199.303 101.907 197.423 103.098 196.298C106.133 193.439 109.679 189.99 110.733 188.818L113.309 178.636C113.693 177.119 115.182 176.159 116.718 176.447C117.542 176.601 134.838 179.933 143.636 190.209C146.687 185.659 152.905 178.966 164.262 175.881C165.721 175.484 167.243 176.254 167.792 177.668L171.336 186.788C173.702 187.998 180.018 191.181 186.922 194.266C202.321 201.147 207.22 201.589 208.614 201.461C209.107 201.416 211.898 200.793 218.421 193.037C222.107 188.654 225.053 184.267 225.081 184.221C225.919 182.969 227.557 182.546 228.893 183.237L256.409 197.468C257.155 197.853 257.704 198.54 257.917 199.355C258.13 200.17 257.988 201.038 257.527 201.741C256.527 203.265 232.795 239.078 210.563 241.015C209.09 241.15 207.667 241.21 206.301 241.21Z" fill="black"/>
<path d="M90.9005 372.475C90.9005 372.475 83.4426 386.596 80.5707 392.336C77.0028 399.469 98.7752 405.756 108.319 397.057C117.863 388.357 123.143 373.183 123.143 373.183L90.9005 372.475Z" fill="#F2C699"/>
<path d="M95.5456 404.264C95.2781 404.264 95.0105 404.261 94.7406 404.254C89.314 404.114 83.9373 402.495 80.7055 400.03C77.398 397.509 76.3562 394.136 77.9212 391.005C80.7742 385.301 88.2061 371.227 88.2818 371.085L89.1365 369.466L127.274 370.303L125.931 374.163C125.706 374.812 120.287 390.154 110.303 399.258C106.751 402.5 101.533 404.264 95.5456 404.264ZM92.6595 375.487C90.6186 379.361 85.462 389.173 83.2128 393.67C83.0186 394.057 83.3785 394.606 84.2853 395.296C86.5463 397.019 90.711 398.203 94.8945 398.312C99.6865 398.436 103.745 397.211 106.325 394.858C112.363 389.353 116.646 380.935 118.786 376.06L92.6595 375.487Z" fill="black"/>
<path d="M91.6577 369.575C91.6577 369.575 84.8011 384.65 81.6522 390.212C78.5033 395.776 99.5323 402.857 109.076 394.157C118.618 385.458 123.9 370.284 123.9 370.284L91.6577 369.575Z" fill="#F2C699"/>
<path d="M96.8315 401.212C96.2633 401.212 95.688 401.195 95.1032 401.162C89.6814 400.853 84.3969 399.12 81.3119 396.641C77.9144 393.91 77.9286 390.773 79.0745 388.745C82.124 383.359 88.8929 368.492 88.9616 368.342L89.7713 366.564L128.032 367.405L126.689 371.265C126.464 371.914 121.045 387.257 111.061 396.358C107.599 399.515 102.592 401.212 96.8315 401.212ZM84.3827 391.395C84.8988 392.077 86.9302 393.62 91.0759 394.597C96.1141 395.783 102.964 395.714 107.081 391.961C113.118 386.456 117.401 378.037 119.542 373.162L93.5311 372.592C91.6465 376.689 86.9799 386.734 84.3827 391.395Z" fill="black"/>
<path d="M182.811 370.507C182.811 370.507 190.347 384.364 194.36 393.542C196.924 399.401 171.073 404.283 160.762 396.517C154.461 391.773 151.312 369.514 151.312 369.514L182.811 370.507Z" fill="white"/>
<path d="M176.506 403.506C169.971 403.506 163.321 402.158 158.986 398.894C155.775 396.477 153.102 390.944 150.808 381.976C149.21 375.732 148.414 370.165 148.381 369.932C148.258 369.065 148.523 368.185 149.108 367.531C149.69 366.878 150.533 366.519 151.405 366.545L182.903 367.536C183.952 367.569 184.906 368.157 185.408 369.081C185.718 369.652 193.051 383.157 197.071 392.346C198.075 394.64 197.3 397.102 195.001 398.932C191.55 401.683 184.106 403.506 176.506 403.506ZM154.809 372.597C156.341 381.077 159.336 391.731 162.537 394.141C167.469 397.853 177.157 398.155 184.073 396.865C188.341 396.068 190.648 394.878 191.419 394.212C188.237 387.039 183.007 377.144 181.016 373.424L154.809 372.597Z" fill="black"/>
<path d="M182.45 367.624C182.45 367.624 187.824 381.577 193.073 390.443C196.331 395.945 170.714 401.4 160.4 393.635C154.1 388.89 150.951 366.631 150.951 366.631L182.45 367.624Z" fill="#F2C699"/>
<path d="M175.302 400.466C170.42 400.466 163.533 399.698 158.636 396.011C155.426 393.594 152.753 388.061 150.459 379.093C148.861 372.849 148.065 367.282 148.032 367.049L147.537 363.55L184.514 364.715L185.222 366.552C185.274 366.69 190.571 380.379 195.63 388.924C196.636 390.623 196.819 393.247 194.309 395.51C190.857 398.621 183.359 400.083 177.987 400.39C177.194 400.435 176.289 400.466 175.302 400.466ZM154.46 369.714C155.992 378.194 158.987 388.847 162.188 391.258C166.757 394.699 175.565 395.082 182.265 393.936C186.645 393.188 189.186 391.987 190.14 391.274C186.044 384.177 182.031 374.532 180.425 370.534L154.46 369.714Z" fill="black"/>
<path d="M184.318 239.824L110.617 245.488C109.835 245.548 109.243 246.215 109.269 247.002C111.204 305.616 83.2496 362.189 79.5774 371.639C79.2791 372.404 79.665 373.27 80.4369 373.55C98.8828 380.236 128.641 379.958 134.894 379.818C135.581 379.804 136.163 379.309 136.296 378.632L138.68 366.384C139.021 364.627 141.601 364.898 141.575 366.686L141.405 378.28C141.393 379.086 142.032 379.754 142.835 379.77C159.87 380.096 176.031 378.751 187.713 374.099C188.217 373.897 188.575 373.436 188.636 372.894C196.823 299.893 188.433 248.797 185.819 240.825C185.608 240.185 184.988 239.772 184.318 239.824Z" fill="black"/>
<path d="M51.5785 278.646L51.1026 278.741C51.1026 278.741 34.2831 283.233 31.442 284.597C24.0243 288.16 13.0978 296.379 12.1413 297.772C11.3837 298.878 13.9644 305.462 22.2391 301.865C28.7145 299.051 33.2627 296.674 35.9996 296.07C36.8472 295.883 37.5433 296.753 37.1858 297.549C36.4732 299.141 35.7179 301.076 35.0691 302.609C32.8838 307.781 35.1165 311.444 39.2219 310.268C43.5238 309.034 47.2505 302.455 51.0812 301.464C54.9096 300.472 63.3099 297.494 63.1867 288.937C63.0636 280.381 51.5785 278.646 51.5785 278.646Z" fill="#F2C699"/>
<path d="M37.7358 313.462C35.8583 313.462 34.1939 312.744 32.9841 311.371C30.9408 309.051 30.704 305.34 32.3471 301.45C32.4892 301.112 32.6384 300.753 32.7899 300.385C31.6866 300.865 30.4389 301.433 29.0775 302.053C27.4036 302.816 25.5071 303.684 23.4165 304.592C15.8213 307.891 11.8437 304.014 10.8067 302.747C9.31986 300.931 8.34206 298.074 9.7058 296.087C11.214 293.889 22.7986 285.453 30.1666 281.916C33.1071 280.504 47.4903 276.63 50.3433 275.869L50.5208 275.829L51.5058 275.629L52.0195 275.708C52.1569 275.729 55.4147 276.236 58.7009 277.947C63.5071 280.45 66.0831 284.236 66.1493 288.897C66.2559 296.327 61.0353 301.956 51.823 304.342C50.715 304.63 49.0174 306.306 47.5211 307.784C45.2766 309.999 42.9564 312.29 40.0395 313.127C39.2487 313.351 38.4745 313.462 37.7358 313.462ZM36.2371 293.073C37.428 293.073 38.5645 293.606 39.341 294.564C40.307 295.757 40.5154 297.366 39.888 298.768C39.4571 299.731 39.0025 300.843 38.5621 301.92C38.2969 302.567 38.0412 303.197 37.7973 303.769C36.9142 305.859 37.1605 307.142 37.4186 307.434C37.5062 307.534 37.885 307.56 38.4129 307.411C39.8809 306.99 41.7347 305.16 43.3707 303.544C45.4992 301.442 47.6986 299.27 50.3456 298.585C54.9009 297.404 60.3156 294.78 60.2304 288.98C60.157 283.83 53.504 282.071 51.6265 281.676C45.1985 283.397 34.5845 286.382 32.7212 287.279C26.7028 290.169 18.0611 296.441 15.2768 298.84C15.4567 299.094 15.729 299.377 16.1244 299.591C17.2561 300.209 18.9655 300.054 21.0679 299.139C23.1088 298.253 24.9792 297.399 26.6318 296.646C30.446 294.906 33.2018 293.649 35.3706 293.168C35.657 293.104 35.9483 293.073 36.2371 293.073Z" fill="black"/>
<path d="M114.152 190.534C114.152 190.534 96.6034 200.983 92.2872 207.401C75.7969 231.923 62.4555 252.108 44.1113 277.778L63.7529 293.589C77.9514 281.705 94.2334 261.687 108.872 240.853" fill="#F36527"/>
<path d="M63.7517 296.56C63.0959 296.56 62.4424 296.344 61.9002 295.907L42.2586 280.096C41.0322 279.107 40.7883 277.329 41.7046 276.045C57.2242 254.325 68.9273 236.886 82.4771 216.692C84.8754 213.117 87.3164 209.478 89.8332 205.737C94.3884 198.963 110.786 189.082 112.64 187.979C114.047 187.143 115.863 187.609 116.696 189.018C117.529 190.43 117.065 192.253 115.661 193.09C110.938 195.904 97.9706 204.256 94.7412 209.062C92.2268 212.801 89.7858 216.44 87.3898 220.013C74.2923 239.532 62.9183 256.484 48.1516 277.22L63.6973 289.734C79.1009 276.257 95.3521 254.946 106.454 239.139C107.396 237.799 109.243 237.478 110.578 238.424C111.913 239.37 112.233 241.224 111.291 242.564C99.5403 259.291 82.0817 282.114 65.6482 295.869C65.0989 296.33 64.4241 296.56 63.7517 296.56Z" fill="black"/>
<path d="M104.873 230.157C107.468 294.892 80.416 354.974 80.416 354.974C86.7991 356.767 93.0448 358.202 99.1153 359.338C103.171 348.728 115.596 323.576 121.783 286.613C121.783 286.613 120.961 321.639 115.731 361.784C160.325 366.597 191.961 356.092 191.961 356.092C201.318 276.012 186.958 223.834 186.958 223.834" fill="#F36527"/>
<path d="M139.112 366.006C131.794 366.006 123.839 365.647 115.415 364.736C114.622 364.651 113.897 364.249 113.405 363.619C112.912 362.992 112.692 362.188 112.796 361.397C114.75 346.396 116.087 332.047 116.996 319.996C112.536 334.795 107.718 346.301 104.552 353.862C103.477 356.431 102.547 358.649 101.877 360.403C101.366 361.741 99.9757 362.521 98.5718 362.26C92.21 361.071 85.8341 359.581 79.6167 357.836C78.7857 357.603 78.0968 357.016 77.7321 356.232C77.3675 355.447 77.3628 354.542 77.7179 353.75C77.7842 353.603 84.494 338.586 90.7989 315.927C96.5995 295.072 103.238 263.286 101.917 230.276C101.851 228.636 103.122 227.252 104.756 227.188C106.394 227.122 107.765 228.398 107.831 230.038C109.186 263.864 102.4 296.349 96.4669 317.641C91.6915 334.783 86.7929 347.397 84.4774 353.002C88.7012 354.114 92.9842 355.105 97.2696 355.956C97.807 354.635 98.4226 353.163 99.095 351.559C104.588 338.441 113.781 316.483 118.862 286.118C119.12 284.581 120.519 283.506 122.061 283.654C123.607 283.801 124.774 285.122 124.738 286.682C124.731 287.024 123.898 320.552 119.051 359.132C155.115 362.509 182.212 355.799 189.241 353.805C193.761 313.678 192.184 280.942 190.042 260.42C187.681 237.818 184.139 224.752 184.104 224.624C183.67 223.043 184.594 221.405 186.171 220.97C187.747 220.535 189.374 221.462 189.81 223.043C189.959 223.585 193.491 236.589 195.911 259.621C198.134 280.806 199.765 314.8 194.9 356.439C194.765 357.587 193.981 358.552 192.89 358.913C192.556 359.022 184.584 361.644 171.006 363.681C163.034 364.877 152.077 366.006 139.112 366.006Z" fill="black"/>
<path d="M268.184 141.416C267.938 141.416 267.689 141.385 267.445 141.321L262.471 140.033C261.429 139.764 260.617 138.949 260.345 137.903C260.075 136.857 260.39 135.75 261.169 135.003L286.628 110.662C287.812 109.53 289.684 109.575 290.811 110.764C291.938 111.952 291.893 113.832 290.709 114.964L272.997 131.897L305.27 111.548C306.655 110.676 308.481 111.094 309.35 112.485C310.218 113.875 309.802 115.708 308.417 116.58L269.756 140.957C269.283 141.262 268.736 141.416 268.184 141.416Z" fill="black"/>
<path d="M264.053 172.848C289.224 172.848 309.629 167.351 309.629 160.571C309.629 153.791 289.224 148.295 264.053 148.295C238.882 148.295 218.477 153.791 218.477 160.571C218.477 167.351 238.882 172.848 264.053 172.848Z" fill="white"/>
<path d="M264.049 175.819C251.624 175.819 239.907 174.507 231.057 172.121C220.743 169.342 215.516 165.456 215.516 160.569C215.516 155.682 220.743 151.796 231.057 149.017C239.907 146.633 251.624 145.319 264.049 145.319C276.474 145.319 288.191 146.631 297.042 149.017C307.355 151.796 312.582 155.682 312.582 160.569C312.582 165.456 307.355 169.342 297.042 172.121C288.191 174.507 276.474 175.819 264.049 175.819ZM264.049 151.266C252.128 151.266 240.956 152.507 232.588 154.76C223.326 157.256 221.432 159.979 221.432 160.571C221.432 161.163 223.326 163.887 232.588 166.383C240.953 168.636 252.126 169.877 264.049 169.877C275.97 169.877 287.143 168.636 295.51 166.383C304.772 163.887 306.666 161.163 306.666 160.571C306.666 159.979 304.772 157.256 295.51 154.76C287.143 152.507 275.97 151.266 264.049 151.266Z" fill="black"/>
<path d="M292.821 132.969C292.821 148.121 280.067 160.408 264.337 160.408C248.604 160.408 235.85 148.124 235.85 132.969H292.821Z" fill="#C7B299"/>
<path d="M264.333 163.379C246.995 163.379 232.889 149.738 232.889 132.969C232.889 131.329 234.215 129.998 235.848 129.998H292.82C294.453 129.998 295.779 131.329 295.779 132.969C295.779 149.738 281.671 163.379 264.333 163.379ZM238.995 135.94C240.529 148.036 251.306 157.436 264.333 157.436C277.359 157.436 288.137 148.036 289.671 135.94H238.995Z" fill="black"/>
<path d="M213.764 68.0107C195.687 57.1626 177.58 46.343 159.543 35.4568C144.31 26.263 128.428 17.6777 113.832 7.8897C115.861 6.11892 117.469 7.59972 118.974 8.41499C164.984 28.5258 194.991 49.5708 232.681 71.0459C226.378 70.0334 220.071 69.0208 213.764 68.0107Z" fill="white"/>
<path d="M178.122 355.227C182.817 334.766 184.801 313.255 186.222 292.36C187.784 269.407 184.093 247.142 178.108 224.098C177.566 222.012 176.394 221.455 179.898 220.139C181.809 219.421 184.782 229.796 186.958 238.008C192.574 257.021 192.624 275.518 193.367 291.131C193.438 292.607 193 297.347 193.022 298.823C193.327 320.84 192.78 331.477 189.411 348.288C188.518 352.747 185.27 357.373 178.122 355.227Z" fill="white"/>
</svg>
