<svg width="154" height="110" viewBox="0 0 154 110" fill="none" xmlns="http://www.w3.org/2000/svg">
<g clip-path="url(#clip0_2380_740)">
<path d="M82.4555 28.752C78.1679 32.0417 74.4299 34.9089 70.1958 38.1569C73.7786 40.6362 77.1109 42.9431 80.5281 45.3081C79.054 47.2701 79.5331 46.8174 78.2419 48.3824C69.3826 48.835 59.2832 49.2169 47.794 49.6454C47.422 49.6593 47.2167 48.9815 47.4148 48.3297C48.6283 44.3326 49.9796 40.2495 51.3996 35.8415C56.3211 34.1289 66.0954 30.4337 66.2007 30.2504C65.9112 30.0501 57.4732 24.425 53.256 21.6243C51.9101 20.8866 52.0208 19.3925 53.2253 16.3545C55.0654 11.7123 56.6564 7.182 58.5784 1.99512C66.598 10.9825 74.4335 19.7628 82.4555 28.752Z" fill="white"/>
<path d="M47.7805 51.6407C47.0624 51.6407 46.3967 51.306 45.9428 50.713C45.3571 49.948 45.194 48.8115 45.5166 47.747C46.4274 44.7466 47.4079 41.7226 48.4457 38.5213C48.796 37.4416 49.1511 36.3445 49.5111 35.2267C49.7031 34.6313 50.1612 34.161 50.7499 33.9559C53.9673 32.8357 58.775 31.0456 61.9701 29.8184C59.1084 27.9097 54.9141 25.1162 52.2222 23.3285C51.3127 22.8045 50.2768 21.7781 50.2996 19.8283C50.3123 18.7565 50.6355 17.4966 51.3813 15.6157C52.649 12.418 53.8047 9.25358 55.0285 5.90277C55.5696 4.42071 56.1294 2.88843 56.7187 1.29805C56.9613 0.643864 57.5265 0.164572 58.2085 0.0344608C58.8905 -0.0956501 59.5912 0.142786 60.0547 0.662019L83.9319 27.4195C84.3015 27.834 84.482 28.3847 84.4303 28.9384C84.3785 29.4928 84.0986 29.9999 83.6586 30.3376L73.5743 38.0734L81.6529 43.6646C82.099 43.9732 82.3999 44.4519 82.4866 44.9893C82.5733 45.5267 82.4372 46.0762 82.111 46.5107C81.4952 47.3301 81.243 47.6986 81.0401 47.9946C80.7211 48.4605 80.5195 48.7456 79.7688 49.6557C79.4143 50.0854 78.8966 50.3462 78.3422 50.3747C69.1464 50.8449 58.3283 51.2485 47.8672 51.6389C47.8389 51.6401 47.81 51.6407 47.7805 51.6407ZM52.9837 37.3987C52.7267 38.1951 52.4714 38.9812 52.2198 39.7582C51.3422 42.4645 50.5061 45.0438 49.7224 47.5776C59.206 47.223 68.8761 46.855 77.2612 46.435C77.4785 46.1585 77.5916 45.9963 77.7307 45.7942L69.0712 39.8012C68.5475 39.4387 68.2284 38.8456 68.2128 38.2066C68.1971 37.5675 68.4873 36.9599 68.9929 36.572L79.5449 28.4773L59.2987 5.78899C59.1151 6.29068 58.9339 6.78691 58.7545 7.27771C57.5211 10.6545 56.3564 13.8444 55.0688 17.0929C54.3423 18.9254 54.2598 19.6522 54.2658 19.9069C54.2941 19.9239 54.3224 19.9414 54.3501 19.9596C58.2579 22.5551 66.9896 28.3738 67.3261 28.6068C68.1791 29.1975 68.4373 30.3479 67.9184 31.249C67.5663 31.8608 67.0528 32.0787 66.5087 32.3098C66.2137 32.4351 65.7942 32.6052 65.2627 32.8158C64.2623 33.2115 62.8934 33.738 61.3043 34.339C58.914 35.2431 55.6064 36.4697 52.9837 37.3987Z" fill="white"/>
<path d="M93.4185 51.3573C91.0589 50.6674 89.1074 50.2021 87.2498 49.4886C86.7201 49.2852 86.2048 48.3956 86.1236 47.7632C85.3091 41.4501 84.6362 35.1183 83.8049 28.8082C83.5984 27.242 83.9656 26.4111 85.4446 25.7594C88.9015 24.2356 92.2784 22.5278 96.1868 20.6548C95.2442 31.1139 94.3413 41.1252 93.4185 51.3573Z" fill="white"/>
<path d="M93.4185 53.3526C93.2331 53.3526 93.0465 53.3266 92.8647 53.2734C92.2007 53.0791 91.5669 52.9024 90.9535 52.7317C89.4113 52.3015 87.954 51.8954 86.5413 51.3526C85.2044 50.8388 84.3147 49.252 84.1558 48.0199C83.7706 45.0346 83.4118 41.9997 83.0651 39.0652C82.6768 35.7852 82.2759 32.3933 81.8383 29.0703C81.5073 26.5558 82.3999 24.9231 84.6488 23.9324C87.0487 22.8752 89.442 21.7109 91.9762 20.4788C93.0555 19.9541 94.1721 19.4112 95.3344 18.8545C95.9779 18.5458 96.737 18.6088 97.322 19.0185C97.9071 19.4282 98.2286 20.1217 98.1642 20.8358L95.3952 51.5389C95.3417 52.1326 95.0268 52.6706 94.5375 53.0065C94.204 53.234 93.8133 53.3526 93.4185 53.3526ZM88.1912 47.7131C89.2609 48.1101 90.3877 48.4326 91.6578 48.7873L93.8952 23.9766C93.8314 24.0075 93.767 24.0389 93.7032 24.0698C91.1347 25.3189 88.7089 26.4983 86.2409 27.5858C85.9129 27.7305 85.7877 27.834 85.7528 27.8672C85.7407 27.9193 85.713 28.102 85.7714 28.5462C86.2126 31.8958 86.6153 35.3011 87.0048 38.5944C87.3503 41.5138 87.7073 44.5317 88.0889 47.4916C88.1039 47.5485 88.1473 47.6405 88.1912 47.7131Z" fill="white"/>
<path d="M87.7021 11.4382C90.6053 11.2615 93.0022 13.3439 93.24 16.2493C93.4825 19.2146 91.2921 21.7381 88.3149 21.9239C85.3545 22.1085 82.886 19.8603 82.768 16.872C82.6542 13.9823 84.8044 11.6143 87.7021 11.4382Z" fill="white"/>
<path d="M87.9705 23.9295C86.1755 23.9295 84.4792 23.2796 83.1508 22.0735C81.7037 20.7591 80.8634 18.9399 80.7851 16.9514C80.6292 12.9851 83.6142 9.68874 87.5822 9.44728C89.506 9.32988 91.348 9.94473 92.768 11.1787C94.1897 12.4138 95.0595 14.1567 95.2173 16.086C95.378 18.0509 94.7676 19.9445 93.4987 21.4181C92.2196 22.9044 90.4216 23.7909 88.437 23.915C88.2811 23.9247 88.1252 23.9295 87.9705 23.9295ZM87.8218 13.4293C85.9997 13.54 84.6791 14.9864 84.7501 16.7928C84.7856 17.6999 85.1624 18.5236 85.8101 19.1118C86.4542 19.6964 87.2999 19.9875 88.1908 19.9324C89.1027 19.8755 89.9214 19.4755 90.4974 18.8068C91.0627 18.1502 91.3341 17.2999 91.2613 16.4121C91.1138 14.6015 89.6361 13.3185 87.8218 13.4293Z" fill="white"/>
<path d="M112.655 23.9179C115.277 18.354 123.023 2.3147 123.023 2.3147L111.923 5.46036C111.199 7.11791 109.718 11.279 106.315 18.7541L102.964 3.01124L93.873 6.00561C96.5312 18.236 99.1888 30.4665 101.852 42.6951C102.616 46.2038 103.412 49.7059 104.222 53.3387C106.919 53.0924 109.444 52.8619 112.169 52.6125C111.081 45.3342 110.036 38.3403 108.902 30.7575C117.326 37.5306 125.238 43.8927 133.306 50.3795C136.607 46.0259 139.794 41.823 143.153 37.3938C132.881 32.8551 122.808 28.4041 112.655 23.9179Z" fill="white"/>
<path d="M104.22 55.3346C103.3 55.3346 102.49 54.6938 102.285 53.7757C102.027 52.6186 101.771 51.4755 101.516 50.3408C100.96 47.8614 100.435 45.5194 99.9134 43.1224C97.6567 32.7583 95.3664 22.2205 93.1512 12.0289L91.9347 6.43169C91.7174 5.43195 92.288 4.42859 93.2554 4.11027L102.346 1.1159C102.881 0.939797 103.465 1.00031 103.953 1.28232C104.441 1.56433 104.787 2.0412 104.905 2.59432L106.977 12.3272C108.011 9.89264 108.748 8.03599 109.272 6.7143C109.632 5.80837 109.892 5.15358 110.107 4.65976C110.346 4.11329 110.815 3.70299 111.386 3.5408L122.486 0.395147C123.238 0.182128 124.045 0.432667 124.546 1.03481C125.047 1.63755 125.15 2.47934 124.809 3.18618C124.739 3.33081 118.448 16.3588 115.327 22.9195L143.952 35.5681C144.509 35.8144 144.923 36.3033 145.075 36.8958C145.226 37.4883 145.1 38.1176 144.732 38.6042L134.884 51.5899C134.561 52.0171 134.079 52.2949 133.549 52.3602C133.019 52.4256 132.484 52.2737 132.067 51.9384L111.617 35.496L114.131 52.3179C114.213 52.8613 114.067 53.4138 113.73 53.8459C113.393 54.278 112.892 54.5509 112.348 54.6006L104.401 55.3268C104.34 55.3316 104.28 55.3346 104.22 55.3346ZM96.194 7.34065L97.0277 11.1774C99.2423 21.3684 101.533 31.9062 103.789 42.2691C104.309 44.654 104.832 46.99 105.387 49.4633C105.516 50.0382 105.645 50.6149 105.775 51.1947L109.894 50.8183L106.94 31.0547C106.818 30.2432 107.204 29.4395 107.911 29.0298C108.619 28.6201 109.504 28.6879 110.141 29.2005L132.959 47.5467L140.046 38.2005L111.857 25.7438C111.366 25.5271 110.983 25.1199 110.796 24.6145C110.609 24.1098 110.632 23.55 110.862 23.0629C112.645 19.2806 116.835 10.5759 119.311 5.43921L113.385 7.11855C113.259 7.43203 113.116 7.7921 112.957 8.19212C112.073 10.4209 110.593 14.1518 108.12 19.5844C107.764 20.3663 106.948 20.831 106.099 20.7372C105.248 20.6434 104.554 20.0128 104.375 19.1717L101.485 5.59777L96.194 7.34065Z" fill="white"/>
<path d="M82.4555 28.752C78.1679 32.0417 74.4299 34.9089 70.1958 38.1569C73.7786 40.6362 77.1109 42.9431 80.5281 45.3081C79.054 47.2701 79.5331 46.8174 78.2419 48.3824C69.3826 48.835 59.2832 49.2169 47.794 49.6454C47.422 49.6593 47.2167 48.9815 47.4148 48.3297C48.6283 44.3326 49.9796 40.2495 51.3996 35.8415C56.3211 34.1289 66.0954 30.4337 66.2007 30.2504C65.9112 30.0501 57.4732 24.425 53.256 21.6243C51.9101 20.8866 52.0208 19.3925 53.2253 16.3545C55.0654 11.7123 56.6564 7.182 58.5784 1.99512C66.598 10.9825 74.4335 19.7628 82.4555 28.752Z" fill="black"/>
<path d="M93.4185 51.3576C91.0589 50.6677 89.1074 50.2023 87.2498 49.4888C86.7201 49.2855 86.2048 48.3959 86.1236 47.7635C85.3091 41.4504 84.6362 35.1185 83.8049 28.8084C83.5984 27.2423 83.9656 26.4114 85.4446 25.7596C88.9015 24.2358 92.2784 22.528 96.1868 20.655C95.2442 31.1141 94.3413 41.1254 93.4185 51.3576Z" fill="black"/>
<path d="M87.7021 11.4382C90.6053 11.2615 93.0022 13.3439 93.2399 16.2493C93.4825 19.2146 91.2921 21.7381 88.3149 21.9239C85.3545 22.1085 82.886 19.8603 82.768 16.872C82.6542 13.9823 84.8044 11.6143 87.7021 11.4382Z" fill="black"/>
<path d="M112.655 23.9179C115.277 18.354 123.023 2.3147 123.023 2.3147L111.923 5.46036C111.199 7.11791 109.718 11.279 106.315 18.7541L102.964 3.01124L93.873 6.00561C96.5312 18.236 99.1888 30.4665 101.852 42.6951C102.616 46.2038 103.412 49.7059 104.222 53.3387C106.919 53.0924 109.444 52.8619 112.169 52.6125C111.081 45.3342 110.036 38.3403 108.902 30.7575C117.326 37.5306 125.238 43.8927 133.306 50.3795C136.607 46.0259 139.794 41.823 143.153 37.3938C132.881 32.8551 122.808 28.4041 112.655 23.9179Z" fill="black"/>
<path d="M91.6127 51.4883C94.4291 51.4617 96.6449 53.5955 96.7316 56.4168C96.8201 59.2968 94.5772 61.6279 91.6885 61.6599C88.8161 61.6914 86.5395 59.3936 86.5726 56.4979C86.6051 53.6978 88.8016 51.5143 91.6127 51.4883Z" fill="white"/>
<path d="M91.6292 63.5921C89.7517 63.5921 87.9989 62.8678 86.6867 61.5473C85.3516 60.2044 84.6286 58.4028 84.6509 56.4754C84.6954 52.632 87.7455 49.5922 91.5943 49.5565C91.6177 49.5565 91.6412 49.5559 91.6641 49.5559C93.5048 49.5559 95.2282 50.241 96.5242 51.4888C97.8382 52.7542 98.5936 54.4832 98.6514 56.3568C98.7098 58.2649 98.0266 60.0658 96.727 61.4281C95.4166 62.8018 93.6342 63.5698 91.7086 63.5909C91.6822 63.5915 91.6557 63.5921 91.6292 63.5921ZM91.6635 53.4199C91.6527 53.4199 91.6418 53.4199 91.6304 53.4199C89.8625 53.4362 88.5141 54.7694 88.4943 56.5202C88.484 57.3995 88.8079 58.2146 89.4056 58.8162C89.9913 59.405 90.7799 59.7282 91.631 59.7282C91.643 59.7282 91.6557 59.7282 91.6677 59.7282C92.5526 59.7185 93.364 59.3729 93.9539 58.7544C94.5329 58.1475 94.8369 57.3384 94.8104 56.4766C94.7569 54.7283 93.4061 53.4199 91.6635 53.4199Z" fill="white"/>
<path d="M91.6107 51.4883C94.4272 51.4617 96.6429 53.5955 96.7296 56.4168C96.8181 59.2968 94.5753 61.6279 91.6866 61.6599C88.8141 61.6914 86.5376 59.3936 86.5707 56.4979C86.6032 53.6978 88.7997 51.5143 91.6107 51.4883Z" fill="black"/>
<path d="M119.671 71.9108C123.843 66.1975 136.077 49.769 136.077 49.769L122.849 50.8897C121.672 52.6048 119.095 56.982 113.627 64.6845L113.254 46.1567L102.33 47.5474C102.681 61.9528 103.031 76.3582 103.387 90.7636C103.489 94.8969 103.629 99.029 103.756 103.313C106.858 103.626 109.762 103.919 112.896 104.235C113.246 95.7708 113.582 87.6373 113.946 78.8182C121.998 88.3205 129.559 97.2456 137.27 106.347C141.946 102.15 146.46 98.0988 151.217 93.8294C140.592 86.4475 130.173 79.2079 119.671 71.9108Z" fill="white"/>
<path d="M137.271 108.643C137.219 108.643 137.167 108.641 137.115 108.638C136.502 108.595 135.931 108.307 135.532 107.836L115.987 84.7675L115.179 104.331C115.153 104.963 114.869 105.556 114.394 105.97C113.919 106.385 113.294 106.584 112.668 106.52L103.529 105.598C102.387 105.483 101.508 104.534 101.474 103.382C101.433 102.017 101.391 100.668 101.35 99.3296C101.26 96.4055 101.174 93.6441 101.105 90.821C100.796 78.3527 100.488 65.6751 100.189 53.4156L100.048 47.6036C100.019 46.4259 100.881 45.4171 102.044 45.2694L112.968 43.8788C113.611 43.7971 114.258 43.9931 114.748 44.4192C115.238 44.8446 115.526 45.4595 115.539 46.1106L115.77 57.5652C117.467 55.0399 118.702 53.1027 119.582 51.7248C120.184 50.7795 120.62 50.0969 120.971 49.5861C121.359 49.0209 121.978 48.6596 122.659 48.6021L135.887 47.4813C136.785 47.4057 137.641 47.8656 138.077 48.6566C138.513 49.4475 138.447 50.4218 137.908 51.1462C137.798 51.2945 127.861 64.639 122.909 71.3691L152.518 91.9424C153.094 92.3424 153.455 92.9863 153.499 93.6889C153.542 94.3915 153.263 95.0753 152.74 95.5443L138.794 108.062C138.372 108.437 137.83 108.643 137.271 108.643ZM113.946 76.5221C114.604 76.5221 115.244 76.8077 115.685 77.3294L137.493 103.068L147.53 94.0592L118.372 73.7988C117.865 73.446 117.521 72.902 117.418 72.2902C117.316 71.6783 117.465 71.0508 117.83 70.5509C120.665 66.6669 127.29 57.748 131.202 52.4855L124.141 53.084C123.93 53.4108 123.691 53.786 123.425 54.2029C121.942 56.5286 119.46 60.4204 115.486 66.0182C114.914 66.8237 113.893 67.1704 112.952 66.8781C112.011 66.5858 111.363 65.7205 111.343 64.731L111.022 48.7558L104.663 49.5655L104.754 53.3036C105.053 65.5631 105.361 78.2396 105.67 90.7072C105.739 93.5158 105.824 96.2705 105.915 99.1874C105.936 99.8652 105.957 100.546 105.978 101.23L110.714 101.709L111.664 78.7243C111.703 77.7802 112.313 76.9566 113.201 76.6486C113.446 76.5632 113.698 76.5221 113.946 76.5221Z" fill="white"/>
<path d="M119.671 71.9108C123.843 66.1975 136.077 49.769 136.077 49.769L122.849 50.8897C121.672 52.6048 119.095 56.982 113.627 64.6845L113.254 46.1567L102.33 47.5474C102.681 61.9528 103.031 76.3582 103.387 90.7636C103.489 94.8969 103.629 99.029 103.756 103.313C106.858 103.626 109.762 103.919 112.896 104.235C113.246 95.7708 113.582 87.6373 113.946 78.8182C121.998 88.3205 129.559 97.2455 137.27 106.347C141.946 102.15 146.46 98.0988 151.217 93.8294C140.592 86.4475 130.173 79.2079 119.671 71.9108Z" fill="black"/>
<path d="M82.4629 70.4559C77.9483 75.621 74.0134 80.1234 69.5554 85.2238C74.625 87.4078 79.3406 89.4388 84.176 91.5224C82.8306 94.3309 83.3134 93.6483 82.0969 95.9177C71.1951 98.7027 58.7338 101.711 44.5569 105.126C44.0982 105.237 43.6744 104.445 43.7587 103.585C44.2752 98.3117 44.9421 92.8961 45.6133 87.0599C51.3064 83.6957 62.541 76.6504 62.6265 76.3962C62.2172 76.2195 50.3307 71.3437 44.3925 68.9194C42.5361 68.3402 42.3032 66.4545 43.0466 62.3751C44.1825 56.1419 45.0354 50.1108 46.1376 43.1804C58.3389 52.342 70.2591 61.2925 82.4629 70.4559Z" fill="white"/>
<path d="M44.4647 107.666C43.7628 107.666 43.079 107.407 42.5192 106.917C41.6013 106.113 41.1167 104.741 41.2539 103.337C41.6416 99.3769 42.1105 95.3689 42.6065 91.1261C42.772 89.71 42.943 88.2461 43.1133 86.7695C43.2036 85.9809 43.6575 85.2814 44.3377 84.8789C48.0595 82.6797 53.5925 79.2478 57.2595 76.921C53.2283 75.2664 47.3215 72.8458 43.5299 71.2978C42.2694 70.8741 40.7266 69.8587 40.2716 67.4283C40.0212 66.0927 40.1109 64.4449 40.5707 61.9195C41.3527 57.627 42.004 53.4036 42.6932 48.932C42.9984 46.9531 43.3138 44.907 43.6521 42.7811C43.7911 41.9066 44.3744 41.1695 45.1906 40.8367C46.0069 40.5038 46.9363 40.6243 47.6417 41.1538L83.967 68.4293C84.5292 68.8517 84.891 69.4907 84.9638 70.1927C85.0367 70.8947 84.8152 71.5955 84.3517 72.1256L73.7346 84.2732L85.1655 89.1974C85.7963 89.4691 86.2899 89.9883 86.5307 90.6347C86.7715 91.281 86.7396 91.9981 86.4416 92.6202C85.88 93.793 85.6573 94.3147 85.4785 94.7341C85.1974 95.3931 85.018 95.7986 84.3107 97.1178C83.9767 97.7411 83.3982 98.195 82.7156 98.3693C71.4057 101.259 58.0541 104.475 45.1425 107.586C44.9174 107.64 44.6898 107.666 44.4647 107.666ZM47.968 88.5983C47.8458 89.6549 47.7236 90.6982 47.6044 91.7173C47.1849 95.3047 46.7852 98.7227 46.4397 102.071C58.1438 99.251 70.0773 96.3668 80.3927 93.7422C80.5938 93.3434 80.6949 93.1134 80.8171 92.8278L68.564 87.5495C67.823 87.23 67.2788 86.5734 67.1007 85.7824C66.9225 84.9921 67.1326 84.1636 67.6647 83.5542L78.7735 70.8439L47.974 47.7168C47.8705 48.388 47.7681 49.0506 47.667 49.7066C46.9724 54.2133 46.3157 58.4706 45.5211 62.8309C45.0727 65.2909 45.1503 66.2156 45.2213 66.5309C45.2611 66.5448 45.3002 66.5599 45.3393 66.5756C50.8423 68.822 63.1417 73.8655 63.6172 74.0706C64.8247 74.5905 65.4309 75.9569 65.0095 77.2072C64.7236 78.0563 64.1391 78.4563 63.5203 78.8793C63.1844 79.1093 62.7059 79.4258 62.0967 79.8209C60.9512 80.5641 59.3802 81.562 57.5539 82.7076C54.8054 84.4311 50.9982 86.7858 47.968 88.5983Z" fill="white"/>
<path d="M82.4629 70.4559C77.9483 75.621 74.0134 80.1234 69.5554 85.2238C74.625 87.4078 79.3406 89.4388 84.176 91.5224C82.8306 94.3309 83.3134 93.6483 82.0969 95.9177C71.1951 98.7027 58.7338 101.711 44.5569 105.126C44.0982 105.237 43.6744 104.445 43.7587 103.585C44.2752 98.3117 44.9421 92.8961 45.6133 87.0599C51.3064 83.6957 62.541 76.6504 62.6265 76.3962C62.2172 76.2195 50.3307 71.3437 44.3925 68.9194C42.5361 68.3402 42.3032 66.4545 43.0466 62.3751C44.1825 56.1419 45.0354 50.1108 46.1376 43.1804C58.3389 52.342 70.2591 61.2925 82.4629 70.4559Z" fill="black"/>
<path d="M95.7835 96.1198C93.0741 95.3023 90.8325 94.7461 88.7022 93.9061C88.0949 93.6665 87.511 92.6371 87.4231 91.9085C86.5497 84.6338 85.8382 77.3391 84.9443 70.0674C84.7228 68.2628 85.1532 67.3097 86.8621 66.5744C90.8566 64.8557 94.7602 62.924 99.2783 60.8083C98.0883 72.8379 96.9482 84.3524 95.7835 96.1198Z" fill="white"/>
<path d="M95.7843 98.4165C95.564 98.4165 95.3431 98.3845 95.1276 98.3197C94.3655 98.0897 93.6378 97.8798 92.9341 97.677C91.1626 97.1663 89.4898 96.6839 87.8688 96.0443C86.3356 95.4397 85.3268 93.6043 85.1564 92.1845C84.7435 88.7454 84.3607 85.2499 83.9911 81.8701C83.5775 78.0896 83.1496 74.1802 82.6788 70.3495C82.3231 67.452 83.3669 65.5814 85.9648 64.4642C88.7374 63.2715 91.5039 61.9558 94.4329 60.5633C95.6807 59.9703 96.9713 59.3566 98.3148 58.7273C99.0588 58.3787 99.9316 58.4586 100.601 58.936C101.27 59.4135 101.633 60.2154 101.552 61.036L98.0572 96.3475C97.9898 97.0301 97.622 97.6468 97.055 98.028C96.6752 98.284 96.2321 98.4165 95.7843 98.4165ZM89.804 91.8723C91.0314 92.3395 92.3249 92.7225 93.7834 93.1437L96.6077 64.6089C96.5337 64.644 96.4597 64.6791 96.3856 64.7142C93.4169 66.1254 90.613 67.4586 87.7616 68.6853C87.3824 68.8487 87.2379 68.9661 87.197 69.0042C87.1826 69.0635 87.1488 69.2741 87.2114 69.7861C87.6858 73.6471 88.1156 77.5722 88.5309 81.3672C88.8987 84.7295 89.2791 88.2062 89.6884 91.6151C89.7053 91.6816 89.7546 91.7881 89.804 91.8723Z" fill="white"/>
<path d="M95.7835 96.1198C93.0741 95.3023 90.8325 94.7461 88.7022 93.9061C88.0949 93.6665 87.511 92.6371 87.4231 91.9085C86.5497 84.6338 85.8382 77.3391 84.9443 70.0674C84.7228 68.2628 85.1532 67.3097 86.8621 66.5744C90.8566 64.8557 94.7602 62.924 99.2783 60.8083C98.0883 72.8379 96.9482 84.3524 95.7835 96.1198Z" fill="black"/>
<path d="M24.1764 61.7591C35.8278 59.8045 44.895 55.9418 44.4285 53.1316C43.9621 50.3214 34.1387 49.6279 22.4873 51.5826C10.8359 53.5372 1.76874 57.3999 2.23518 60.2101C2.70161 63.0203 12.525 63.7138 24.1764 61.7591Z" fill="white"/>
<path d="M12.0043 64.5925C10.9087 64.5925 9.86737 64.5586 8.89103 64.4896C6.71561 64.3359 4.94651 64.0133 3.63248 63.5304C1.80559 62.8587 0.766036 61.8365 0.542716 60.4925C0.319397 59.1478 0.972502 57.8418 2.48337 56.6103C3.56987 55.7243 5.13913 54.8414 7.14721 53.9863C11.0929 52.3058 16.44 50.8473 22.2035 49.8802C27.9677 48.9132 33.4959 48.5471 37.7703 48.8484C39.9457 49.0021 41.7148 49.3247 43.0289 49.8076C44.8558 50.4794 45.8953 51.5015 46.1186 52.8456C46.3419 54.1896 45.6888 55.4962 44.178 56.7277C43.0915 57.6137 41.5222 58.4966 39.5141 59.3517C35.569 61.0323 30.2214 62.4907 24.4578 63.4578C20.0113 64.2039 15.7038 64.5925 12.0043 64.5925ZM4.02494 59.9079C4.22298 60.0477 4.65517 60.2825 5.5316 60.5148C6.66626 60.8162 8.21806 61.0183 10.0191 61.1C13.904 61.2761 18.8315 60.9052 23.8944 60.0555C28.9573 59.2059 33.7373 57.9483 37.355 56.5135C39.032 55.8484 40.4339 55.1506 41.4103 54.4952C42.1639 53.9893 42.4968 53.6262 42.6388 53.4296C42.4408 53.2898 42.0086 53.055 41.1322 52.8226C39.9975 52.5212 38.4457 52.3191 36.6447 52.2374C32.7598 52.0613 27.8323 52.4322 22.77 53.2819C17.707 54.1315 12.927 55.3891 9.30938 56.8239C7.63237 57.489 6.23045 58.1868 5.2541 58.8422C4.49987 59.3475 4.167 59.7112 4.02494 59.9079Z" fill="white"/>
<path d="M18.6893 68.8631C18.5779 71.3958 15.9011 73.3341 12.7102 73.1925C9.51933 73.0509 7.02309 70.8826 7.13444 68.3493C7.2458 65.8167 9.92263 63.8784 13.1135 64.02C16.3044 64.1622 18.8006 66.3305 18.6893 68.8631Z" fill="white"/>
<path d="M13.0399 74.9246C12.9051 74.9246 12.7702 74.9215 12.6348 74.9155C10.708 74.8296 8.90638 74.1397 7.56285 72.9729C6.12542 71.7244 5.3447 70.0112 5.42115 68.2738C5.49759 66.5358 6.42579 64.8988 7.96736 63.7828C9.4084 62.7395 11.263 62.2124 13.1898 62.2978C15.1166 62.3837 16.9176 63.0736 18.2617 64.2404C19.6992 65.4888 20.4799 67.202 20.4034 68.9395C20.327 70.6775 19.3988 72.3145 17.8572 73.4304C16.5179 74.4005 14.8204 74.9246 13.0399 74.9246ZM12.7925 65.7381C11.7367 65.7381 10.7206 66.0401 9.97242 66.5817C9.57032 66.8728 8.88953 67.4998 8.8492 68.4263C8.80827 69.3528 9.43127 70.0372 9.80628 70.3628C10.5575 71.0152 11.644 71.4188 12.7865 71.4697C12.869 71.4733 12.9514 71.4751 13.0327 71.4751C15.1304 71.4751 16.9104 70.2811 16.976 68.787C17.0169 67.8605 16.3939 67.176 16.0189 66.8504C15.2677 66.1981 14.1812 65.7944 13.0387 65.7436C12.9562 65.74 12.8744 65.7381 12.7925 65.7381Z" fill="white"/>
<path d="M14.2175 73.3062C14.3247 75.2494 12.6073 76.9257 10.3808 77.0498C8.15419 77.1744 6.26229 75.6997 6.15514 73.7565C6.048 71.8133 7.76533 70.137 9.99191 70.0129C12.2185 69.8888 14.1104 71.363 14.2175 73.3062Z" fill="white"/>
<path d="M10.1216 78.7824C7.10952 78.7824 4.59702 76.6341 4.44292 73.8527C4.28341 70.963 6.7303 68.4679 9.89771 68.2912C13.0651 68.1139 15.772 70.321 15.9316 73.2106C16.0116 74.657 15.4572 76.0374 14.3701 77.0982C13.3486 78.0949 11.966 78.6892 10.4768 78.7721C10.3576 78.7788 10.239 78.7824 10.1216 78.7824ZM10.2486 71.731C10.1957 71.731 10.1421 71.7322 10.0879 71.7352C8.83107 71.8054 7.81499 72.6872 7.86857 73.6615C7.92274 74.6352 9.02911 75.3983 10.2866 75.3281C10.9415 75.2918 11.5585 75.0346 11.9804 74.6225C12.1905 74.4173 12.5378 73.9865 12.5053 73.4019C12.4541 72.4699 11.4375 71.731 10.2486 71.731Z" fill="white"/>
<path d="M11.0581 77.4263C11.1321 78.768 9.96855 79.9245 8.45888 80.0086C6.94921 80.0927 5.66528 79.0736 5.59124 77.7319C5.5172 76.3903 6.68075 75.2338 8.19042 75.1497C9.70008 75.065 10.984 76.0841 11.0581 77.4263Z" fill="white"/>
<path d="M8.28403 81.7381C7.23304 81.7381 6.226 81.3949 5.42421 80.7583C4.50505 80.0285 3.94163 78.9597 3.87903 77.8269C3.75262 75.5375 5.64392 73.5635 8.09562 73.4267C10.5467 73.2899 12.6445 75.0407 12.7715 77.33C12.8979 79.6194 11.006 81.5934 8.5549 81.7302C8.46461 81.7356 8.37432 81.7381 8.28403 81.7381ZM8.3665 76.8689C8.34001 76.8689 8.31353 76.8695 8.28644 76.8713C7.6851 76.9046 7.28662 77.301 7.30528 77.6362C7.31551 77.8269 7.44493 77.9673 7.55147 78.0514C7.76155 78.2178 8.0577 78.3037 8.36529 78.2862C8.96663 78.2529 9.36512 77.8565 9.34706 77.5213C9.3284 77.2023 8.9263 76.8689 8.3665 76.8689Z" fill="white"/>
<path d="M7.64876 79.4519C8.82194 79.156 9.94877 79.7424 10.2943 81.3116C10.6025 82.7113 9.79889 84.5601 10.4105 84.9741C9.23366 84.9964 6.73922 84.5728 6.11501 82.3525C5.72676 80.9727 6.47557 79.7478 7.64876 79.4519Z" fill="white"/>
<path d="M10.331 86.6993C9.77417 86.6993 8.57571 86.6255 7.35738 86.0791C5.87781 85.4152 4.87739 84.289 4.46506 82.8214C4.15024 81.7007 4.28026 80.5563 4.83104 79.5989C5.35834 78.6827 6.21129 78.0364 7.23157 77.7792C8.2645 77.519 9.30225 77.6666 10.154 78.1961C10.7945 78.5943 11.63 79.3932 11.97 80.9394C12.1765 81.878 12.0573 82.8154 11.9616 83.5682C11.94 83.7401 11.9129 83.9525 11.899 84.1147C12.1272 84.5141 12.1928 84.9988 12.0573 85.4618C11.846 86.1837 11.1929 86.6848 10.4441 86.6987C10.4098 86.6987 10.3719 86.6993 10.331 86.6993ZM11.3681 83.5422C11.3687 83.5428 11.3687 83.5428 11.3693 83.5428C11.3693 83.5428 11.3687 83.5428 11.3681 83.5422ZM8.06647 81.1245C7.9214 81.1615 7.84134 81.2547 7.79981 81.3267C7.71614 81.4719 7.7047 81.6644 7.7661 81.8828C7.89431 82.3391 8.21695 82.6429 8.59316 82.8456C8.64493 82.4135 8.68285 81.9718 8.61965 81.6837C8.54681 81.3533 8.42883 81.1784 8.34998 81.1294C8.27052 81.0804 8.12546 81.1094 8.06647 81.1245Z" fill="white"/>
<path d="M29.5549 67.6686L22.1777 68.0808L22.63 76.2613L30.0071 75.849L29.5549 67.6686Z" fill="white"/>
<path d="M22.627 77.9832C21.7228 77.9832 20.9662 77.2727 20.9156 76.3541L20.4636 68.174C20.4383 67.7171 20.5948 67.2693 20.8982 66.9286C21.2016 66.5879 21.6271 66.3821 22.0816 66.3567L29.4584 65.9446C30.4052 65.8919 31.2136 66.62 31.2666 67.5707L31.7187 75.7507C31.771 76.702 31.0469 77.5154 30.1007 77.5686L22.7239 77.9807C22.6914 77.9826 22.6589 77.9832 22.627 77.9832ZM23.9843 69.7045L24.2462 74.4405L28.1973 74.2196L27.9355 69.4836L23.9843 69.7045Z" fill="white"/>
<path d="M37.0033 56.8942C37.0033 56.8942 36.7999 60.5028 36.5242 63.1576C36.1925 66.3475 33.0414 69.8544 26.3682 70.1746C18.3125 70.5606 15.2522 68.6247 13.8714 60.8792C12.4399 52.8498 24.3505 52.8226 24.3505 52.8226L35.9469 52.3342L37.0033 56.8942Z" fill="white"/>
<path d="M24.5857 71.9447C20.9319 71.9447 18.4911 71.3311 16.616 69.9773C14.3413 68.3349 12.9743 65.6231 12.1827 61.1836C11.7638 58.8332 12.2652 56.7199 13.6328 55.0727C15.0365 53.3818 17.2926 52.1999 20.339 51.5597C22.3411 51.1385 24.0241 51.1016 24.3076 51.0985L35.8757 50.6114C36.6968 50.5769 37.4311 51.1361 37.6183 51.9433L38.6747 56.5033C38.7121 56.6636 38.7259 56.8283 38.7169 56.9923C38.7084 57.1411 38.508 60.6723 38.2311 63.3374C38.0036 65.5263 36.8153 67.5724 34.8855 69.0986C32.7763 70.7665 29.8599 71.7347 26.4505 71.8981C25.7956 71.929 25.1744 71.9447 24.5857 71.9447ZM34.5984 54.1171L24.422 54.5456C24.3991 54.5468 24.3768 54.5468 24.354 54.5468C22.7293 54.5552 18.1034 55.0636 16.2627 57.287C15.5488 58.1493 15.3188 59.2247 15.559 60.5748C16.7515 67.2619 18.8564 68.8075 26.2862 68.4517C31.8138 68.1866 34.5538 65.5118 34.8175 62.978C35.045 60.7885 35.225 57.894 35.2762 57.0419L34.5984 54.1171Z" fill="white"/>
<path d="M22.0926 62.1651C22.1395 63.0148 21.4924 63.7416 20.6473 63.7894C19.8022 63.8366 19.0793 63.1861 19.0317 62.3364C18.9847 61.4867 19.6318 60.7599 20.477 60.7121C21.3227 60.6649 22.0462 61.3155 22.0926 62.1651Z" fill="white"/>
<path d="M20.561 65.5166C18.8515 65.5166 17.4158 64.1689 17.3195 62.432C17.2202 60.6341 18.5944 59.0903 20.3822 58.9904C22.1699 58.8906 23.7061 60.2722 23.8054 62.0701C23.8536 62.941 23.5616 63.7785 22.9832 64.4285C22.4047 65.0784 21.6089 65.4633 20.7427 65.5117C20.682 65.5147 20.6212 65.5166 20.561 65.5166ZM20.3798 62.2608C20.3852 62.3618 20.4737 62.4399 20.5724 62.4344C20.6735 62.429 20.7506 62.3419 20.7452 62.2408C20.7397 62.1397 20.6519 62.0617 20.5525 62.0671C20.5345 62.0683 20.4731 62.0756 20.4261 62.1282C20.3792 62.1809 20.3786 62.2432 20.3798 62.2608Z" fill="white"/>
<path d="M32.866 61.3507C32.913 62.2004 32.2659 62.9272 31.4207 62.9744C30.5756 63.0216 29.8527 62.3711 29.8051 61.5214C29.7582 60.6717 30.4053 59.9449 31.2504 59.8971C32.0961 59.8505 32.8191 60.5011 32.866 61.3507Z" fill="white"/>
<path d="M31.3321 64.7016C30.5327 64.7016 29.7712 64.4099 29.1705 63.8695C28.524 63.2879 28.1412 62.4879 28.093 61.617C28.0449 60.7462 28.3368 59.9086 28.9153 59.2581C29.4937 58.6081 30.2895 58.2233 31.1557 58.1748C32.0225 58.1264 32.855 58.4199 33.5021 59.0015C34.1485 59.5831 34.5314 60.3831 34.5795 61.2539C34.6277 62.1248 34.3357 62.9623 33.7573 63.6123C33.1788 64.2622 32.3831 64.6471 31.5169 64.6955C31.4549 64.7004 31.3935 64.7016 31.3321 64.7016ZM31.1533 61.4464C31.1545 61.4645 31.1617 61.5263 31.2141 61.5735C31.2665 61.6207 31.3285 61.6213 31.3465 61.6201C31.3646 61.6188 31.426 61.6116 31.4723 61.5589C31.5193 61.5063 31.5199 61.444 31.5187 61.4258C31.5175 61.4082 31.5102 61.3459 31.4579 61.2987C31.4055 61.2515 31.3435 61.2509 31.3254 61.2521C31.308 61.2533 31.246 61.2606 31.1996 61.3132C31.1527 61.3665 31.1527 61.4288 31.1533 61.4464Z" fill="white"/>
<path d="M24.4199 65.1821C24.4199 65.1821 25.2163 66.0402 26.5213 65.9519C27.8504 65.8617 28.2043 64.8953 28.2043 64.8953" fill="white"/>
<path d="M26.3304 67.6832C24.4518 67.6832 23.2978 66.5007 23.166 66.3591L25.6749 64.0062C25.6749 64.0062 25.6635 63.9923 25.64 63.9699C25.6719 63.9995 25.9626 64.2616 26.4063 64.2313C26.5471 64.2216 26.6212 64.1908 26.6482 64.1696C27.0196 63.3617 27.9526 62.9641 28.7978 63.277C29.6868 63.6062 30.1419 64.598 29.8144 65.4919C29.54 66.2405 28.5624 67.5428 26.6374 67.6729C26.5333 67.6795 26.4309 67.6832 26.3304 67.6832ZM26.5959 64.2967C26.5959 64.2973 26.5953 64.2979 26.5953 64.2985C26.5959 64.2979 26.5959 64.2973 26.5959 64.2967ZM26.5971 64.2948C26.5971 64.2955 26.5965 64.2961 26.5965 64.2967C26.5965 64.2961 26.5965 64.2955 26.5971 64.2948ZM26.5977 64.293C26.5977 64.2936 26.5971 64.2942 26.5971 64.2942C26.5971 64.2936 26.5971 64.293 26.5977 64.293Z" fill="white"/>
<path d="M35.8439 57.3946C34.451 57.61 31.5033 57.7298 30.7575 57.7577C30.6792 57.7607 30.6239 57.6808 30.6546 57.6082C31.2625 56.1588 30.3861 54.5769 30.3861 54.5769C30.3861 54.5769 30.5209 56.7246 28.6934 57.8484C26.8611 58.9753 21.0765 59.057 19.9954 59.0624C19.9159 59.063 19.8642 58.9789 19.8991 58.9069C20.752 57.141 20.238 55.7884 20.238 55.7884C20.238 55.7884 18.7783 59.3293 15.284 60.4143C14.8229 60.5578 14.5147 60.9935 14.5195 61.4788C14.5394 63.2974 15.0715 67.4942 19.3008 69.8574C19.3008 69.8574 8.29428 69.717 6.84842 61.943C5.40256 54.1696 11.3865 53.2607 11.3865 53.2607C11.3865 53.2607 35.6645 47.3052 38.8349 51.706C41.9307 56.0027 37.0177 60.1941 37.0177 60.1941L36.4711 57.823C36.4037 57.5368 36.131 57.3504 35.8439 57.3946Z" fill="white"/>
<path d="M19.3 71.5809C19.2927 71.5809 19.2855 71.5809 19.2777 71.5809C19.1543 71.5791 16.2162 71.5301 13.0609 70.4462C8.60409 68.9158 5.87188 66.0848 5.16039 62.2589C4.57891 59.1339 4.98883 56.5528 6.37811 54.5878C8.03887 52.2392 10.4749 51.6715 11.0365 51.5693C11.7179 51.4035 17.4659 50.0261 23.6743 49.1244C27.5219 48.5658 30.7416 48.3104 33.2439 48.3661C36.92 48.4478 39.1375 49.1867 40.2216 50.6924C41.8745 52.9872 42.0082 55.7141 40.5978 58.3713C39.6305 60.1941 38.2761 61.3778 38.1244 61.5073C37.6682 61.8964 37.0434 62.0187 36.4751 61.8293C35.9069 61.6405 35.4783 61.1672 35.3429 60.5814L35.0305 59.2264C33.5021 59.3729 31.5067 59.4546 30.8187 59.48C30.4413 59.4933 30.0801 59.3923 29.7743 59.1968C29.7129 59.2379 29.6503 59.2785 29.5859 59.3184C28.9376 59.7172 27.6754 60.2825 24.2124 60.5923C22.3723 60.7569 20.6543 60.7823 20.0012 60.7854C19.9976 60.7854 19.994 60.7854 19.9904 60.7854C19.5654 60.7854 19.1651 60.6395 18.8461 60.3793C18.1268 60.9778 17.2648 61.5218 16.2475 61.9025C16.3529 63.7319 17.0475 66.624 20.1312 68.3475C20.8181 68.7312 21.1576 69.5349 20.9553 70.2986C20.7573 71.0563 20.0765 71.5809 19.3 71.5809ZM11.6511 54.9637C11.5241 54.9885 10.0602 55.3044 9.15005 56.623C8.34164 57.7946 8.13397 59.4776 8.53366 61.6253C9.11333 64.7425 11.7528 66.368 14.2762 67.2147C13.0338 64.9786 12.8165 62.7056 12.8032 61.4964C12.7894 60.2534 13.6008 59.1302 14.777 58.7653C17.384 57.9562 18.6023 55.2408 18.6541 55.1222C18.9165 54.471 19.5419 54.0541 20.2402 54.0541C20.245 54.0541 20.2498 54.0541 20.2546 54.0541C20.9607 54.0601 21.5873 54.5086 21.8389 55.1712C21.8889 55.3032 22.1724 56.1092 22.0894 57.2796C22.6516 57.253 23.2764 57.2143 23.9096 57.1574C26.8254 56.8966 27.6597 56.4614 27.797 56.3767C28.6541 55.8496 28.6728 54.8105 28.6716 54.6732C28.6011 53.8659 29.1026 53.1439 29.8736 52.9031C30.6489 52.661 31.4887 53.0247 31.8835 53.7376C31.9654 53.8858 32.4349 54.7754 32.5559 55.9489C33.7532 55.8823 34.9137 55.7939 35.5819 55.6905C36.3999 55.5634 37.1975 55.9017 37.6929 56.5141C38.2069 55.4091 38.4013 54.0462 37.4436 52.7167C37.3877 52.6392 35.937 50.8328 24.1871 52.5357C17.8752 53.4507 11.8516 54.9207 11.7914 54.9352C11.733 54.9497 11.7071 54.9558 11.6511 54.9637Z" fill="white"/>
<path d="M43.3281 51.832C39.2253 48.9847 27.7559 42.8398 20.083 40.0022C14.4608 45.4009 5.89763 54.358 2.79102 58.6777C5.06153 56.1462 12.9566 53.1791 22.4853 51.5803C32.061 49.9741 40.4015 50.1563 43.3281 51.832Z" fill="white"/>
<path d="M2.79137 60.4023C2.41155 60.4023 2.03052 60.2764 1.7133 60.0186C1.00421 59.4425 0.867572 58.4094 1.40149 57.6669C4.74587 53.0168 13.8195 43.6325 18.8987 38.7548C19.3718 38.3004 20.0616 38.1563 20.6762 38.3833C28.7747 41.3782 40.2604 47.6072 44.303 50.4122C45.059 50.9368 45.2697 51.9668 44.7809 52.7493C44.2921 53.5312 43.2773 53.7878 42.4791 53.3303C41.9265 53.0138 40.1279 52.27 35.375 52.1992C31.6731 52.1442 27.3138 52.5181 22.768 53.2813C12.9618 54.9267 5.81311 57.8848 4.06568 59.8328C3.72799 60.2092 3.26089 60.4023 2.79137 60.4023ZM20.4908 42.001C17.1133 45.2804 13.1453 49.3592 9.85274 52.9714C13.4608 51.6981 17.7171 50.6318 22.2039 49.8796C26.6421 49.1353 30.9279 48.7455 34.6575 48.7455C34.6774 48.7455 34.6972 48.7455 34.7171 48.7455C30.2332 46.3285 24.8579 43.7039 20.4908 42.001Z" fill="white"/>
<path d="M41.7917 71.2209C41.7917 71.2209 41.4076 70.0826 41.5455 68.885C41.6833 67.6873 41.9891 66.5986 41.9891 66.5986L51.2813 66.9018C51.2813 66.9018 51.4065 68.8135 49.7722 69.9034C48.1379 70.9934 44.622 72.5601 44.622 72.5601L41.7917 71.2209Z" fill="white"/>
<path d="M44.6219 74.2854C44.3721 74.2854 44.1223 74.2304 43.8912 74.1208L41.0615 72.781C40.6401 72.5813 40.3175 72.2182 40.1676 71.7746C40.1158 71.6203 39.6644 70.2241 39.8419 68.6858C39.9942 67.3672 40.3241 66.181 40.3379 66.1308C40.5516 65.3671 41.2553 64.8484 42.045 64.8745L51.3372 65.1777C52.219 65.2067 52.9353 65.9033 52.9931 66.788C53.0636 67.8688 52.6651 70.0438 50.7208 71.3401C48.986 72.4972 45.4659 74.07 45.3172 74.1366C45.0957 74.2358 44.8585 74.2854 44.6219 74.2854ZM43.2766 70.0172L44.6352 70.6605C45.8035 70.1176 47.6726 69.2075 48.7061 68.5436L43.3549 68.3687C43.3151 68.5956 43.2784 68.8377 43.2501 69.084C43.2134 69.3987 43.2357 69.7321 43.2766 70.0172Z" fill="white"/>
<path d="M32.689 76.9891C32.7552 78.1891 28.5591 80.6201 25.7529 80.7768C22.9466 80.9336 19.4692 78.2763 19.403 77.0768C19.3368 75.8774 20.525 72.7172 23.3313 72.5605C26.1381 72.4031 32.6228 75.789 32.689 76.9891Z" fill="white"/>
<path d="M25.504 82.5089C23.449 82.5089 21.5817 81.5068 20.6229 80.8865C19.567 80.2032 17.7817 78.8126 17.6908 77.1732C17.6306 76.0833 18.0917 74.629 18.8652 73.4677C19.93 71.8701 21.4824 70.9363 23.2365 70.8389C25.4625 70.7142 28.5642 72.1115 29.7934 72.7185C30.8877 73.2583 31.8593 73.8314 32.6027 74.3755C33.4081 74.9643 34.3399 75.7831 34.4019 76.8942C34.4753 78.2207 33.375 79.5291 31.1315 80.7824C29.3606 81.7718 27.3857 82.4139 25.8483 82.4998C25.7333 82.5053 25.6184 82.5089 25.504 82.5089ZM21.1309 76.8258C21.3289 77.0951 21.8767 77.6428 22.7898 78.1771C23.8198 78.7793 24.8647 79.0994 25.6575 79.0552C26.5484 79.0056 27.7938 78.6177 28.9892 78.0186C29.6538 77.6851 30.154 77.3632 30.4995 77.1018C29.9391 76.703 29.0259 76.1492 27.7528 75.5616C25.5822 74.5601 24.0659 74.2466 23.4267 74.2823C21.8857 74.3682 21.2344 76.2001 21.1309 76.8258Z" fill="white"/>
<path d="M34.095 78.2995C34.095 78.2995 35.7684 79.6587 38.6727 79.2411C42.2537 78.7261 45.9598 72.3204 45.9598 72.3204L41.1238 70.1479C41.1238 70.1479 39.2458 73.3286 38.1123 73.4981C36.6418 73.7183 31.1485 71.2263 31.1485 71.2263L30.3768 69.5239C27.6115 70.445 26.9295 72.6539 26.9295 72.6539C25.7135 70.5721 22.0351 70.0964 22.0351 70.0964L21.6715 71.964C21.6498 72.0747 20.3262 73.4702 20.3262 73.4702" fill="white"/>
<path d="M37.5677 81.0468C34.8379 81.0468 33.2169 79.8038 33.0171 79.6416L35.1732 76.9583C35.1732 76.9583 35.1648 76.951 35.1485 76.9389C35.1973 76.9753 36.3675 77.831 38.4297 77.5344C39.4283 77.391 40.8429 76.2932 42.3098 74.5225C42.7276 74.0184 43.1032 73.5167 43.4204 73.0695L41.7579 72.3227C41.6495 72.477 41.5345 72.6368 41.4141 72.7978C40.2765 74.3174 39.3362 75.0599 38.3653 75.2051C37.6917 75.3062 36.583 75.2487 33.4691 74.0577C31.8818 73.4508 30.501 72.8256 30.4426 72.7996C30.0634 72.6277 29.7594 72.3233 29.5872 71.9427L29.5637 71.89C28.8637 72.4565 28.6067 73.0695 28.5639 73.1809C28.3803 73.8441 27.8302 74.3034 27.15 74.396C26.465 74.4892 25.8004 74.1279 25.4501 73.5282C25.1034 72.9346 24.2269 72.4867 23.3752 72.1938L23.3553 72.2961C23.2488 72.845 22.9767 73.1409 22.2508 73.9301C21.9119 74.298 21.582 74.6466 21.5682 74.6611C20.9145 75.3504 19.8286 75.3764 19.143 74.7192C18.4573 74.062 18.4315 72.9703 19.0852 72.281C19.4271 71.9209 19.8286 71.487 20.0693 71.2165L20.3517 69.7665C20.525 68.8745 21.3575 68.2711 22.2544 68.3873C22.5873 68.4303 24.8078 68.7553 26.6203 69.9565C27.3582 69.1492 28.4098 68.3637 29.8382 67.8887C30.6701 67.6115 31.5754 68.0091 31.939 68.811L32.4404 69.9166C34.6495 70.8818 36.9321 71.6837 37.7483 71.7799C38.1835 71.4247 39.0359 70.3069 39.6505 69.2685C40.0953 68.5168 41.0301 68.2179 41.8247 68.5749L46.6607 70.7475C47.1049 70.9472 47.4444 71.3272 47.5937 71.7932C47.7429 72.2592 47.6888 72.7663 47.4438 73.1899C47.4029 73.2601 46.4289 74.9352 44.9806 76.6908C42.8769 79.241 40.8363 80.6746 38.9167 80.9506C38.4406 81.0166 37.9909 81.0468 37.5677 81.0468Z" fill="white"/>
<path d="M19.538 103.381C19.538 103.381 18.3973 105.868 17.9609 106.878C17.4191 108.133 21.1987 109.001 22.7469 107.421C24.2951 105.841 25.0541 103.194 25.0541 103.194L19.538 103.381Z" fill="white"/>
<path d="M20.3424 110C19.221 110 18.126 109.706 17.3814 109.201C16.304 108.47 15.9145 107.289 16.3882 106.192C16.827 105.176 17.934 102.761 17.981 102.659C18.2524 102.067 18.8327 101.679 19.481 101.658L24.9966 101.471C25.5455 101.452 26.0698 101.699 26.4075 102.135C26.7452 102.571 26.8548 103.142 26.7025 103.673C26.6122 103.987 25.7707 106.794 23.9691 108.632C23.1468 109.471 21.9261 109.956 20.5314 109.997C20.4688 109.999 20.4056 110 20.3424 110ZM19.9932 106.531C20.5422 106.587 21.2272 106.515 21.5252 106.21C21.855 105.874 22.1512 105.45 22.4064 105.009L20.6554 105.068C20.4543 105.511 20.2124 106.044 19.9932 106.531Z" fill="white"/>
<path d="M19.6386 102.878C19.6386 102.878 18.6099 105.522 18.1241 106.504C17.6383 107.487 21.2987 108.497 22.8469 106.918C24.3951 105.338 25.1542 102.691 25.1542 102.691L19.6386 102.878Z" fill="white"/>
<path d="M20.5341 109.465C19.3164 109.465 18.1498 109.117 17.4251 108.597C16.2772 107.774 16.1772 106.567 16.5878 105.737C16.958 104.989 17.7622 102.966 18.0409 102.25C18.2907 101.608 18.8962 101.177 19.5806 101.154L25.0962 100.968C25.6446 100.949 26.1695 101.196 26.5072 101.632C26.8448 102.067 26.9544 102.639 26.8021 103.169C26.7118 103.483 25.8703 106.29 24.0687 108.129C23.1303 109.086 21.8042 109.465 20.5341 109.465ZM20.2277 106.001C20.3312 106.011 20.4426 106.017 20.5588 106.015C21.0343 106.011 21.4424 105.893 21.6248 105.707C21.9547 105.371 22.2508 104.947 22.5061 104.506L20.817 104.563C20.6424 104.999 20.4324 105.515 20.2277 106.001Z" fill="white"/>
<path d="M35.2275 102.167C35.2275 102.167 36.6463 104.466 37.4192 105.998C37.9128 106.976 33.5415 108.058 31.7062 106.828C30.5848 106.077 29.8359 102.298 29.8359 102.298L35.2275 102.167Z" fill="white"/>
<path d="M34.0098 109.101C33.0334 109.101 31.7657 108.94 30.7551 108.263C29.9232 107.705 29.2948 106.638 28.7157 104.802C28.3636 103.685 28.1625 102.677 28.1541 102.635C28.0554 102.135 28.1806 101.617 28.4972 101.22C28.8138 100.822 29.2887 100.585 29.795 100.573L35.1866 100.443C35.7939 100.428 36.3652 100.738 36.686 101.258C36.7456 101.354 38.1529 103.639 38.9499 105.218C39.3935 106.097 39.1708 107.12 38.3829 107.823C37.3319 108.761 35.4346 109.007 34.8784 109.06C34.6358 109.083 34.339 109.101 34.0098 109.101ZM32.703 105.42C32.9817 105.576 33.6053 105.699 34.4359 105.636C34.7213 105.614 34.9849 105.574 35.2155 105.527C34.8886 104.946 34.5467 104.365 34.2782 103.915L32.0535 103.969C32.2822 104.655 32.5224 105.207 32.703 105.42Z" fill="white"/>
<path d="M35.1377 101.677C35.1377 101.677 36.1881 104.012 37.1686 105.479C37.7772 106.39 33.4516 107.568 31.6163 106.338C30.4949 105.586 29.7461 101.807 29.7461 101.807L35.1377 101.677Z" fill="white"/>
<path d="M33.814 108.591C32.8515 108.591 31.6422 108.428 30.6652 107.773C29.8333 107.216 29.2043 106.148 28.6259 104.312C28.2737 103.195 28.0727 102.187 28.0642 102.144C27.9655 101.645 28.0907 101.127 28.4074 100.729C28.724 100.332 29.1989 100.095 29.7051 100.083L35.0967 99.9524C35.7859 99.936 36.4174 100.335 36.7015 100.966C36.7177 101.002 37.7085 103.194 38.5928 104.517C39.1568 105.361 39.0322 106.436 38.2822 107.193C37.3263 108.158 35.5416 108.452 34.818 108.534C34.5435 108.565 34.1986 108.591 33.814 108.591ZM32.6131 104.93C32.8798 105.078 33.4751 105.19 34.2697 105.122C34.496 105.103 34.7085 105.072 34.9005 105.035C34.5839 104.461 34.2949 103.891 34.0674 103.428L31.9636 103.479C32.1924 104.164 32.4325 104.717 32.6131 104.93Z" fill="white"/>
<path d="M34.2488 79.7905L21.7092 81.4632C21.5762 81.4807 21.4817 81.6012 21.4931 81.7349C22.378 91.7462 18.1367 101.693 17.5986 103.345C17.5546 103.479 17.6293 103.624 17.7635 103.664C20.9784 104.631 26.0606 104.3 27.1279 104.216C27.2452 104.207 27.3398 104.117 27.356 104L27.6473 101.882C27.6889 101.578 28.1325 101.6 28.1452 101.906L28.2258 103.891C28.2312 104.029 28.3468 104.138 28.484 104.132C31.398 104.025 34.1465 103.641 36.0986 102.733C36.1829 102.694 36.24 102.611 36.2449 102.518C36.9533 89.9488 35.0368 81.2859 34.5143 79.9466C34.4721 79.8401 34.3626 79.7754 34.2488 79.7905Z" fill="white"/>
<path d="M23.8646 106.066C21.7921 106.066 19.2543 105.914 17.2709 105.316C16.7671 105.165 16.3379 104.809 16.0941 104.34C15.8497 103.871 15.804 103.313 15.9677 102.809C16.0376 102.594 16.1447 102.304 16.2934 101.902C17.3426 99.0578 20.5365 90.4021 19.784 81.8886C19.6907 80.8308 20.4371 79.8934 21.4833 79.7542L34.0211 78.0815C34.9204 77.9611 35.7794 78.4694 36.1111 79.3185C36.8484 81.2084 38.6549 90.2405 37.9572 102.617C37.9163 103.347 37.4799 103.992 36.8183 104.3C34.8488 105.216 32.1431 105.726 28.5459 105.857C28.322 105.866 28.1053 105.836 27.9018 105.773C27.7026 105.862 27.4865 105.919 27.2607 105.937C26.6383 105.985 25.3749 106.066 23.8646 106.066ZM19.7876 102.345C21.6278 102.63 23.9073 102.66 25.8203 102.57L25.9473 101.646C26.0876 100.625 26.9658 99.8936 27.9891 99.9432C29.013 99.9928 29.8166 100.807 29.8581 101.836L29.878 102.33C31.7988 102.187 33.3722 101.905 34.5791 101.489C34.8662 95.3324 34.5033 90.364 34.1361 87.2238C33.8417 84.7014 33.4818 82.8 33.2175 81.6684L23.2939 82.9925C23.6551 91.1126 21.0264 98.9338 19.7876 102.345ZM34.4744 81.5001H34.472C34.4732 81.5007 34.4738 81.5001 34.4744 81.5001ZM34.4756 81.5001H34.475C34.475 81.5001 34.475 81.5001 34.4756 81.5001Z" fill="white"/>
<path d="M11.9338 87.7007L11.8538 87.7219C11.8538 87.7219 9.02223 88.6514 8.5497 88.9116C7.31573 89.5918 5.52676 91.1029 5.37627 91.3504C5.25709 91.5465 5.76031 92.6485 7.14056 91.9544C8.22044 91.411 8.97528 90.9607 9.43696 90.8312C9.58023 90.7913 9.70724 90.9335 9.65366 91.0727C9.54652 91.3523 9.43636 91.69 9.34005 91.9586C9.01561 92.8646 9.43155 93.4704 10.122 93.2295C10.8455 92.9771 11.4198 91.8158 12.065 91.6095C12.7097 91.4031 14.1171 90.8137 14.0153 89.351C13.9136 87.8883 11.9338 87.7007 11.9338 87.7007Z" fill="white"/>
<path d="M9.82637 95.0087C9.2154 95.0087 8.64356 94.7763 8.20715 94.3321C7.99467 94.1161 7.82973 93.8649 7.71416 93.5884C6.19607 94.2619 4.9657 93.7584 4.30598 93.0365C3.6005 92.2649 3.44279 91.2264 3.91291 90.4512C4.00922 90.292 4.21027 89.9604 5.493 88.9401C5.96733 88.5625 6.8877 87.8605 7.7262 87.3987C8.0055 87.2444 8.85664 86.891 11.3228 86.0819C11.3559 86.071 11.389 86.0613 11.4227 86.0522L11.5028 86.0311C11.696 85.9802 11.897 85.9639 12.0963 85.9832C13.7474 86.1394 15.5881 87.2226 15.7284 89.23C15.8542 91.0364 14.7364 92.513 12.7301 93.2053C12.6447 93.2858 12.508 93.4365 12.4123 93.5424C11.9915 94.0072 11.4679 94.5863 10.6859 94.8586C10.397 94.9597 10.1075 95.0087 9.82637 95.0087ZM10.9815 89.8345C11.0525 89.9259 11.1139 90.0221 11.1669 90.1226C11.2861 90.0621 11.4119 90.0094 11.5455 89.9665C11.932 89.843 12.1306 89.705 12.2143 89.6336C12.245 89.6076 12.266 89.5882 12.2799 89.5719C12.2143 89.5386 12.127 89.5053 12.0349 89.4775C11.6846 89.5943 11.3228 89.7165 10.9815 89.8345Z" fill="white"/>
<path d="M21.7923 72.0269C21.7923 72.0269 18.8928 73.9822 18.2162 75.1217C15.6302 79.4752 13.5415 83.056 10.6504 87.6238L14.1561 90.1419C16.4699 87.9724 19.0625 84.3922 21.3667 80.6874" fill="white"/>
<path d="M14.1545 91.8661C13.8066 91.8661 13.4575 91.7602 13.1577 91.5448L9.65202 89.0267C8.91043 88.4935 8.71239 87.4708 9.20177 86.6974C11.6402 82.8455 13.4713 79.7555 15.5914 76.1772C15.9664 75.5442 16.3486 74.8997 16.7417 74.237C17.5525 72.8717 20.08 71.1035 20.8355 70.5939C21.6222 70.0632 22.6882 70.2744 23.2155 71.0653C23.7434 71.8563 23.5334 72.928 22.7466 73.4582C21.3712 74.3871 19.9416 75.5768 19.6876 76.0047C19.2945 76.6661 18.9135 77.31 18.5391 77.9418C16.6634 81.1075 15.0117 83.8943 12.9657 87.167L13.9673 87.8865C15.7316 85.9851 17.8017 83.1632 19.9109 79.7719C20.4135 78.964 21.4717 78.7189 22.2753 79.2236C23.0789 79.7283 23.3227 80.7928 22.8201 81.6001C20.9318 84.6362 18.099 88.801 15.3253 91.4014C14.9979 91.71 14.5771 91.8661 14.1545 91.8661Z" fill="white"/>
<path d="M20.5822 78.8949C21.6375 89.9471 17.584 100.486 17.584 100.486C18.6916 100.732 19.772 100.918 20.8206 101.054C21.4135 99.2001 23.2982 94.7775 24.0055 88.3936C24.0055 88.3936 24.1963 94.3944 23.6828 101.314C31.348 101.712 36.6541 99.6122 36.6541 99.6122C37.4956 85.8198 34.5485 77.0286 34.5485 77.0286" fill="white"/>
<path d="M25.6262 103.089C24.9689 103.089 24.2911 103.073 23.5941 103.037C23.133 103.013 22.7008 102.803 22.3956 102.455C22.3059 102.352 22.2295 102.241 22.1675 102.123C21.8027 102.588 21.2128 102.845 20.6006 102.765C19.4666 102.617 18.3277 102.418 17.2147 102.171C16.726 102.062 16.3094 101.745 16.0728 101.302C15.8363 100.859 15.8044 100.333 15.9844 99.8645C15.994 99.8397 16.9764 97.2562 17.8191 93.3977C18.589 89.8708 19.3968 84.5205 18.8755 79.0601C18.7852 78.1118 19.4762 77.2694 20.4195 77.1786C21.3627 77.0878 22.2006 77.7825 22.2909 78.7308C22.8573 84.6639 21.9857 90.4221 21.155 94.2074C21.0623 94.628 20.969 95.034 20.8751 95.4244C21.4385 93.4491 21.9881 91.0327 22.3011 88.2035C22.401 87.3042 23.1715 86.6349 24.0738 86.6712C24.9731 86.7069 25.6919 87.435 25.7207 88.3397C25.728 88.5666 25.8785 93.5133 25.5143 99.64C25.5432 99.64 25.5715 99.64 25.5998 99.64C29.9957 99.64 33.3937 98.8218 35.0045 98.3437C35.2994 91.9628 34.7619 86.8013 34.24 83.5256C33.6399 79.7578 32.9296 77.5998 32.9224 77.5786C32.622 76.6757 33.106 75.6984 34.0034 75.3958C34.9009 75.0932 35.8725 75.5773 36.1746 76.479C36.2992 76.8512 39.2193 85.7508 38.3669 99.7186C38.326 100.388 37.9034 100.973 37.2828 101.218C37.0715 101.301 32.4649 103.089 25.6262 103.089Z" fill="white"/>
<path d="M50.8755 57.0618L46.7559 61.4698L47.6178 61.6429L53.993 57.1023" fill="white"/>
<path d="M47.6171 63.3675C47.5052 63.3675 47.3926 63.3566 47.2813 63.3342L46.4193 63.1612C45.8083 63.0383 45.3111 62.5923 45.1209 61.9956C44.9307 61.3989 45.0776 60.7453 45.5043 60.289L49.624 55.881C50.2729 55.1869 51.3582 55.153 52.0492 55.8054C52.1648 55.9143 52.2617 56.0359 52.3406 56.1654L53.0009 55.6952C53.7738 55.1445 54.8446 55.3285 55.3924 56.1055C55.9402 56.8825 55.7572 57.9591 54.9843 58.5098L48.6085 63.0504C48.3166 63.258 47.9699 63.3675 47.6171 63.3675Z" fill="white"/>
<path d="M54.9075 65.0336C54.9713 66.1937 51.5373 67.329 47.2364 67.5693C42.9355 67.8095 39.3967 67.0639 39.3329 65.9038C39.2685 64.7437 42.7032 63.6084 47.0041 63.3682C51.3049 63.1273 54.8437 63.8735 54.9075 65.0336Z" fill="white"/>
<path d="M45.6486 69.3387C44.0492 69.3387 42.5613 69.2062 41.3441 68.9496C40.4478 68.7608 39.7111 68.506 39.1531 68.1925C37.8854 67.4803 37.6488 66.5126 37.6205 65.9994C37.5922 65.4862 37.7211 64.4986 38.9021 63.649C39.4221 63.275 40.1264 62.9397 40.9962 62.6522C42.5835 62.1276 44.6837 61.7699 46.9097 61.6458C49.135 61.5212 51.2617 61.6428 52.8972 61.9878C53.7935 62.1766 54.5302 62.4314 55.0882 62.7448C56.3559 63.4571 56.5925 64.4248 56.6208 64.938C56.6491 65.4511 56.5202 66.4388 55.3392 67.2884C54.8192 67.6624 54.1149 67.9977 53.2451 68.2851C51.6578 68.8098 49.5576 69.1675 47.3322 69.2915C46.7622 69.323 46.1988 69.3387 45.6486 69.3387ZM42.8243 65.7083C43.906 65.8614 45.3681 65.9462 47.1414 65.8469C48.9141 65.7477 50.3582 65.5008 51.417 65.2284C50.3353 65.0753 48.8726 64.9906 47.0999 65.0899C45.3266 65.1891 43.8825 65.436 42.8243 65.7083Z" fill="white"/>
<path d="M51.7736 60.4705C51.9169 63.0636 49.8541 65.287 47.1658 65.4377C44.4775 65.5878 42.1823 63.6076 42.0391 61.0145L51.7736 60.4705Z" fill="white"/>
<path d="M46.8772 67.1703C45.2718 67.1703 43.7417 66.6069 42.5318 65.5636C41.2057 64.4192 40.4226 62.8379 40.3269 61.1101C40.3016 60.6532 40.4581 60.2054 40.7615 59.8647C41.0648 59.524 41.4904 59.3182 41.9449 59.2928L51.6795 58.7488C52.6263 58.6961 53.4347 59.4241 53.4877 60.3755C53.6833 63.9139 50.8903 66.9573 47.2624 67.16C47.1336 67.1667 47.0048 67.1703 46.8772 67.1703ZM44.4315 62.6085C44.5326 62.7284 44.6446 62.8409 44.7668 62.9462C45.3976 63.4903 46.2163 63.7638 47.0722 63.716C48.131 63.6567 49.0424 63.1102 49.5733 62.3217L44.4315 62.6085Z" fill="white"/>
<path d="M37.6513 50.1101C34.4598 48.4265 31.2635 46.7478 28.0792 45.0569C25.3898 43.6293 22.5944 42.3119 20.0078 40.776C20.3377 40.4534 20.626 40.6913 20.8915 40.8165C28.943 43.8188 34.2696 47.1333 40.9126 50.4478C39.8261 50.3358 38.7384 50.2226 37.6513 50.1101Z" fill="white"/>
<path d="M40.9151 52.1731C40.8561 52.1731 40.7971 52.1701 40.7375 52.1641L37.4762 51.8258C37.2589 51.8034 37.0482 51.7392 36.855 51.6376C35.9027 51.1353 34.9505 50.6336 33.9976 50.1313C31.7939 48.97 29.5156 47.7699 27.2787 46.5826C26.3879 46.1094 25.4639 45.6379 24.57 45.1822C22.766 44.2618 20.9012 43.3099 19.1363 42.2617C18.6758 41.9882 18.3688 41.5149 18.305 40.9812C18.2418 40.4474 18.4296 39.9143 18.8131 39.5397C19.3079 39.0567 19.9417 38.8304 20.5978 38.9036C21.0469 38.9533 21.3876 39.1336 21.5711 39.2298C21.5736 39.231 21.576 39.2322 21.5784 39.2341C27.4033 41.4127 31.9137 43.7976 36.2766 46.1045C38.0125 47.0226 39.8075 47.9715 41.6766 48.904C42.42 49.275 42.7926 50.1271 42.562 50.9283C42.3477 51.6715 41.6705 52.1731 40.9151 52.1731Z" fill="white"/>
<path d="M34.277 99.5973C34.8856 96.0516 35.021 92.3523 35.0668 88.7624C35.1167 84.8197 34.2752 81.0453 33.0346 77.1595C32.9221 76.8073 32.7168 76.7238 33.3031 76.4648C33.6227 76.3238 34.2295 78.0703 34.6785 79.4549C35.818 82.6551 36.001 85.8195 36.2761 88.484C36.302 88.7358 36.2725 89.5509 36.2899 89.8033C36.55 93.568 36.5578 95.3932 36.1406 98.3016C36.0305 99.0738 35.5194 99.8963 34.277 99.5973Z" fill="white"/>
<path d="M34.7733 101.385C34.5 101.385 34.2015 101.352 33.8776 101.275C32.9976 101.063 32.433 100.201 32.5865 99.3043C33.1854 95.8161 33.3082 92.1658 33.3509 88.7411C33.3925 85.4538 32.7923 82.0492 31.4054 77.7023C31.4012 77.692 31.397 77.6823 31.3928 77.6732C31.1286 77.0662 31.1243 76.4919 31.3802 75.9654C31.7106 75.2846 32.3433 75.0056 32.6135 74.8864C33.0819 74.6801 33.6206 74.6831 34.0919 74.8955C34.9473 75.2804 35.3825 76.0677 36.3016 78.8981C37.3598 81.8815 37.6361 84.7446 37.8799 87.2718C37.9142 87.6246 37.9473 87.9695 37.9822 88.3072C38.0045 88.5245 38.0045 88.801 38.0009 89.2307C37.9997 89.385 37.9979 89.6168 38.0015 89.6894C38.2555 93.364 38.2886 95.4082 37.8384 98.5497C37.6951 99.547 37.2112 100.373 36.4744 100.875C36.1018 101.128 35.536 101.385 34.7733 101.385Z" fill="white"/>
<path d="M49.002 64.3872C50.3732 62.6207 50.4737 61.0781 50.4737 61.0781C50.4737 61.0781 50.9769 61.0388 51.2291 61.0376C51.1491 62.2982 50.2889 63.8952 49.002 64.3872Z" fill="white"/>
<path d="M49.0035 66.1125C48.4702 66.1125 47.9537 65.862 47.6226 65.4117C47.1651 64.789 47.1766 63.9364 47.6503 63.3263C48.5911 62.1142 48.7458 61.0939 48.7633 60.9523C48.797 60.0796 49.473 59.4272 50.341 59.3589C50.4355 59.3516 50.9231 59.3141 51.2246 59.3135C51.2264 59.3135 51.2282 59.3135 51.23 59.3135C51.7032 59.3135 52.1552 59.5096 52.4791 59.8563C52.8047 60.2043 52.9721 60.6721 52.942 61.1483C52.8264 62.9705 51.6454 65.2217 49.6126 65.9994C49.414 66.0756 49.2075 66.1125 49.0035 66.1125Z" fill="white"/>
<path d="M24.1764 61.7594C35.8278 59.8047 44.895 55.942 44.4285 53.1318C43.9621 50.3217 34.1387 49.6281 22.4873 51.5828C10.8359 53.5375 1.76874 57.4002 2.23518 60.2104C2.70161 63.0205 12.525 63.7141 24.1764 61.7594Z" fill="#805622"/>
<path d="M12.0094 63.4058C10.941 63.4058 9.92488 63.3725 8.97321 63.3053C6.90796 63.1595 5.2478 62.8599 4.0373 62.4151C2.63899 61.9007 1.85467 61.1878 1.70659 60.2958C1.55851 59.4038 2.07016 58.4737 3.22649 57.5308C4.22752 56.715 5.70107 55.8896 7.60741 55.0775C11.4701 53.432 16.7226 52.0014 22.3977 51.0495C28.0728 50.0975 33.5029 49.7356 37.6876 50.031C39.7528 50.1768 41.413 50.4764 42.6235 50.9212C44.0218 51.4356 44.8061 52.1484 44.9542 53.0405C45.1023 53.9325 44.5906 54.8626 43.4343 55.8055C42.4333 56.6212 40.9597 57.4467 39.0534 58.2588C35.1907 59.9043 29.9382 61.3349 24.2631 62.2868C19.8792 63.0227 15.6403 63.4058 12.0094 63.4058ZM34.6472 51.0065C31.0783 51.0065 26.9026 51.3847 22.5741 52.1109C16.9796 53.0495 11.8126 54.4553 8.02516 56.0687C3.93858 57.8098 2.62696 59.3027 2.76239 60.1191C2.89783 60.9355 4.62058 61.9195 9.04785 62.2323C13.1513 62.5222 18.4923 62.1646 24.0867 61.226C29.6812 60.2873 34.8482 58.8815 38.6356 57.2682C42.7222 55.5271 44.0338 54.0341 43.8984 53.2178C43.763 52.4014 42.0402 51.4174 37.6129 51.1051C36.6841 51.0392 35.6915 51.0065 34.6472 51.0065Z" fill="black"/>
<path d="M18.6912 68.8631C18.5799 71.3958 15.9031 73.3341 12.7122 73.1925C9.52129 73.0509 7.02504 70.8826 7.1364 68.3493C7.24776 65.8167 9.92459 63.8784 13.1155 64.02C16.3064 64.1622 18.8026 66.3305 18.6912 68.8631Z" fill="black"/>
<path d="M14.2195 73.3062C14.3266 75.2494 12.6093 76.9257 10.3827 77.0498C8.15614 77.1744 6.26424 75.6997 6.1571 73.7565C6.04995 71.8133 7.76729 70.137 9.99386 70.0129C12.2204 69.8888 14.1123 71.363 14.2195 73.3062Z" fill="black"/>
<path d="M11.06 77.4263C11.1341 78.768 9.9705 79.9245 8.46083 80.0086C6.95117 80.0927 5.66723 79.0736 5.59319 77.7319C5.51915 76.3903 6.6827 75.2338 8.19237 75.1497C9.70204 75.065 10.986 76.0841 11.06 77.4263Z" fill="black"/>
<path d="M7.65071 79.4517C8.82389 79.1557 9.95072 79.7421 10.2962 81.3113C10.6044 82.7111 9.80084 84.5599 10.4124 84.9738C9.23562 84.9962 6.74118 84.5726 6.11696 82.3522C5.72871 80.9724 6.47753 79.7476 7.65071 79.4517Z" fill="black"/>
<path d="M29.5568 67.6686L22.1797 68.0808L22.632 76.2613L30.0091 75.849L29.5568 67.6686Z" fill="#F2C598"/>
<path d="M22.1532 76.7951L21.6445 67.5978L30.0326 67.1294L30.5412 76.3261L22.1532 76.7951ZM22.7124 68.5582L23.1084 75.7216L29.474 75.3657L29.0779 68.2024L22.7124 68.5582Z" fill="black"/>
<path d="M37.0053 56.8944C37.0053 56.8944 36.8018 60.503 36.5261 63.1579C36.1945 66.3477 33.0433 69.8547 26.3702 70.1748C18.3144 70.5609 15.2542 68.625 13.8733 60.8794C12.4419 52.8501 24.3525 52.8228 24.3525 52.8228L35.9489 52.3345L37.0053 56.8944Z" fill="#F2C598"/>
<path d="M24.5756 70.7296C21.2017 70.7296 18.9788 70.1862 17.3222 68.9898C15.3232 67.5464 14.1055 65.0731 13.3735 60.9689C13.0148 58.9555 13.4144 57.2332 14.5617 55.8516C17.424 52.4039 23.937 52.3156 24.3397 52.3132L36.346 51.8079L37.5143 56.8501L37.5101 56.9233C37.5083 56.9596 37.3031 60.5743 37.0286 63.211C36.8353 65.0701 35.8084 66.8221 34.138 68.1431C32.2281 69.6536 29.5495 70.5323 26.3929 70.6836C25.7524 70.7139 25.1475 70.7296 24.5756 70.7296ZM35.5496 52.8608L24.3625 53.3317H24.3523C24.2885 53.3317 17.9248 53.3873 15.3376 56.5058C14.392 57.6453 14.0663 59.0868 14.3703 60.7891C15.0517 64.612 16.1442 66.8856 17.9127 68.1625C19.6493 69.4164 22.1715 69.866 26.3447 69.6657C29.2894 69.5247 31.7676 68.7211 33.5114 67.3419C34.9651 66.1921 35.856 64.6876 36.0209 63.1045C36.2713 60.6978 36.4639 57.4619 36.494 56.9379L35.5496 52.8608Z" fill="black"/>
<path d="M22.0945 62.1654C22.1415 63.015 21.4944 63.7418 20.6493 63.7896C19.8041 63.8369 19.0812 63.1863 19.0337 62.3366C18.9867 61.487 19.6338 60.7602 20.4789 60.7124C21.3246 60.6652 22.0482 61.3157 22.0945 62.1654Z" fill="black"/>
<path d="M32.868 61.3507C32.9149 62.2004 32.2678 62.9272 31.4227 62.9744C30.5776 63.0216 29.8546 62.3711 29.8071 61.5214C29.7601 60.6717 30.4072 59.9449 31.2523 59.8971C32.0981 59.8505 32.821 60.5011 32.868 61.3507Z" fill="black"/>
<path d="M26.3329 66.4674C24.937 66.4674 24.087 65.57 24.0503 65.5294C23.8595 65.3237 23.8703 65.0017 24.075 64.8099C24.2791 64.6186 24.5975 64.6289 24.7889 64.8323C24.8196 64.8643 25.4547 65.5137 26.4882 65.4435C27.4519 65.3781 27.7222 64.7385 27.733 64.7112L27.73 64.7191L28.6805 65.0713C28.6612 65.1234 28.1941 66.3488 26.5562 66.4602C26.4804 66.465 26.4057 66.4674 26.3329 66.4674Z" fill="black"/>
<path d="M35.8439 57.3948C34.451 57.6102 31.5033 57.7301 30.7575 57.7579C30.6792 57.7609 30.6239 57.681 30.6546 57.6084C31.2625 56.1591 30.3861 54.5771 30.3861 54.5771C30.3861 54.5771 30.5209 56.7249 28.6934 57.8487C26.8611 58.9755 21.0765 59.0572 19.9954 59.0626C19.9159 59.0632 19.8642 58.9791 19.8991 58.9071C20.752 57.1412 20.238 55.7887 20.238 55.7887C20.238 55.7887 18.7783 59.3295 15.284 60.4146C14.8229 60.558 14.5147 60.9937 14.5195 61.4791C14.5394 63.2976 15.0715 67.4944 19.3008 69.8576C19.3008 69.8576 8.29428 69.7172 6.84842 61.9432C5.40256 54.1699 11.3865 53.2609 11.3865 53.2609C11.3865 53.2609 35.6645 47.3055 38.8349 51.7062C41.9307 56.0029 37.0177 60.1943 37.0177 60.1943L36.4711 57.8233C36.4037 57.537 36.131 57.3506 35.8439 57.3948Z" fill="black"/>
<path d="M43.33 51.832C39.2272 48.9847 27.7578 42.8398 20.0849 40.0022C14.4628 45.4009 5.89958 54.358 2.79297 58.6777C5.06349 56.1462 12.9585 53.1791 22.4873 51.5803C32.0629 49.9741 40.4034 50.1563 43.33 51.832Z" fill="#C88C45"/>
<path d="M2.79294 59.2156C2.67436 59.2156 2.55577 59.1763 2.45645 59.0958C2.23554 58.9161 2.1928 58.5941 2.35894 58.3623C5.34757 54.2061 13.6953 45.3936 19.7153 39.6131C19.8628 39.4714 20.0783 39.4261 20.2697 39.4975C28.0034 42.3575 39.5938 48.5859 43.634 51.3896C43.8699 51.553 43.9356 51.8743 43.7833 52.1188C43.631 52.3627 43.3144 52.4426 43.0652 52.3004C41.7096 51.5246 38.9858 51.0677 35.394 51.0144C31.6223 50.9581 27.1902 51.3382 22.5751 52.1122C18.004 52.8789 13.6905 53.9767 10.1005 55.2863C6.70314 56.5257 4.24903 57.8582 3.19022 59.0395C3.08548 59.1557 2.93981 59.2156 2.79294 59.2156ZM20.2131 40.6237C15.4361 45.2284 9.28487 51.6407 5.52755 56.0936C6.90178 55.3722 8.4271 54.7513 9.73632 54.2738C13.3865 52.9425 17.765 51.8277 22.3993 51.0501C29.2885 49.8942 35.6402 49.6383 39.8195 50.2567C34.6807 47.2212 26.3162 42.9215 20.2131 40.6237Z" fill="black"/>
<path d="M41.7917 71.2209C41.7917 71.2209 41.4076 70.0826 41.5455 68.885C41.6833 67.6873 41.9891 66.5986 41.9891 66.5986L51.2813 66.9018C51.2813 66.9018 51.4065 68.8135 49.7722 69.9034C48.1379 70.9934 44.622 72.5601 44.622 72.5601L41.7917 71.2209Z" fill="#F2C598"/>
<path d="M44.6155 73.1204L41.3819 71.5894L41.3126 71.3842C41.2952 71.3334 40.8937 70.1224 41.043 68.8262C41.1844 67.6025 41.489 66.5066 41.5016 66.4606L41.6094 66.0769L51.7563 66.4079L51.7864 66.8685C51.7924 66.9586 51.9092 69.0888 50.0522 70.3282C48.4011 71.429 44.9718 72.9619 44.8268 73.026L44.6155 73.1204ZM42.2143 70.8577L44.6269 71.9997C45.4046 71.6463 48.1392 70.3815 49.4924 69.4792C50.4104 68.8667 50.6752 67.9432 50.7493 67.3937L42.3793 67.1208C42.2812 67.5311 42.1325 68.2204 42.0488 68.9436C41.9585 69.7291 42.1216 70.5037 42.2143 70.8577Z" fill="black"/>
<path d="M32.689 76.9893C32.7552 78.1894 28.5591 80.6203 25.7529 80.7771C22.9466 80.9338 19.4692 78.2765 19.403 77.0771C19.3368 75.8776 20.525 72.7175 23.3313 72.5607C26.1381 72.4034 32.6228 75.7893 32.689 76.9893Z" fill="#F36527"/>
<path d="M25.5185 81.2928C24.2219 81.2928 22.6924 80.7802 21.2766 79.864C20.1606 79.142 18.9489 78.0376 18.8977 77.105C18.8604 76.4369 19.1487 75.2248 19.8692 74.144C20.4694 73.2435 21.5523 72.1499 23.3033 72.0519C25.3018 71.9399 28.368 73.3687 29.2607 73.8087C30.2792 74.311 31.2134 74.8611 31.8912 75.3573C33.0259 76.187 33.1782 76.6699 33.1944 76.961C33.254 78.0394 31.5595 79.1523 30.5441 79.7194C28.9248 80.6241 27.1443 81.2093 25.7809 81.2855C25.6942 81.2904 25.6069 81.2928 25.5185 81.2928ZM23.5266 73.0643C23.4689 73.0643 23.4129 73.0655 23.3593 73.0686C22.0248 73.143 21.1821 74.0029 20.7102 74.711C20.1516 75.5491 19.8801 76.541 19.9084 77.0488C19.9252 77.3495 20.5452 78.1804 21.8244 79.0077C23.1619 79.8731 24.5836 80.3324 25.7243 80.2688C26.9198 80.2023 28.5727 79.6534 30.0384 78.837C31.654 77.9365 32.1663 77.2127 32.1825 77.0288C32.0808 76.7401 30.969 75.7682 28.6732 74.6541C26.629 73.6628 24.6848 73.0643 23.5266 73.0643Z" fill="black"/>
<path d="M34.095 78.2997C34.095 78.2997 35.7684 79.6589 38.6727 79.2413C42.2537 78.7263 45.9598 72.3207 45.9598 72.3207L41.1238 70.1481C41.1238 70.1481 39.2458 73.3289 38.1123 73.4983C36.6418 73.7186 31.1485 71.2265 31.1485 71.2265L30.3768 69.5242C27.6115 70.4452 26.9295 72.6541 26.9295 72.6541C25.7135 70.5723 22.0351 70.0967 22.0351 70.0967L21.6715 71.9642C21.6498 72.075 20.3262 73.4705 20.3262 73.4705" fill="#F36527"/>
<path d="M37.5742 79.8307C35.2043 79.8307 33.8409 78.7492 33.7759 78.696C33.558 78.5193 33.5243 78.1985 33.7001 77.9801C33.8752 77.7622 34.1931 77.7277 34.4104 77.9026C34.473 77.9522 35.9718 79.116 38.5999 78.7377C39.935 78.5459 41.5464 77.3483 43.2595 75.2744C44.1468 74.2002 44.8504 73.1424 45.2248 72.5493L41.32 70.7955C41.1196 71.1114 40.8084 71.5835 40.4466 72.067C39.2391 73.6798 38.5776 73.9448 38.1857 74.0035C37.9263 74.0423 37.136 74.1609 33.8975 72.9227C32.3439 72.3284 30.9528 71.699 30.9384 71.6924C30.8264 71.6416 30.7367 71.552 30.6856 71.4394L30.1095 70.1686C27.9955 71.0521 27.4345 72.7339 27.4104 72.8095C27.349 73.0008 27.1817 73.1387 26.9836 73.1611C26.785 73.1829 26.5924 73.0873 26.4912 72.9142C25.6569 71.486 23.4135 70.8857 22.4354 70.6866L22.1669 72.064C22.1356 72.2237 22.1169 72.3206 20.6915 73.8238C20.4983 74.0271 20.1781 74.035 19.9752 73.8407C19.773 73.6465 19.7652 73.3245 19.9584 73.1206C20.4502 72.6026 21.0232 71.978 21.1924 71.768L21.5361 70.0009C21.5872 69.7377 21.8328 69.5598 22.0977 69.5937C22.2397 69.6118 25.2266 70.0173 26.8271 71.6918C27.3057 70.8839 28.3043 69.6796 30.216 69.043C30.4616 68.9613 30.7289 69.0787 30.836 69.3153L31.5283 70.8427C33.6242 71.7813 37.0998 73.1369 38.0365 72.9965C38.5722 72.916 39.8399 71.3251 40.6874 69.8896C40.8186 69.6675 41.0949 69.5791 41.3297 69.6844L46.1657 71.857C46.2969 71.9157 46.3968 72.0283 46.4413 72.1656C46.4853 72.303 46.4696 72.4531 46.3974 72.5778C46.2409 72.8483 42.5245 79.2025 38.7443 79.7466C38.3308 79.8047 37.9401 79.8307 37.5742 79.8307Z" fill="black"/>
<path d="M19.538 103.381C19.538 103.381 18.3973 105.869 17.9609 106.879C17.4191 108.133 21.1987 109.002 22.7469 107.421C24.2951 105.841 25.0541 103.194 25.0541 103.194L19.538 103.381Z" fill="#F2C598"/>
<path d="M20.3425 108.784C19.4654 108.784 18.6017 108.563 18.0575 108.194C17.4682 107.794 17.2587 107.227 17.4965 106.676C17.9299 105.672 19.067 103.193 19.0784 103.168L19.209 102.883L25.7335 102.662L25.5402 103.336C25.5077 103.449 24.727 106.126 23.1072 107.779C22.5046 108.394 21.5771 108.75 20.4954 108.782C20.4448 108.784 20.3936 108.784 20.3425 108.784ZM19.8675 103.879C19.5557 104.562 18.7672 106.29 18.4253 107.081C18.3886 107.167 18.5132 107.274 18.6239 107.349C19.4498 107.91 21.4633 108.005 22.3855 107.064C23.3624 106.068 24.0155 104.584 24.3363 103.729L19.8675 103.879Z" fill="black"/>
<path d="M19.6366 102.878C19.6366 102.878 18.6079 105.522 18.1222 106.504C17.6364 107.487 21.2968 108.497 22.845 106.918C24.3932 105.338 25.1522 102.691 25.1522 102.691L19.6366 102.878Z" fill="#F2C598"/>
<path d="M20.5122 108.252C19.5762 108.252 18.6733 108 18.1261 107.607C17.5194 107.172 17.4923 106.635 17.6693 106.278C18.1394 105.327 19.1554 102.718 19.1657 102.692L19.2873 102.38L25.8328 102.158L25.6396 102.832C25.607 102.945 24.8263 105.622 23.2065 107.275C22.5251 107.971 21.5 108.252 20.5122 108.252ZM18.6011 106.681C18.6956 106.793 19.0573 107.037 19.7754 107.165C20.6477 107.32 21.8172 107.242 22.4854 106.561C23.4623 105.564 24.1154 104.081 24.4363 103.225L19.9873 103.376C19.7032 104.095 19.0008 105.858 18.6011 106.681Z" fill="black"/>
<path d="M35.2295 102.167C35.2295 102.167 36.6482 104.466 37.4211 105.998C37.9147 106.976 33.5434 108.058 31.7081 106.828C30.5867 106.077 29.8379 102.298 29.8379 102.298L35.2295 102.167Z" fill="white"/>
<path d="M34.0238 107.886C33.0529 107.886 32.0976 107.7 31.4276 107.251C30.8564 106.868 30.3472 105.947 29.8704 104.434C29.5388 103.381 29.3497 102.436 29.3419 102.397C29.3124 102.249 29.3497 102.097 29.443 101.979C29.5363 101.862 29.6766 101.792 29.8265 101.789L35.2181 101.658C35.3968 101.654 35.566 101.745 35.6605 101.899C35.7189 101.993 37.0997 104.235 37.8732 105.768C38.0664 106.151 37.9575 106.58 37.5819 106.915C36.9541 107.475 35.4715 107.886 34.0238 107.886ZM30.4651 102.792C30.807 104.229 31.4198 106.023 31.9892 106.405C32.8669 106.993 34.5252 106.952 35.6948 106.665C36.4165 106.488 36.7994 106.263 36.9252 106.141C36.3136 104.944 35.3264 103.301 34.9508 102.683L30.4651 102.792Z" fill="black"/>
<path d="M35.1377 101.677C35.1377 101.677 36.1881 104.012 37.1686 105.479C37.7772 106.39 33.4516 107.568 31.6163 106.338C30.4949 105.586 29.7461 101.807 29.7461 101.807L35.1377 101.677Z" fill="#F2C598"/>
<path d="M33.7991 107.377C33.0189 107.377 32.0679 107.252 31.3365 106.762C30.7653 106.379 30.256 105.458 29.7793 103.945C29.4476 102.892 29.2586 101.947 29.2508 101.908L29.1328 101.314L35.4622 101.16L35.6007 101.468C35.6109 101.491 36.645 103.783 37.5907 105.196C37.7785 105.478 37.8345 105.925 37.4269 106.336C36.8665 106.901 35.5989 107.223 34.6839 107.326C34.4419 107.354 34.1361 107.377 33.7991 107.377ZM30.374 102.302C30.7159 103.738 31.3287 105.533 31.8981 105.915C32.7113 106.46 34.2198 106.441 35.3539 106.181C36.0949 106.011 36.518 105.781 36.6745 105.651C35.9077 104.476 35.1305 102.863 34.8187 102.195L30.374 102.302Z" fill="black"/>
<path d="M34.2488 79.7908L21.7092 81.4634C21.5762 81.481 21.4817 81.6014 21.4931 81.7352C22.378 91.7464 18.1367 101.694 17.5986 103.346C17.5546 103.479 17.6293 103.624 17.7635 103.664C20.9784 104.632 26.0606 104.3 27.1279 104.217C27.2452 104.207 27.3398 104.117 27.356 104L27.6473 101.882C27.6889 101.578 28.1325 101.6 28.1451 101.906L28.2258 103.892C28.2312 104.03 28.3468 104.138 28.484 104.132C31.398 104.025 34.1465 103.641 36.0986 102.733C36.1829 102.694 36.24 102.612 36.2449 102.518C36.9533 89.9491 35.0368 81.2861 34.5143 79.9469C34.4721 79.8404 34.3626 79.7756 34.2488 79.7908Z" fill="black"/>
<path d="M11.9338 87.7007L11.8538 87.7219C11.8538 87.7219 9.02223 88.6514 8.5497 88.9116C7.31573 89.5918 5.52676 91.1029 5.37627 91.3504C5.25709 91.5465 5.76031 92.6485 7.14056 91.9544C8.22044 91.411 8.97528 90.9607 9.43696 90.8312C9.58023 90.7913 9.70724 90.9335 9.65366 91.0727C9.54652 91.3523 9.43636 91.69 9.34005 91.9586C9.01561 92.8646 9.43155 93.4704 10.122 93.2295C10.8455 92.9771 11.4198 91.8158 12.065 91.6095C12.7097 91.4031 14.1171 90.8137 14.0153 89.351C13.9136 87.8883 11.9338 87.7007 11.9338 87.7007Z" fill="#F2C598"/>
<path d="M9.82974 93.7924C9.536 93.7924 9.27054 93.6853 9.06709 93.4777C8.69629 93.1001 8.62045 92.4677 8.86483 91.7863C8.8859 91.727 8.90817 91.6646 8.93044 91.5999C8.74625 91.6925 8.53858 91.802 8.31105 91.9212C8.03235 92.0677 7.71693 92.2341 7.36841 92.409C6.10132 93.0462 5.38562 92.4205 5.19601 92.2135C4.92513 91.917 4.73071 91.4371 4.945 91.0843C5.18216 90.6939 7.08128 89.1399 8.30683 88.4639C8.79621 88.194 11.2166 87.394 11.697 87.2366L11.7265 87.2281L11.8932 87.1846L11.9823 87.193C12.0804 87.2021 14.3906 87.4424 14.5213 89.3148C14.6098 90.585 13.7706 91.5981 12.2194 92.0943C12.0328 92.1542 11.759 92.4568 11.517 92.7243C11.1546 93.1249 10.7796 93.5388 10.289 93.7101C10.1313 93.7658 9.97722 93.7924 9.82974 93.7924ZM9.48724 90.3151C9.67745 90.3151 9.86104 90.395 9.99347 90.5414C10.1698 90.7363 10.221 91.0098 10.1271 91.2555C10.0627 91.4244 9.99528 91.6186 9.93027 91.8068C9.89114 91.9206 9.85322 92.0308 9.8171 92.1318C9.68588 92.4979 9.74006 92.7146 9.78701 92.7624C9.80326 92.7787 9.86827 92.7793 9.95675 92.7485C10.2035 92.6625 10.5033 92.3315 10.7676 92.0392C11.1113 91.6598 11.4664 91.267 11.9125 91.1242C12.6799 90.8785 13.5798 90.378 13.5106 89.3862C13.4498 88.5141 12.2959 88.2702 11.9702 88.2188C10.888 88.5746 9.1038 89.1865 8.7938 89.3577C7.79278 89.9096 6.37581 91.0655 5.92255 91.5024C5.95566 91.5442 6.00501 91.5902 6.07424 91.6229C6.27348 91.7179 6.56422 91.6749 6.91455 91.4982C7.25464 91.3269 7.56585 91.1629 7.84093 91.0183C8.47658 90.6836 8.93526 90.4422 9.30184 90.3399C9.36324 90.3236 9.42584 90.3151 9.48724 90.3151Z" fill="black"/>
<path d="M21.7923 72.0269C21.7923 72.0269 18.8928 73.9822 18.2162 75.1217C15.6302 79.4752 13.5415 83.056 10.6504 87.6238L14.1561 90.1419C16.47 87.9724 19.0625 84.3922 21.3667 80.6874" fill="#F36527"/>
<path d="M14.1548 90.6509C14.0519 90.6509 13.949 90.6195 13.8605 90.5559L10.3548 88.0378C10.1357 87.8805 10.0773 87.5785 10.2218 87.3503C12.6698 83.4833 14.5052 80.3861 16.63 76.7999C17.005 76.1675 17.3867 75.523 17.7797 74.8609C18.4942 73.6584 21.2024 71.8109 21.5087 71.6045C21.7411 71.4478 22.0553 71.5101 22.2112 71.7437C22.3671 71.9773 22.3051 72.2938 22.0728 72.4499C21.292 72.9764 19.1558 74.5299 18.6489 75.3826C18.2559 76.0446 17.8742 76.6885 17.4998 77.3209C15.4454 80.7879 13.6618 83.798 11.3329 87.4901L14.1073 89.483C16.612 87.0296 19.1871 83.2279 20.9345 80.4175C21.0826 80.1791 21.395 80.1065 21.6321 80.256C21.8693 80.4048 21.9415 80.7189 21.7929 80.9574C19.9431 83.9311 17.176 88.0039 14.4985 90.5141C14.4034 90.6043 14.2794 90.6509 14.1548 90.6509Z" fill="black"/>
<path d="M20.5822 78.8951C21.6375 89.9473 17.584 100.486 17.584 100.486C18.6916 100.732 19.772 100.918 20.8206 101.055C21.4135 99.2003 23.2982 94.7778 24.0055 88.3939C24.0055 88.3939 24.1963 94.3947 23.6828 101.314C31.348 101.712 36.6541 99.6124 36.6541 99.6124C37.4956 85.8201 34.5485 77.0288 34.5485 77.0288" fill="#F36527"/>
<path d="M25.6413 101.875C24.9996 101.875 24.3387 101.858 23.6573 101.823C23.5213 101.816 23.3937 101.754 23.3034 101.651C23.2131 101.548 23.1679 101.413 23.1782 101.277C23.3702 98.6902 23.4629 96.2223 23.5044 94.152C22.882 96.7264 22.1681 98.7416 21.6986 100.065C21.5391 100.515 21.4012 100.904 21.3031 101.21C21.2285 101.444 20.9979 101.591 20.756 101.559C19.6574 101.416 18.5535 101.223 17.4754 100.983C17.3315 100.951 17.2081 100.857 17.1383 100.727C17.0685 100.596 17.0588 100.441 17.1124 100.302C17.1226 100.276 18.1267 97.6426 18.9899 93.7054C19.7838 90.0817 20.6175 84.5789 20.0794 78.9436C20.0529 78.6634 20.257 78.4146 20.535 78.388C20.8131 78.3614 21.0611 78.5665 21.0876 78.8461C21.639 84.6212 20.7867 90.2444 19.9746 93.9444C19.3209 96.9231 18.6028 99.1283 18.2603 100.109C18.9923 100.259 19.7333 100.388 20.4743 100.493C20.5537 100.262 20.6452 100.004 20.7445 99.7226C21.5589 97.4254 22.9217 93.5807 23.5032 88.337C23.5327 88.0713 23.7614 87.874 24.0263 87.8843C24.2918 87.8946 24.5042 88.11 24.5127 88.3769C24.5145 88.4356 24.689 94.1804 24.2261 100.828C30.4201 101.062 34.987 99.6548 36.1686 99.2463C36.5611 92.3371 35.9826 86.7502 35.4222 83.259C34.8052 79.4144 34.0763 77.2122 34.0691 77.1904C33.98 76.9241 34.1226 76.6354 34.3875 76.5453C34.6524 76.4557 34.9395 76.5985 35.0292 76.8654C35.0599 76.9568 35.7864 79.1481 36.4178 83.0666C36.9981 86.6703 37.5983 92.4715 37.1606 99.6427C37.1486 99.84 37.024 100.013 36.8404 100.085C36.6388 100.166 32.238 101.874 25.6413 101.875Z" fill="black"/>
<path d="M47.6153 62.0061C47.5919 62.0061 47.5684 62.0037 47.5449 61.9989L46.6829 61.8258C46.5541 61.7998 46.4494 61.706 46.4097 61.5807C46.3699 61.4548 46.4006 61.3175 46.4903 61.2212L50.61 56.8132C50.7466 56.6667 50.9754 56.6601 51.1204 56.7975C51.2661 56.9348 51.2727 57.1648 51.1361 57.3106L47.4618 61.2418L47.5335 61.2563L53.7822 56.8065C53.9447 56.6903 54.1705 56.7291 54.2854 56.8931C54.401 57.0565 54.3625 57.2834 54.1994 57.399L47.8236 61.9396C47.7628 61.9831 47.6894 62.0061 47.6153 62.0061Z" fill="black"/>
<path d="M54.9056 65.0338C54.9694 66.1939 51.5353 67.3292 47.2344 67.5695C42.9336 67.8097 39.3948 67.0642 39.331 65.9041C39.2666 64.744 42.7012 63.6087 47.0021 63.3684C51.303 63.1276 54.8418 63.8737 54.9056 65.0338Z" fill="#BAAF95"/>
<path d="M45.6406 68.1238C44.1279 68.1238 42.7278 67.9998 41.5907 67.7601C39.8024 67.3831 38.8724 66.7682 38.826 65.9319C38.7797 65.0956 39.6362 64.3809 41.3722 63.8072C42.862 63.3146 44.852 62.9781 46.9751 62.8595C49.0981 62.7409 51.1128 62.8534 52.6478 63.1772C54.4361 63.5542 55.3661 64.1691 55.4125 65.0054C55.4588 65.8417 54.6023 66.5564 52.8663 67.1301C51.3765 67.6227 49.387 67.9592 47.264 68.0778C46.7132 68.1087 46.1697 68.1238 45.6406 68.1238ZM48.6039 63.832C48.0917 63.832 47.5656 63.8465 47.0311 63.8768C44.9941 63.9905 43.0968 64.3094 41.6888 64.7748C40.1298 65.2904 39.8318 65.7746 39.8379 65.8756C39.8433 65.9773 40.193 66.4251 41.799 66.7634C43.2497 67.069 45.1705 67.1749 47.2074 67.0611C49.2444 66.9474 51.1417 66.6285 52.5496 66.1631C54.1087 65.6475 54.4066 65.1633 54.4006 65.0623C54.3952 64.9606 54.0455 64.5128 52.4395 64.1745C51.3692 63.9482 50.0432 63.832 48.6039 63.832Z" fill="black"/>
<path d="M51.7736 60.4709C51.9169 63.0641 49.8541 65.2875 47.1658 65.4382C44.4775 65.5882 42.1823 63.6081 42.0391 61.015L51.7736 60.4709Z" fill="#C88C45"/>
<path d="M46.877 65.9839C45.5534 65.9839 44.2935 65.521 43.2997 64.6634C42.2198 63.7315 41.5824 62.4467 41.5047 61.0445C41.4969 60.9023 41.5457 60.7625 41.6402 60.656C41.7347 60.5495 41.8677 60.4854 42.0091 60.4775L51.7437 59.9334C52.0387 59.9171 52.2915 60.144 52.3077 60.4406C52.4673 63.3254 50.1739 65.8084 47.1955 65.9742C47.0889 65.9809 46.9824 65.9839 46.877 65.9839ZM42.6382 61.5202C42.8091 62.4164 43.2798 63.2286 43.9962 63.8471C44.8593 64.5914 45.9735 64.966 47.1359 64.9013C49.3354 64.7784 51.0702 63.0954 51.2327 61.0403L42.6382 61.5202Z" fill="black"/>
<path d="M37.6532 50.1103C34.4618 48.4268 31.2654 46.748 28.0812 45.0572C25.3917 43.6296 22.5963 42.3121 20.0098 40.7762C20.3396 40.4537 20.628 40.6915 20.8934 40.8168C28.945 43.819 34.2715 47.1335 40.9146 50.448C39.8281 50.3361 38.7403 50.2229 37.6532 50.1103Z" fill="white"/>
<path d="M34.279 99.5973C34.8876 96.0516 35.023 92.3523 35.0687 88.7624C35.1187 84.8197 34.2772 81.0453 33.0366 77.1595C32.924 76.8073 32.7188 76.7238 33.3051 76.4648C33.6247 76.3238 34.2314 78.0703 34.6805 79.4549C35.82 82.6551 36.0029 85.8195 36.278 88.484C36.3039 88.7358 36.2744 89.5509 36.2919 89.8033C36.5519 93.568 36.5597 95.3932 36.1426 98.3016C36.0324 99.0738 35.5214 99.8963 34.279 99.5973Z" fill="white"/>
<path d="M49.002 64.3874C50.3732 62.621 50.4737 61.0784 50.4737 61.0784C50.4737 61.0784 50.9769 61.0391 51.2291 61.0378C51.1491 62.2984 50.2889 63.8954 49.002 64.3874Z" fill="white"/>
</g>
<defs>
<clipPath id="clip0_2380_740">
<rect width="153" height="110" fill="white" transform="translate(0.5)"/>
</clipPath>
</defs>
<!-- Code injected by live-server -->
<script>
	// <![CDATA[  <-- For SVG support
	if ('WebSocket' in window) {
		(function () {
			function refreshCSS() {
				var sheets = [].slice.call(document.getElementsByTagName("link"));
				var head = document.getElementsByTagName("head")[0];
				for (var i = 0; i < sheets.length; ++i) {
					var elem = sheets[i];
					var parent = elem.parentElement || head;
					parent.removeChild(elem);
					var rel = elem.rel;
					if (elem.href && typeof rel != "string" || rel.length == 0 || rel.toLowerCase() == "stylesheet") {
						var url = elem.href.replace(/(&|\?)_cacheOverride=\d+/, '');
						elem.href = url + (url.indexOf('?') >= 0 ? '&' : '?') + '_cacheOverride=' + (new Date().valueOf());
					}
					parent.appendChild(elem);
				}
			}
			var protocol = window.location.protocol === 'http:' ? 'ws://' : 'wss://';
			var address = protocol + window.location.host + window.location.pathname + '/ws';
			var socket = new WebSocket(address);
			socket.onmessage = function (msg) {
				if (msg.data == 'reload') window.location.reload();
				else if (msg.data == 'refreshcss') refreshCSS();
			};
			if (sessionStorage && !sessionStorage.getItem('IsThisFirstTime_Log_From_LiveServer')) {
				console.log('Live reload enabled.');
				sessionStorage.setItem('IsThisFirstTime_Log_From_LiveServer', true);
			}
		})();
	}
	else {
		console.error('Upgrade your browser. This Browser is NOT supported WebSocket for Live-Reloading.');
	}
	// ]]>
</script>
</svg>
